/* XPM */
static char *result[] = {
/* columns rows colors chars-per-pixel */
"32 32 188 2 ",
"   c #4B8573",
".  c #528C7A",
"X  c #56907E",
"o  c #3FBA99",
"O  c #5A9583",
"+  c #5B9684",
"@  c #67A391",
"#  c #6AA794",
"$  c #6BA895",
"%  c #6FAD9A",
"&  c #5ABFA0",
"*  c #77B6A3",
"=  c #7ABAA7",
"-  c #7CBCA8",
";  c #7CBCA9",
":  c #7CBDA9",
">  c #7DBEAA",
",  c #7EBFAB",
"<  c #3FC4A0",
"1  c #40C4A0",
"2  c #5EC0A2",
"3  c #5FC0A3",
"4  c #5DC3A5",
"5  c #60C0A3",
"6  c #63C1A4",
"7  c #65C1A5",
"8  c #67C5A8",
"9  c #6DC3A8",
"0  c #6EC3A8",
"q  c #6FC3A8",
"w  c #6FC3A9",
"e  c #6EC4A8",
"r  c #6FC4A8",
"t  c #6EC4A9",
"y  c #6FC4A9",
"u  c #6FC4AA",
"i  c #6FC5AA",
"p  c #6AC6AC",
"a  c #6FC7AE",
"s  c #6CC8AB",
"d  c #6DC8AB",
"f  c #70C4A9",
"g  c #70C4AA",
"h  c #70C5AA",
"j  c #71C5AA",
"k  c #72C5AB",
"l  c #70C7AE",
"z  c #76C7AD",
"x  c #7FC0AC",
"c  c #78C6AD",
"v  c #78C7AE",
"b  c #7AC7AE",
"n  c #70C8AC",
"m  c #71C8AC",
"M  c #71C9AD",
"N  c #72C9AD",
"B  c #71C8AF",
"V  c #73C8AF",
"C  c #73CAAF",
"Z  c #74CBAF",
"A  c #73CCAF",
"S  c #79C8AF",
"D  c #7AC9AF",
"F  c #7EC8AF",
"G  c #73C8B0",
"H  c #74C9B0",
"J  c #73CCB0",
"K  c #73CDB0",
"L  c #74CCB0",
"P  c #74CDB1",
"I  c #75CEB1",
"U  c #75CEB2",
"Y  c #75CFB3",
"T  c #76CFB3",
"R  c #79CBB1",
"E  c #7BCAB3",
"W  c #7FC8B0",
"Q  c #7CCBB3",
"!  c #7DCBB3",
"~  c #7CCDB3",
"^  c #7DCBB4",
"/  c #77D2B5",
"(  c #77D3B6",
")  c #7BD1B5",
"_  c #79D6B9",
"`  c #7AD7B9",
"'  c #7DD5B9",
"]  c #7CDBBD",
"[  c #7ADCBD",
"{  c #7CDCBD",
"}  c #7DDCBE",
"|  c #7EDEBF",
" . c #80C2AE",
".. c #84C7B2",
"X. c #84CAB3",
"o. c #85CAB3",
"O. c #87CAB5",
"+. c #81CCB5",
"@. c #83CDB6",
"#. c #82CDB7",
"$. c #84CDB7",
"%. c #85CDB7",
"&. c #88C9B5",
"*. c #86CDB8",
"=. c #87CEB8",
"-. c #89CCB8",
";. c #8ACDB8",
":. c #8ACDB9",
">. c #88CEB9",
",. c #89CEB9",
"<. c #88CFB9",
"1. c #8ACEB9",
"2. c #8ACFBA",
"3. c #8BCFBA",
"4. c #8CCFBA",
"5. c #8CCFBB",
"6. c #8BD0BA",
"7. c #8AD1BB",
"8. c #8CD0BB",
"9. c #8DD0BB",
"0. c #8CD1BB",
"q. c #8ED0BB",
"w. c #8AD2BC",
"e. c #8BD2BC",
"r. c #8CD0BC",
"t. c #8DD1BC",
"y. c #8FD1BC",
"u. c #8ED3BE",
"i. c #8FD4BF",
"p. c #90D1BD",
"a. c #93D3BF",
"s. c #95D2BF",
"d. c #96D4C0",
"f. c #97D4C1",
"g. c #97D5C1",
"h. c #99D5C2",
"j. c #9BD4C2",
"k. c #9BD6C3",
"l. c #9CD7C4",
"z. c #9FD6C4",
"x. c #9ED8C5",
"c. c #A3D4C3",
"v. c #A3D5C3",
"b. c #A4D7C6",
"n. c #A4D7C7",
"m. c #A6D8C8",
"M. c #ACD9C9",
"N. c #AEDACA",
"B. c #B1DCCE",
"V. c #B4DDD0",
"C. c #B6DED1",
"Z. c #BDDFD3",
"A. c #80E2C3",
"S. c #82E6C6",
"D. c #BFE0D3",
"F. c #C6E5DA",
"G. c #C7E5DB",
"H. c #C8E5DB",
"J. c #D3EAE2",
"K. c #D4E9E1",
"L. c #D5EBE3",
"P. c #D6EEE5",
"I. c #D9EDE6",
"U. c #DAEDE6",
"Y. c #DCEEE7",
"T. c #E6F3EE",
"R. c #E6F3EF",
"E. c #E2F7EF",
"W. c #E7F4EF",
"Q. c #E8F3EF",
"!. c #E9F4F1",
"~. c #EDF6F2",
"^. c #EFF7F4",
"/. c #E7FAF4",
"(. c #E9F8F3",
"). c #EDFFFA",
"_. c #F0F7F4",
"`. c #F3F9F7",
"'. c #F5FAF8",
"]. c #F6FAF9",
"[. c #F7FBF9",
"{. c #F0FFFC",
"}. c #FAFFFF",
"|. c #FCFDFD",
" X c #FCFEFD",
".X c #FDFFFF",
"XX c white",
"oX c None",
/* pixels */
"oXoXoXoXoXoXoXoXoXoXoXoXXXXXXXXXXXXXXXXXoXoXoXoXoXoXoXoXoXoXoXoX",
"oXoXoXoXoXoXoXoXoXoXXXoXXXXXXXXXXXXXXXXXoXXXoXoXoXoXoXoXoXoXoXoX",
"oXoXoXoXoXoXoXoXoXXXXXXX.X'.].].].].'..XXXXXXXoXoXoXoXoXoXoXoXoX",
"oXoXoXoXoXoXoXoXXXXXXXXXF.j.m.m.m.m.j.F.XXXXXXXXoXoXoXoXoXoXoXoX",
"oXoXoXoXoXoXoXXXXX(.L.J.j.B ^ ^ ! Q l j.J.L.(.XXXXoXoXoXoXoXoXoX",
"oXoXoXoXoXoXXXXX`.m.a +.>.4.3.3.3.8.9.,.+.a m.`.XXXXoXoXoXoXoXoX",
"oXoXoXoXoXoXXX}.b.q.%.>.2.3.3.1.y.f.h.a.,.$.q.n.}.XXoXoXoXoXoXoX",
"oXoXoXoXoXoXXXE.V $.4.3.3.3.3.,.p.l.x.g.4.3.$.G E.XXoXoXoXoXoXoX",
"oXoXoXoXoXXXXXU.@.=.3.3.3.3.3.1.y.h.k.d.3.2.=.@.U.XXXXoXoXoXoXoX",
"oXoXoXoXoXXXXXI.@.=.3.3.3.3.3.3.5.y.y.q.3.3.=.@.I.XXXXoXoXoXoXoX",
"oXoXoXoXoXXXXXU.@.=.8.t.t.8.3.3.3.1.6.0.t.8.=.@.I.XXXXoXoXoXoXoX",
"oXoXoXoXoXXXXXU.@.=.1.;.;.1.3.3.3.3.1.;.:.1.=.@.I.XXXXoXoXoXoXoX",
"oXoXoXoXoXXXXXU.@.7. .# @ * 3.8.8.3.* @ #  .7.@.I.XXXXoXoXoXoXoX",
"oXoXoXoXoXXXXXU.@.e.= .   $ 3.8.8.3.$   . = e.@.U.XXXXoXoXoXoXoX",
"oXoXoXoXoXXXXXU.@.w.: + X % 3.8.8.3.% X + : w.@.U.XXXXoXoXoXoXoX",
"oXoXoXoXoXoXXX/.@.<.O.x > ..u.u.u.u...> x O.<.@./.XXoXoXoXoXoXoX",
"oXoXoXoXoXoXXX{.! %.9.u.i.-., > > , -.i.u.r.%.^ {.XXoXoXoXoXoXoX",
"oXoXoXoXoXoXXX).+.=.3.3.u., + O O + , u.3.3.=.+.).XXoXoXoXoXoXoX",
"oXoXoXoXoXc v.P.W.z.p E <.&.; - - ; &.<.E p z.W.P.c.c oXoXoXoXoX",
"oXoXoXoXk [ 1 M.~.H.V.C.s.#.w.w.w.w.#.s.C.V.G.~.M.< [ k oXoXoXoX",
"oXoXoXw P i M 8 o.Q.XX|.B.H *.*.*.*.H B. XXXQ.X.8 M i I w oXoXoX",
"oXoXoXy | y oX& d N.D.Z.Y.!.R.T.T.R.!.Y.Z.D.N.s & oXy | y oXoXoX",
"oXoXoX0 A.i oXoXK 4 o 3 K.[._._.^._.[.K.3 o 4 J oXoXi A.y oXoXoX",
"oXoXoXu S.y oXoXL m t y b W F F F F W b y 0 n L oXoXy S.u oXoXoX",
"oXoXoXoXoXoXoXoXL m f t 7 3 5 5 5 5 2 6 t z R L oXoXoXoXoXoXoXoX",
"oXoXoXoXoXoXoXoXY N y y y y y y y y j j y v ~ T oXoXoXoXoXoXoXoX",
"oXoXoXoXoXoXoXoX` C t y y y y y t y S D y y Z ` oXoXoXoXoXoXoXoX",
"oXoXoXoXoXoXoXoXoXg L y U ( / / / / ' ) h A e oXoXoXoXoXoXoXoXoX",
"oXoXoXoXoXoXoXoXoXr _ t e q u u u u 0 9 t _ r oXoXoXoXoXoXoXoXoX",
"oXoXoXoXoXoXoXoXoXw ] w oXoXoXoXoXoXoXoXw ] w oXoXoXoXoXoXoXoXoX",
"oXoXoXoXoXoXoXoXoXy } y oXoXoXoXoXoXoXoXy } y oXoXoXoXoXoXoXoXoX",
"oXoXoXoXoXoXoXoXoXy { e oXoXoXoXoXoXoXoXe { y oXoXoXoXoXoXoXoXoX"
};
