/* XPM */
static char *result[] = {
/* columns rows colors chars-per-pixel */
"32 32 224 2 ",
"   c #4A8472",
".  c #4A8473",
"X  c #558F7D",
"o  c #558F7E",
"O  c #57917F",
"+  c #29B895",
"@  c #3FBA99",
"#  c #5C9785",
"$  c #5D9886",
"%  c #5F9A88",
"&  c #5F9F8C",
"*  c #66A390",
"=  c #64A592",
"-  c #6BA895",
";  c #6BA996",
":  c #6CAA97",
">  c #6DAA97",
",  c #6FB19D",
"<  c #75B4A0",
"1  c #7BBBA7",
"2  c #7CBBA8",
"3  c #7CBDA9",
"4  c #7DBEAA",
"5  c #7EBEAA",
"6  c #7EBFAB",
"7  c #40C4A0",
"8  c #59C0A1",
"9  c #5AC0A2",
"0  c #5FC0A3",
"q  c #5DC3A5",
"w  c #60C0A3",
"e  c #65C1A5",
"r  c #68C3A7",
"t  c #67C5A8",
"y  c #6FC3A8",
"u  c #6EC3A9",
"i  c #6FC3A9",
"p  c #68C6A9",
"a  c #6DC5A9",
"s  c #6FC4A8",
"d  c #6EC4A9",
"f  c #6FC4A9",
"g  c #6FC5A9",
"h  c #6FC4AA",
"j  c #6FC5AA",
"k  c #6AC6AC",
"l  c #6BC7AD",
"z  c #6FC7AE",
"x  c #6CC8AB",
"c  c #6DC8AB",
"v  c #70C3A9",
"b  c #70C4A9",
"n  c #70C5A9",
"m  c #70C6AB",
"M  c #70C7AB",
"N  c #70C7AC",
"B  c #71C7AC",
"V  c #70C7AE",
"C  c #7CC0AB",
"Z  c #7FC0AC",
"A  c #7FC1AC",
"S  c #7EC3AE",
"D  c #78C6AD",
"F  c #79C7AD",
"G  c #7AC7AE",
"H  c #71C8AC",
"J  c #71C9AD",
"K  c #72C8AD",
"L  c #71C8AF",
"P  c #73C8AF",
"I  c #72CAAE",
"U  c #73CAAF",
"Y  c #73CBAF",
"T  c #79C8AF",
"R  c #79C9AF",
"E  c #7EC8AF",
"W  c #73C8B0",
"Q  c #73CBB0",
"!  c #74C9B0",
"~  c #73CCB0",
"^  c #73CDB0",
"/  c #74CCB0",
"(  c #74CEB1",
")  c #75CEB1",
"_  c #75CEB2",
"`  c #75CFB2",
"'  c #76CFB3",
"]  c #7BCAB2",
"[  c #7BCAB3",
"{  c #7EC8B0",
"}  c #7FC8B0",
"|  c #7CCBB3",
" . c #7DCBB3",
".. c #7DCBB4",
"X. c #76D0B3",
"o. c #76D1B4",
"O. c #77D2B5",
"+. c #77D3B6",
"@. c #78D5B7",
"#. c #79D5B8",
"$. c #79D6B9",
"%. c #7AD8BA",
"&. c #7CDABC",
"*. c #7CDBBD",
"=. c #7ADCBD",
"-. c #7DDCBE",
";. c #7DDEBF",
":. c #7EDEC0",
">. c #7EDFC0",
",. c #7FE0C1",
"<. c #80C1AD",
"1. c #81C2AE",
"2. c #82C4B0",
"3. c #83C5B1",
"4. c #83C6B1",
"5. c #84CAB3",
"6. c #85CAB3",
"7. c #80CAB4",
"8. c #81CAB4",
"9. c #81CBB4",
"0. c #81CCB5",
"q. c #82CCB6",
"w. c #83CCB6",
"e. c #83CDB6",
"r. c #84CDB7",
"t. c #85CDB7",
"y. c #86CDB7",
"u. c #86CDB8",
"i. c #86CEB8",
"p. c #87CEB8",
"a. c #8ACDB8",
"s. c #8ACDB9",
"d. c #88CEB9",
"f. c #89CEB9",
"g. c #8ACEB9",
"h. c #89CFBA",
"j. c #8BCEBA",
"k. c #8ACFBA",
"l. c #8BCFBA",
"z. c #8CCFBA",
"x. c #8CCFBB",
"c. c #85D0BA",
"v. c #88D0BA",
"b. c #89D0BA",
"n. c #8CD0BB",
"m. c #8DD0BB",
"M. c #8ED0BB",
"N. c #8AD1BC",
"B. c #8AD2BC",
"V. c #8CD1BC",
"C. c #8DD1BC",
"Z. c #8FD1BC",
"A. c #8DD2BD",
"S. c #8ED2BD",
"D. c #8ED3BD",
"F. c #8ED3BE",
"G. c #8FD4BF",
"H. c #90D1BD",
"J. c #93D3BF",
"K. c #95D2BF",
"L. c #96D4C0",
"P. c #97D4C1",
"I. c #97D5C1",
"U. c #97D5C2",
"Y. c #99D5C2",
"T. c #9BD4C2",
"R. c #9BD6C3",
"E. c #9CD7C4",
"W. c #9FD6C4",
"Q. c #9ED8C5",
"!. c #A3D5C3",
"~. c #A4D7C6",
"^. c #A4D7C7",
"/. c #ABD7C7",
"(. c #A6D8C8",
"). c #ACD9C9",
"_. c #AEDACA",
"`. c #B1DCCE",
"'. c #B4DDCF",
"]. c #B4DDD0",
"[. c #B6DED1",
"{. c #BDDFD3",
"}. c #82E5C5",
"|. c #85EACA",
" X c #8AF3D2",
".X c #B4E6D4",
"XX c #BFE0D3",
"oX c #C6E5DA",
"OX c #C7E5DB",
"+X c #C8E5DB",
"@X c #D3EAE2",
"#X c #D4E9E1",
"$X c #D5EBE3",
"%X c #D6EEE5",
"&X c #D9EDE6",
"*X c #DAEDE6",
"=X c #DAEEE7",
"-X c #DCEEE7",
";X c #DBEFE8",
":X c #DEF9EF",
">X c #E6F3EE",
",X c #E6F3EF",
"<X c #E2F7EF",
"1X c #E7F4EF",
"2X c #E8F3EF",
"3X c #E9F4F1",
"4X c #EDF6F2",
"5X c #EFF7F4",
"6X c #E7FAF4",
"7X c #E9F8F3",
"8X c #E8FBF4",
"9X c #EDFFFA",
"0X c #F0F7F4",
"qX c #F3F9F7",
"wX c #F5FAF8",
"eX c #F6FAF9",
"rX c #F7FBF9",
"tX c #F0FFFC",
"yX c #FAFFFF",
"uX c #FCFDFD",
"iX c #FCFEFD",
"pX c #FDFFFF",
"aX c white",
"sX c None",
/* pixels */
"sXsXsXsXsXsXsXsXsXsXsXsXaXaXaXaXaXaXaXaXsXsXsXsXsXsXsXsXsXsXsXsX",
"sXsXsXsXsXsXsXsXsXsXaXsXaXaXaXaXaXaXaXaXsXaXsXsXsXsXsXsXsXsXsXsX",
"sXsXsXsXsXsXsXsXsXaXaXaXpXwXeXeXeXeXwXpXaXaXaXsXsXsXsXsXsXsXsXsX",
"sXsXsXsXsXsXsXsXaXaXaXaXoXT.(.(.(.(.T.oXaXaXaXaXsXsXsXsXsXsXsXsX",
"sXsXsXsXsXsXsXaXaX7X$X@XT.L .... .| V T.@X$X7XaXaXsXsXsXsXsXsXsX",
"sXsXsXsXsXsXaXaXqX(.z 0.d.z.l.l.l.n.m.f.0.z (.qXaXaXsXsXsXsXsXsX",
"sXsXsXsXsXsXaXyX~.M.t.d.k.l.l.g.Z.P.Y.J.f.r.M.^.yXaXsXsXsXsXsXsX",
"sXsXsXsXsXsXaX<XP r.z.l.l.l.l.f.H.E.Q.I.z.l.r.W <XaXsXsXsXsXsXsX",
"sXsXsXsXsXaXaX*Xe.p.l.l.l.l.l.g.Z.Y.R.L.l.k.p.e.*XaXaXsXsXsXsXsX",
"sXsXsXsXsXaXaX&Xe.p.l.l.l.l.l.l.x.Z.Z.M.l.l.p.e.&XaXaXsXsXsXsXsX",
"sXsXsXsXsXaXaX*Xe.p.l.l.n.C.C.n.k.g.f.k.V.C.h.e.&XaXaXsXsXsXsXsX",
"sXsXsXsXsXaXaX*Xe.p.l.l.g.a.s.j.l.l.l.j.s.a.y.w.*XaXaXsXsXsXsXsX",
"sXsXsXsXsXaXaX*Xe.p.n.g.< * ; 2.A.l.A.4.: * , 9.=XaXaXsXsXsXsXsX",
"sXsXsXsXsXaXaX*Xe.p.C.a.* . o 6 F.l.F.Z O   & 7.;XaXaXsXsXsXsXsX",
"sXsXsXsXsXaXaX*Xe.p.V.a.; o $ A D.l.D.1.% X = 8.;XaXaXsXsXsXsXsX",
"sXsXsXsXsXsXaX6Xe.p.l.j.2.5 A g.G.F.G.g.<.4 S q.8XaXsXsXsXsXsXsX",
"sXsXsXsXsXsXaXtX .u.l.l.A.G.D.3.3 6 3 2.S.G.v...tXaXsXsXsXsXsXsX",
"sXsXsXsXsXsXaX9X0.p.l.l.l.V.j.> O # O - s.C.p.0.9XaXsXsXsXsXsXsX",
"sXsXsXsXsXD !.%X1XW.k [ p.m.l.1.1 3 2 C ] l W.1X:X/.sXsXsXsXsXsX",
"sXsXsXsXb =.7 ).4X+X].[.K.0.i.b.B.N.c.U.[.'.OX4X.X+ sXsXsXsXsXsX",
"sXsXI f f j J t 6.2XaXuX`.! u.u.u.u.! `.iXaX2X5.p N i U g sXsXsX",
"sXs |.>.,.B sX8 c _.XX{.-X3X,X>X>X,X3X-X{.XX_.x 9 sX'  Xf sXsXsX",
"sXsXy f d h sXsX^ q @ 0 #XrX0X0X5X0XrX#X0 @ q ~ sXsXh u f sXsXsX",
"sXsXsXsXsXsXsXsX/ H d f G } E E E E { F f d H / sXsXsXsXsXsXsXsX",
"sXsXsXsXsXsXsXsX*.Q n d e 0 w w w w r a f g Y *.sXsXsXsXsXsXsXsX",
"sXsXsXsXsXsXsXsXs f B f m B B B M B R T f M f f sXsXsXsXsXsXsXsX",
"sXsXsXsXsXsXsXsXsXf +.f ~ X.` ` ` ` K h f O.n sXsXsXsXsXsXsXsXsX",
"sXsXsXsXsXsXsXsXg b $._ s sXsXsXsXsXu ( f :.d sXsXsXsXsXsXsXsXsX",
"sXsXsXsXsXsXsXsX;.o.f i sXsXsXsXsXsXb @.B f h sXsXsXsXsXsXsXsXsX",
"sXsXsXsXsXsXsXsX&.}.h sXsXsXsXsXsXg f ) #.sXsXsXsXsXsXsXsXsXsXsX",
"sXsXsXsXsXsXsXsXv u sXsXsXsXsXsXsX) %.f i sXsXsXsXsXsXsXsXsXsXsX",
"sXsXsXsXsXsXsXsXsXsXsXsXsXsXsXsXsXf -.h sXsXsXsXsXsXsXsXsXsXsXsX"
};
