/* XPM */
static char *result[] = {
/* columns rows colors chars-per-pixel */
"32 32 172 2 ",
"   c #3EBA99",
".  c #3FBA99",
"X  c #5CBFA1",
"o  c #3DC09D",
"O  c #5EC0A2",
"+  c #5FC0A3",
"@  c #5CC2A4",
"#  c #5DC3A5",
"$  c #5DD5B2",
"%  c #60C0A3",
"&  c #62C1A4",
"*  c #63C1A4",
"=  c #64C1A5",
"-  c #67C5A8",
";  c #6EC3A8",
":  c #6FC3A9",
">  c #6EC4A8",
",  c #6FC4A8",
"<  c #6EC4A9",
"1  c #6FC4A9",
"2  c #6FC5A9",
"3  c #6FC4AA",
"4  c #6FC5AA",
"5  c #6AC6AC",
"6  c #6FC7AE",
"7  c #66CEAF",
"8  c #6CC8AB",
"9  c #6FCBAE",
"0  c #70C4A9",
"q  c #70C5A9",
"w  c #71C5A9",
"e  c #70C4AA",
"r  c #70C5AA",
"t  c #71C5AA",
"y  c #71C6AB",
"u  c #70C7AB",
"i  c #70C7AE",
"p  c #75C6AC",
"a  c #76C7AD",
"s  c #7AC7AE",
"d  c #71C8AC",
"f  c #72C8AD",
"g  c #72C9AD",
"h  c #71C8AF",
"j  c #73C8AF",
"k  c #71CAAE",
"l  c #71CBAF",
"z  c #73CAAF",
"x  c #73CBAF",
"c  c #77C8AE",
"v  c #78C8AE",
"b  c #79C8AF",
"n  c #7AC9AF",
"m  c #7EC8AF",
"M  c #73C8B0",
"N  c #74C9B0",
"B  c #73CCB0",
"V  c #74CCB0",
"C  c #75CEB2",
"Z  c #7AC9B0",
"A  c #7BCAB3",
"S  c #7FC8B0",
"D  c #7CCBB3",
"F  c #7DCBB3",
"G  c #7DCBB4",
"H  c #77D2B5",
"J  c #77D3B6",
"K  c #7BD1B5",
"L  c #78D4B7",
"P  c #79D5B8",
"I  c #7AD7BA",
"U  c #7DD5B9",
"Y  c #7BD9BB",
"T  c #78DBBC",
"R  c #7BDABC",
"E  c #7CDABC",
"W  c #7CDBBD",
"Q  c #7DDCBE",
"!  c #7EDEC0",
"~  c #84CAB2",
"^  c #84CAB3",
"/  c #81CCB5",
"(  c #81CCB6",
")  c #83CDB6",
"_  c #84CDB7",
"`  c #85CDB7",
"'  c #86CDB7",
"]  c #89CCB5",
"[  c #86CDB8",
"{  c #86CEB8",
"}  c #87CEB8",
"|  c #88CEB9",
" . c #89CEB9",
".. c #8ACEB9",
"X. c #8ACFBA",
"o. c #8BCFBA",
"O. c #8CCFBA",
"+. c #8CCFBB",
"@. c #89D2BA",
"#. c #8CD0BB",
"$. c #8DD0BB",
"%. c #8ED0BB",
"&. c #8FD1BC",
"*. c #90D1BD",
"=. c #93D3BF",
"-. c #95D2BF",
";. c #96D4C0",
":. c #97D4C1",
">. c #97D5C1",
",. c #99D5C2",
"<. c #9BD4C2",
"1. c #9BD6C3",
"2. c #9CD7C4",
"3. c #9FD6C4",
"4. c #9ED8C5",
"5. c #A0D3C1",
"6. c #A4D7C6",
"7. c #A4D7C7",
"8. c #A1D8C7",
"9. c #A6D8C8",
"0. c #ADDACA",
"q. c #AEDACA",
"w. c #AFDCCC",
"e. c #B1DCCE",
"r. c #B4DDD0",
"t. c #B6DED1",
"y. c #BDDFD3",
"u. c #83E7C7",
"i. c #B9E0D2",
"p. c #BFE0D3",
"a. c #C6E5DA",
"s. c #C7E5DB",
"d. c #CAE9DF",
"f. c #D2E9E0",
"g. c #D3EAE2",
"h. c #D4E9E1",
"j. c #D5EBE3",
"k. c #D9EDE6",
"l. c #DAEDE6",
"z. c #DCEEE7",
"x. c #E0F0EA",
"c. c #E2F1EC",
"v. c #E4F2ED",
"b. c #E6F3EE",
"n. c #E6F3EF",
"m. c #E2F7EF",
"M. c #E7F4EF",
"N. c #E8F3EF",
"B. c #E9F4F1",
"V. c #EBF7F3",
"C. c #EDF6F2",
"Z. c #EFF7F4",
"A. c #E7FAF4",
"S. c #E9F8F3",
"D. c #EBF9F4",
"F. c #EEFFFB",
"G. c #F0F7F4",
"H. c #F3F9F7",
"J. c #F4F9F7",
"K. c #F5FAF8",
"L. c #F6FAF9",
"P. c #F7FBF9",
"I. c #F7FCFA",
"U. c #F4FFFB",
"Y. c #F2FFFF",
"T. c #FAFDFB",
"R. c #FAFFFF",
"E. c #FCFDFD",
"W. c #FCFEFD",
"Q. c #FDFFFF",
"!. c white",
"~. c None",
/* pixels */
"~.~.~.~.~.~.~.~.~.~.~.~.!.!.!.!.!.!.!.!.~.~.~.~.~.~.~.~.~.~.~.~.",
"~.~.~.~.~.~.~.~.~.~.!.~.!.!.!.!.!.!.!.!.~.!.~.~.~.~.~.~.~.~.~.~.",
"~.~.~.~.~.~.~.~.~.!.!.!.Q.K.L.L.L.L.K.Q.!.!.!.~.~.~.~.~.~.~.~.~.",
"~.~.~.~.~.~.~.~.!.!.!.!.a.<.9.9.9.9.<.a.!.!.!.!.~.~.~.~.~.~.~.~.",
"~.~.~.~.~.~.~.!.!.S.j.g.<.h G G F D i <.g.j.S.!.!.~.~.~.~.~.~.~.",
"~.~.~.~.~.~.!.!.H.9.6 / | O.o.o.o.#.$. ./ 6 9.H.!.!.~.~.~.~.~.~.",
"~.~.~.~.~.~.!.R.6.%.` | X.o.o...&.:.,.=. ._ %.7.R.!.~.~.~.~.~.~.",
"~.~.~.~.~.~.!.m.j _ O.o.o.o.o. .*.2.4.>.O.o._ M m.!.~.~.~.~.~.~.",
"~.~.~.~.~.!.!.l.) } o.o.o.o.o...&.,.1.;.o.X.} ) l.!.!.~.~.~.~.~.",
"~.~.~.~.~.!.!.k.) } o.o.o.o.o.o.+.&.&.%.o.o.} ) k.!.!.~.~.~.~.~.",
"~.~.~.~.~.!.!.l.) } o.o.o.o.o.o.o.......o.o.} ) k.!.!.~.~.~.~.~.",
"~.~.~.~.~.!.!.l.) } o.o.o.o.o.o.o.o.o.o.o.o.} ) k.!.!.~.~.~.~.~.",
"~.~.~.~.~.!.!.l.) } o.o.o.o.o.o.o.o.o.o.o.o.} ) k.!.!.~.~.~.~.~.",
"~.~.~.~.~.!.!.l.) } o.o.o.o.o.o.o.o.o.o.o.o.} ) k.!.!.~.~.~.~.~.",
"~.~.~.~.~.!.!.l.) } o.o.o.o.o.o.o.o.o.o.o.o.} ) l.!.!.~.~.~.~.~.",
"~.~.~.~.~.~.!.A.) } o.o.o.o.o.o.o.o.o.o.o.o.} ) x.T.i.] & ~.~.~.",
"~.~.~.~.~.~.!.Y.D ' o.o.o.o.o.o.o.o.o.o.o.o.[ G v.J.e $ w ~.~.~.",
"~.~.~.~.~.~.!.F./ } o.o.o.o.o.o.o.o.o.o.o.o.} / c.J.~ 7 3 ~.~.~.",
"~.~.~.~.~.~.~.I.D.8.5 A } +.o.o.o.o.+.} A 5 3.M.f.5.p T 1 ~.~.~.",
"~.~.~.~.~.~.~.~.U.d.r.t.-.( { { [ { / -.t.r.s.C.0.o l 0 , ~.~.~.",
"~.~.~.2 P 1 ~.~.@.V.!.E.e.N [ [ [ [ N e.W.!.N.^ - B L ~.~.~.~.~.",
"~.~.~.3 u.1 ~.~.9 w.p.y.z.B.n.b.b.n.B.z.y.p.q.8 X ~.~.~.~.~.~.~.",
"~.~.~.< Q 1 ~.~.k @   + h.P.G.G.Z.G.P.h.+ . # B ~.~.~.~.~.~.~.~.",
"~.~.~.1 I 2 1 4 1 < ; 1 s S m m m m S s 1 < d V ~.~.~.~.~.~.~.~.",
"~.~.~.~.1 W ! J 1 c a < * O % % % % + = 1 0 d V ~.~.~.~.~.~.~.~.",
"~.~.~.~.~.1 e < y Z v 1 t t 1 1 1 1 1 1 1 1 d V ~.~.~.~.~.~.~.~.",
"~.~.~.~.~.~.~.~.B f 1 1 n b 1 1 1 1 1 1 1 1 d V ~.~.~.~.~.~.~.~.",
"~.~.~.~.~.~.~.~.E x > 1 K U H H H H H H H g u V ~.~.~.~.~.~.~.~.",
"~.~.~.~.~.~.~.~.> 3 z r > ; 3 3 3 3 3 1 1 : x C ~.~.~.~.~.~.~.~.",
"~.~.~.~.~.~.~.~.~.1 u.x ~.~.~.~.~.~.~.~.~.0 R Y ~.~.~.~.~.~.~.~.",
"~.~.~.~.~.~.~.~.~.~.0 ~.~.~.~.~.~.~.~.~.~., q : ~.~.~.~.~.~.~.~.",
"~.~.~.~.~.~.~.~.~.~.~.~.~.~.~.~.~.~.~.~.~.3 1 ~.~.~.~.~.~.~.~.~."
};
