/* XPM */
static char *result[] = {
/* columns rows colors chars-per-pixel */
"32 32 231 2 ",
"   c #4A8472",
".  c #4A8473",
"X  c #558F7D",
"o  c #558F7E",
"O  c #57917F",
"+  c #2AB895",
"@  c #3FBA99",
"#  c #5C9785",
"$  c #5D9886",
"%  c #5F9A88",
"&  c #5F9F8C",
"*  c #66A390",
"=  c #64A592",
"-  c #6BA895",
";  c #6BA996",
":  c #6CAA97",
">  c #6DAA97",
",  c #6FB19D",
"<  c #75B3A0",
"1  c #7BBBA7",
"2  c #7CBBA8",
"3  c #7CBDA9",
"4  c #7DBEAA",
"5  c #7EBEAA",
"6  c #7EBEAB",
"7  c #7EBFAB",
"8  c #3FC4A0",
"9  c #5BC0A1",
"0  c #5AC0A2",
"q  c #5FC0A2",
"w  c #5FC0A3",
"e  c #5DC3A5",
"r  c #60C0A3",
"t  c #64C1A5",
"y  c #68C3A7",
"u  c #67C5A8",
"i  c #67C6A8",
"p  c #6EC3A9",
"a  c #6FC3A9",
"s  c #6DC5A9",
"d  c #6FC4A8",
"f  c #6EC4A9",
"g  c #6FC4A9",
"h  c #6FC5A9",
"j  c #6FC4AA",
"k  c #6FC5AA",
"l  c #6AC6AC",
"z  c #6BC7AD",
"x  c #6FC7AE",
"c  c #6CC8AB",
"v  c #6DC8AB",
"b  c #70C3A9",
"n  c #70C4A9",
"m  c #70C5A9",
"M  c #72C4A9",
"N  c #70C4AA",
"B  c #70C6AB",
"V  c #70C7AB",
"C  c #70C7AC",
"Z  c #71C7AC",
"A  c #70C7AE",
"S  c #7CC0AC",
"D  c #7FC0AC",
"F  c #7FC1AC",
"G  c #7EC3AE",
"H  c #78C6AD",
"J  c #79C7AD",
"K  c #7AC7AE",
"L  c #71C8AC",
"P  c #71C9AD",
"I  c #72C8AD",
"U  c #71C8AF",
"Y  c #73C8AF",
"T  c #72CAAE",
"R  c #73CAAE",
"E  c #73CBAF",
"W  c #79C8AF",
"Q  c #79C9AF",
"!  c #7EC8AF",
"~  c #73C8B0",
"^  c #73CBB0",
"/  c #74C9B0",
"(  c #73CCB0",
")  c #73CDB0",
"_  c #74CCB0",
"`  c #74CEB1",
"'  c #75CEB1",
"]  c #75CEB2",
"[  c #75CFB2",
"{  c #76CFB3",
"}  c #7BCAB2",
"|  c #7BCAB3",
" . c #7EC8B0",
".. c #7FC8B0",
"X. c #7CCBB3",
"o. c #7DCBB3",
"O. c #7DCBB4",
"+. c #76D0B3",
"@. c #76D1B4",
"#. c #77D2B5",
"$. c #77D3B6",
"%. c #78D5B7",
"&. c #79D5B8",
"*. c #79D6B9",
"=. c #7AD8BA",
"-. c #7CDABC",
";. c #7CDBBD",
":. c #7ADCBD",
">. c #7DDCBE",
",. c #7DDDBF",
"<. c #7EDEC0",
"1. c #7EDFC0",
"2. c #7FE0C1",
"3. c #80C1AD",
"4. c #81C2AE",
"5. c #82C4B0",
"6. c #83C5B1",
"7. c #83C6B1",
"8. c #80CAB3",
"9. c #84CAB3",
"0. c #85CAB3",
"q. c #81CAB4",
"w. c #81CBB4",
"e. c #81CCB5",
"r. c #82CCB5",
"t. c #83CCB6",
"y. c #83CDB6",
"u. c #84CDB7",
"i. c #85CDB7",
"p. c #86CDB7",
"a. c #86CDB8",
"s. c #86CEB8",
"d. c #87CEB8",
"f. c #8ACDB8",
"g. c #8ACDB9",
"h. c #88CEB9",
"j. c #89CEB9",
"k. c #89CFB9",
"l. c #8ACEB9",
"z. c #88CFBA",
"x. c #8BCEBA",
"c. c #8ACFBA",
"v. c #8BCFBA",
"b. c #8CCFBA",
"n. c #8CCFBB",
"m. c #85D0BA",
"M. c #88D0BA",
"N. c #89D0BA",
"B. c #8CD0BB",
"V. c #8DD0BB",
"C. c #8ED0BB",
"Z. c #8AD1BC",
"A. c #8AD2BC",
"S. c #8CD1BC",
"D. c #8DD1BC",
"F. c #8ED0BC",
"G. c #8FD1BC",
"H. c #8FD1BD",
"J. c #8DD2BD",
"K. c #8ED2BD",
"L. c #8ED3BD",
"P. c #8ED3BE",
"I. c #8FD4BF",
"U. c #90D1BD",
"Y. c #93D3BF",
"T. c #95D2BF",
"R. c #96D4C0",
"E. c #97D4C1",
"W. c #97D5C1",
"Q. c #97D5C2",
"!. c #99D5C2",
"~. c #9BD4C2",
"^. c #9BD6C3",
"/. c #9CD7C4",
"(. c #9FD6C4",
"). c #9ED8C5",
"_. c #A3D4C3",
"`. c #A4D7C6",
"'. c #A4D7C7",
"]. c #ABD7C7",
"[. c #A6D8C8",
"{. c #ACD9C9",
"}. c #AEDACA",
"|. c #B1DCCE",
" X c #B4DDCF",
".X c #B4DDD0",
"XX c #B6DED1",
"oX c #BDDFD3",
"OX c #82E5C5",
"+X c #84EACA",
"@X c #8AF3D2",
"#X c #B4E5D4",
"$X c #BFE0D3",
"%X c #C6E5DA",
"&X c #C7E5DB",
"*X c #C8E5DB",
"=X c #D3EAE2",
"-X c #D4E9E1",
";X c #D5EBE3",
":X c #D6EEE5",
">X c #D9EDE6",
",X c #DAEDE6",
"<X c #DAEEE7",
"1X c #DCEEE7",
"2X c #DBEFE8",
"3X c #DEF9EF",
"4X c #E6F3EE",
"5X c #E6F3EF",
"6X c #E2F7EF",
"7X c #E7F4EF",
"8X c #E8F3EF",
"9X c #E9F4F1",
"0X c #EDF6F2",
"qX c #EFF7F4",
"wX c #E7FAF4",
"eX c #E7FBF4",
"rX c #E9F8F3",
"tX c #EDFFFA",
"yX c #EFFFFC",
"uX c #F0F7F4",
"iX c #F3F9F7",
"pX c #F5FAF8",
"aX c #F6FAF9",
"sX c #F7FBF9",
"dX c #F0FFFC",
"fX c #FAFFFF",
"gX c #FCFDFD",
"hX c #FCFEFD",
"jX c #FDFFFF",
"kX c white",
"lX c None",
/* pixels */
"lXlXlXlXlXlXlXlXlXlXlXlXkXkXkXkXkXkXkXkXlXlXlXlXlXlXlXlXlXlXlXlX",
"lXlXlXlXlXlXlXlXlXlXkXlXkXkXkXkXkXkXkXkXlXkXlXlXlXlXlXlXlXlXlXlX",
"lXlXlXlXlXlXlXlXlXkXkXkXjXpXaXaXaXaXpXjXkXkXkXlXlXlXlXlXlXlXlXlX",
"lXlXlXlXlXlXlXlXkXkXkXkX%X~.[.[.[.[.~.%XkXkXkXkXlXlXlXlXlXlXlXlX",
"lXlXlXlXlXlXlXkXkXrX;X=X~.A X.o.O.O.U ~.=X;XrXkXkXlXlXlXlXlXlXlX",
"lXlXlXlXlXlXkXkXiX[.x e.k.V.B.v.v.v.b.h.e.x [.iXkXkXlXlXlXlXlXlX",
"lXlXlXlXlXlXkXfX`.C.u.j.Y.!.E.G.l.v.v.c.h.i.C.'.fXkXlXlXlXlXlXlX",
"lXlXlXlXlXlXkX6XY u.v.v.W.)./.U.j.v.v.v.v.b.u.~ 6XkXlXlXlXlXlXlX",
"lXlXlXlXlXkXkX,Xy.d.c.v.R.^.!.H.l.v.v.v.v.v.d.y.,XkXkXlXlXlXlXlX",
"lXlXlXlXlXkXkX>Xy.d.v.v.F.G.G.n.v.v.v.v.v.v.d.y.>XkXkXlXlXlXlXlX",
"lXlXlXlXlXkXkX>Xy.z.D.S.c.j.l.c.B.D.D.B.v.v.d.y.>XkXkXlXlXlXlXlX",
"lXlXlXlXlXkXkX,Xt.p.f.g.x.v.v.v.x.g.f.l.v.v.d.y.>XkXkXlXlXlXlXlX",
"lXlXlXlXlXkXkX<Xw., * : 7.J.v.J.5.; * < l.B.d.y.>XkXkXlXlXlXlXlX",
"lXlXlXlXlXkXkX2X8.&   O D P.v.P.6 o . * f.D.d.y.,XkXkXlXlXlXlXlX",
"lXlXlXlXlXkXkX2Xq.= X % 4.L.v.P.D $ o ; g.S.d.y.,XkXkXlXlXlXlXlX",
"lXlXlXlXlXlXkXeXr.G 4 3.l.I.P.I.g.F 5 5.x.v.d.y.wXkXlXlXlXlXlXlX",
"lXlXlXlXlXlXkXyXO.M.I.K.5.3 7 3 6.L.I.J.v.v.a.O.dXkXlXlXlXlXlXlX",
"lXlXlXlXlXlXkXtXe.d.D.g.- O # O > x.S.v.v.v.d.e.tXkXlXlXlXlXlXlX",
"lXlXlXlXlXlX].3X7X(.z } S 2 3 1 4.v.V.d.| l (.7X:X_.H lXlXlXlXlX",
"lXlXlXlXlXlX+ #X0X*X XXXQ.m.Z.A.N.s.e.T.XX.X&X0X{.8 :.M lXlXlXlX",
"lXlXlXh R g C i 0.8XkXgX|./ a.a.a.a./ |.hXkX8X9.u P k g j T lXlX",
"lXlXlXg @X{ lX0 v }.$XoX1X9X5X4X4X5X9X1XoX$X}.c 9 lXZ 2.1.+Xd lX",
"lXlXlXg p j lXlX) e @ q -XsXuXuXqXuXsX-Xw @ e ( lXlXj f g n lXlX",
"lXlXlXlXlXlXlXlX_ L f g J  .! ! ! ! ..K g f L _ lXlXlXlXlXlXlXlX",
"lXlXlXlXlXlXlXlX;.^ h g s y r r r r w t g m E ;.lXlXlXlXlXlXlXlX",
"lXlXlXlXlXlXlXlXg g V g W Q Z V Z Z Z B g Z g d lXlXlXlXlXlXlXlX",
"lXlXlXlXlXlXlXlXlXm #.g N I [ [ [ [ +.( g $.g lXlXlXlXlXlXlXlXlX",
"lXlXlXlXlXlXlXlXlXf <.k ` p lXlXlXlXlXd ] *.n h lXlXlXlXlXlXlXlX",
"lXlXlXlXlXlXlXlXlXj g Z %.n lXlXlXlXlXlXa g @.,.lXlXlXlXlXlXlXlX",
"lXlXlXlXlXlXlXlXlXlXlX&.' g h lXlXlXlXlXlXj OX-.lXlXlXlXlXlXlXlX",
"lXlXlXlXlXlXlXlXlXlXlXa g =.' lXlXlXlXlXlXlXp b lXlXlXlXlXlXlXlX",
"lXlXlXlXlXlXlXlXlXlXlXlXj >.g lXlXlXlXlXlXlXlXlXlXlXlXlXlXlXlXlX"
};
