/* XPM */
static char *result[] = {
/* columns rows colors chars-per-pixel */
"32 32 218 2 ",
"   c #4A8472",
".  c #4A8473",
"X  c #558F7D",
"o  c #558F7E",
"O  c #57917F",
"+  c #3FBA99",
"@  c #5C9785",
"#  c #5D9886",
"$  c #5F9A88",
"%  c #5F9F8C",
"&  c #66A390",
"*  c #64A592",
"=  c #6BA895",
"-  c #6BA996",
";  c #6CAA97",
":  c #6DAA97",
">  c #6FB19D",
",  c #75B4A0",
"<  c #7BBBA7",
"1  c #7CBBA8",
"2  c #7CBDA9",
"3  c #7DBEAA",
"4  c #7EBEAA",
"5  c #7EBFAB",
"6  c #5BC0A2",
"7  c #5EC0A2",
"8  c #5FC0A3",
"9  c #60C0A3",
"0  c #63C1A4",
"q  c #65C1A5",
"w  c #65C2A5",
"e  c #69C3A7",
"r  c #6EC3A8",
"t  c #6FC3A8",
"y  c #6EC3A9",
"u  c #6FC3A9",
"i  c #6EC4A8",
"p  c #6FC4A8",
"a  c #6EC4A9",
"s  c #6FC4A9",
"d  c #6FC5A9",
"f  c #6FC4AA",
"g  c #6FC5AA",
"h  c #6FC6AA",
"j  c #6AC6AC",
"k  c #6BC7AD",
"l  c #6FC7AE",
"z  c #6CCCAF",
"x  c #70C3A8",
"c  c #70C3A9",
"v  c #70C4A9",
"b  c #70C5A9",
"n  c #70C5AA",
"m  c #71C5AA",
"M  c #70C7AC",
"N  c #71C7AC",
"B  c #70C7AE",
"V  c #74C7AD",
"C  c #75C7AD",
"Z  c #76C7AD",
"A  c #7CC0AB",
"S  c #7FC0AC",
"D  c #7FC1AC",
"F  c #7EC3AE",
"G  c #78C7AE",
"H  c #7AC7AE",
"J  c #71C8AC",
"K  c #71C8AD",
"L  c #72C9AD",
"P  c #71C8AF",
"I  c #73C8AF",
"U  c #73CAAF",
"Y  c #73CBAF",
"T  c #74CBAF",
"R  c #79C8AF",
"E  c #7AC9AF",
"W  c #7EC8AF",
"Q  c #73C8B0",
"!  c #74C9B0",
"~  c #73CCB0",
"^  c #74CCB0",
"/  c #74CDB0",
"(  c #74CDB1",
")  c #74CEB1",
"_  c #75CEB2",
"`  c #75CFB2",
"'  c #75CFB3",
"]  c #76CFB3",
"[  c #79CBB1",
"{  c #7BCAB2",
"}  c #7BCAB3",
"|  c #7FC8B0",
" . c #7CCBB3",
".. c #7DCBB3",
"X. c #7CCDB3",
"o. c #7DCBB4",
"O. c #6CD0B2",
"+. c #77D2B5",
"@. c #77D3B6",
"#. c #70D7B7",
"$. c #78D3B6",
"%. c #78D4B7",
"&. c #79D5B8",
"*. c #79D6B8",
"=. c #7AD7B9",
"-. c #7AD8BA",
";. c #7BD9BC",
":. c #7BDABC",
">. c #7DDCBE",
",. c #80C1AD",
"<. c #81C2AE",
"1. c #82C4B0",
"2. c #83C5B1",
"3. c #83C6B1",
"4. c #85CAB3",
"5. c #80CAB4",
"6. c #81CAB4",
"7. c #81CBB4",
"8. c #81CCB5",
"9. c #82CCB6",
"0. c #83CCB6",
"q. c #83CDB6",
"w. c #84CDB7",
"e. c #85CDB7",
"r. c #86CDB7",
"t. c #86CDB8",
"y. c #86CEB8",
"u. c #87CEB8",
"i. c #8ACDB8",
"p. c #8ACDB9",
"a. c #88CEB9",
"s. c #89CEB9",
"d. c #8ACEB9",
"f. c #89CFBA",
"g. c #8BCEBA",
"h. c #8ACFBA",
"j. c #8BCFBA",
"k. c #8CCFBA",
"l. c #8CCFBB",
"z. c #85D0BA",
"x. c #88D0BA",
"c. c #89D0BA",
"v. c #8CD0BB",
"b. c #8DD0BB",
"n. c #8ED0BB",
"m. c #8AD1BC",
"M. c #8AD2BC",
"N. c #8CD1BC",
"B. c #8DD1BC",
"V. c #8FD1BC",
"C. c #8DD2BD",
"Z. c #8ED2BD",
"A. c #8ED3BD",
"S. c #8ED3BE",
"D. c #8FD4BF",
"F. c #90D1BD",
"G. c #93D3BF",
"H. c #95D2BF",
"J. c #96D4C0",
"K. c #97D4C1",
"L. c #97D5C1",
"P. c #97D5C2",
"I. c #99D5C2",
"U. c #9BD4C2",
"Y. c #9BD6C3",
"T. c #9CD7C4",
"R. c #9ED8C5",
"E. c #A4D7C6",
"W. c #A4D7C7",
"Q. c #A1D9C7",
"!. c #A6D8C8",
"~. c #ADD8C9",
"^. c #ADD9C9",
"/. c #B1DCCE",
"(. c #B4DDCF",
"). c #B4DDD0",
"_. c #B6DED1",
"`. c #BDDFD3",
"'. c #82E5C6",
"]. c #82E6C7",
"[. c #85EBCB",
"{. c #BFE0D3",
"}. c #C6E5DA",
"|. c #CAE8DE",
" X c #D0E6DD",
".X c #D3EAE2",
"XX c #D4E9E1",
"oX c #D5EBE3",
"OX c #D9EDE6",
"+X c #DAEDE6",
"@X c #DAEEE7",
"#X c #DCEEE7",
"$X c #DBEFE8",
"%X c #E6F3EE",
"&X c #E6F3EF",
"*X c #E2F7EF",
"=X c #E9F3EF",
"-X c #E9F4EF",
";X c #E9F4F1",
":X c #EFF7F4",
">X c #E7FAF4",
",X c #E9F8F3",
"<X c #E8FBF4",
"1X c #ECFAF5",
"2X c #EEFFFB",
"3X c #F0F7F4",
"4X c #F3F9F7",
"5X c #F5FAF8",
"6X c #F6FAF9",
"7X c #F7FBF9",
"8X c #F3FDF9",
"9X c #F2FFFF",
"0X c #FAFFFF",
"qX c #FCFDFD",
"wX c #FCFEFD",
"eX c #FDFFFF",
"rX c white",
"tX c None",
/* pixels */
"tXtXtXtXtXtXtXtXtXtXtXtXrXrXrXrXrXrXrXrXtXtXtXtXtXtXtXtXtXtXtXtX",
"tXtXtXtXtXtXtXtXtXtXrXtXrXrXrXrXrXrXrXrXtXrXtXtXtXtXtXtXtXtXtXtX",
"tXtXtXtXtXtXtXtXtXrXrXrXeX5X6X6X6X6X5XeXrXrXrXtXtXtXtXtXtXtXtXtX",
"tXtXtXtXtXtXtXtXrXrXrXrX}.U.!.!.!.!.U.}.rXrXrXrXtXtXtXtXtXtXtXtX",
"tXtXtXtXtXtXtXrXrX,XoX.XU.P o.o... .B U..XoX,XrXrXtXtXtXtXtXtXtX",
"tXtXtXtXtXtXrXrX4X!.l 8.a.k.j.j.j.v.b.s.8.l !.4XrXrXtXtXtXtXtXtX",
"tXtXtXtXtXtXrX0XE.n.e.a.h.j.j.d.V.K.I.G.s.w.n.W.0XrXtXtXtXtXtXtX",
"tXtXtXtXtXtXrX*XI w.k.j.j.j.j.s.F.T.R.L.k.j.w.Q *XrXtXtXtXtXtXtX",
"tXtXtXtXtXrXrX+Xq.u.j.j.j.j.j.d.V.I.Y.J.j.h.u.q.+XrXrXtXtXtXtXtX",
"tXtXtXtXtXrXrXOXq.u.j.j.j.j.j.j.l.V.V.n.j.j.u.q.OXrXrXtXtXtXtXtX",
"tXtXtXtXtXrXrX+Xq.u.j.j.v.B.B.v.h.d.s.h.N.B.f.q.OXrXrXtXtXtXtXtX",
"tXtXtXtXtXrXrX+Xq.u.j.j.d.i.p.g.j.j.j.g.p.i.r.0.+XrXrXtXtXtXtXtX",
"tXtXtXtXtXrXrX+Xq.u.v.d., & - 1.C.j.C.3.; & > 7.@XrXrXtXtXtXtXtX",
"tXtXtXtXtXrXrX+Xq.u.B.i.& . o 5 S.j.S.S O   % 5.$XrXrXtXtXtXtXtX",
"tXtXtXtXtXrXrX+Xq.u.N.i.- o # D A.j.A.<.$ X * 6.$XrXrXtXtXtXtXtX",
"tXtXtXtXtXtXrX>Xq.u.j.g.1.4 D d.D.S.D.d.,.3 F 9.<XrXtXtXtXtXtXtX",
"tXtXtXtXtXtXrX9X .r.j.j.C.D.A.2.2 5 2 1.Z.D.x.o.9XrXtXtXtXtXtXtX",
"tXtXtXtXtXtXrX2X8.u.j.j.j.N.g.: O @ O = p.B.u.8.2XrXtXtXtXtXtXtX",
"tXtXtXtXtXtXtXrX1XQ.j } u.b.j.<.< 2 1 A { k Q.1XrXtXtXtXtXtXtXtX",
"tXtXtXtXtXtXtXXX8X|.)._.H.8.y.c.M.m.z.P._.(.|.8X XtXtXtXtXtXtXtX",
"tXtXtXtXtXK i w 4.-XrXqX/.! t.t.t.t.! /.wXrX=X4.z a tXtXtXtXtXtX",
"tXtXg u f +.>.O.e ^.{.`.#X;X&X%X%X&X;X#X`.{.~.e #.T y p d tXtXtX",
"tXf ].>.%.a u m h 6 + 8 XX7X3X3X:X3X7XXX8 + 6 g c v @.[.s tXtXtX",
"tXc :.` =.a tXtX~ J a s H | W W W W | H s r M ~ tXtXs '.f tXtXtX",
"tXtXtXtXtXtXtXtX/ J v a q 8 9 9 9 9 7 0 a Z [ ( tXtXtXtXtXtXtXtX",
"tXtXtXtXtXtXtXtX' L s s s s s s s s m m s G X.] tXtXtXtXtXtXtXtX",
"tXtXtXtXtXtXtXtX=.U a s s s s s a s R E s s T =.tXtXtXtXtXtXtXtX",
"tXtXtXtXtXtXtXtXtXs ( s _ @.+.$.) s V C s *.p tXtXtXtXtXtXtXtXtX",
"tXtXtXtXtXtXtXtXtXb %.n n t f t s s d g N u d tXtXtXtXtXtXtXtXtX",
"tXtXtXtXtXtXtXtXs f +.Y tXtXtXtXtXp L ~ &.tXtXtXtXtXtXtXtXtXtXtX",
"tXtXtXtXtXtXtXtX-.$.b tXtXtXtXtXtXs %.d u tXtXtXtXtXtXtXtXtXtXtX",
"tXtXtXtXtXtXtXtX^ ;.x tXtXtXtXtXtXs >.f tXtXtXtXtXtXtXtXtXtXtXtX"
};
