/* XPM */
static char *result[] = {
/* columns rows colors chars-per-pixel */
"32 32 175 2 ",
"   c #3EBA99",
".  c #3FBA99",
"X  c #5CBFA1",
"o  c #3DC09D",
"O  c #5EC0A2",
"+  c #5FC0A3",
"@  c #5DC2A4",
"#  c #5DC3A5",
"$  c #5DD5B2",
"%  c #60C0A3",
"&  c #62C1A4",
"*  c #63C1A4",
"=  c #64C1A5",
"-  c #67C5A8",
";  c #6EC3A8",
":  c #6FC3A8",
">  c #6FC3A9",
",  c #6EC4A8",
"<  c #6FC4A8",
"1  c #6EC4A9",
"2  c #6FC4A9",
"3  c #6FC5A9",
"4  c #6FC4AA",
"5  c #6FC5AA",
"6  c #6AC6AC",
"7  c #6FC7AE",
"8  c #66CEAE",
"9  c #6DC8AB",
"0  c #6FCBAE",
"q  c #70C4A9",
"w  c #70C5A9",
"e  c #71C5A9",
"r  c #70C4AA",
"t  c #70C5AA",
"y  c #71C5AA",
"u  c #70C6AA",
"i  c #70C6AB",
"p  c #71C7AC",
"a  c #70C7AE",
"s  c #76C6AC",
"d  c #76C7AD",
"f  c #7AC7AE",
"g  c #70C8AC",
"h  c #71C9AD",
"j  c #72C8AD",
"k  c #71C8AF",
"l  c #73C8AF",
"z  c #71CAAE",
"x  c #71CBAF",
"c  c #73CAAE",
"v  c #73CBAF",
"b  c #78C8AE",
"n  c #79C8AF",
"m  c #7AC9AF",
"M  c #7EC8AF",
"N  c #73C8B0",
"B  c #74C9B0",
"V  c #73CCB0",
"C  c #73CDB0",
"Z  c #74CCB0",
"A  c #75CEB2",
"S  c #79CBB1",
"D  c #7BCAB3",
"F  c #7FC8B0",
"G  c #7CCBB3",
"H  c #7DCBB3",
"J  c #7CCCB2",
"K  c #7DCBB4",
"L  c #77D2B5",
"P  c #77D3B6",
"I  c #78D3B6",
"U  c #78D4B7",
"Y  c #79D5B8",
"T  c #7CD4B8",
"R  c #7DD5B9",
"E  c #77DBBB",
"W  c #7AD8BA",
"Q  c #7BD9BB",
"!  c #7BDABC",
"~  c #7CDABC",
"^  c #7CDBBD",
"/  c #7DDCBE",
"(  c #7EDEC0",
")  c #84CAB2",
"_  c #85CAB3",
"`  c #81CCB5",
"'  c #81CCB6",
"]  c #83CDB6",
"[  c #84CDB7",
"{  c #85CDB7",
"}  c #86CDB7",
"|  c #89CBB5",
" . c #86CDB8",
".. c #86CEB8",
"X. c #87CEB8",
"o. c #88CEB9",
"O. c #89CEB9",
"+. c #8ACEB9",
"@. c #8ACFBA",
"#. c #8BCFBA",
"$. c #8CCFBA",
"%. c #8CCFBB",
"&. c #89D2BA",
"*. c #8CD0BB",
"=. c #8DD0BB",
"-. c #8ED0BB",
";. c #8FD1BC",
":. c #90D1BD",
">. c #93D3BF",
",. c #95D2BF",
"<. c #96D4C0",
"1. c #97D4C1",
"2. c #97D5C1",
"3. c #99D5C2",
"4. c #9BD4C2",
"5. c #9BD6C3",
"6. c #9CD7C4",
"7. c #9FD6C4",
"8. c #9ED8C5",
"9. c #A0D3C1",
"0. c #A4D7C6",
"q. c #A4D7C7",
"w. c #A1D8C7",
"e. c #A6D8C8",
"r. c #ADDACA",
"t. c #AEDACA",
"y. c #AFDCCC",
"u. c #B1DCCE",
"i. c #B4DDD0",
"p. c #B6DED1",
"a. c #BDDFD3",
"s. c #83E7C7",
"d. c #B9E0D2",
"f. c #BFE0D3",
"g. c #C6E5DA",
"h. c #C8E5DB",
"j. c #CAE9DF",
"k. c #D2E9E0",
"l. c #D3EAE2",
"z. c #D4E9E1",
"x. c #D5EBE3",
"c. c #D9EDE6",
"v. c #DAEDE6",
"b. c #DCEEE7",
"n. c #E0F0EA",
"m. c #E2F1EC",
"M. c #E4F2ED",
"N. c #E6F3EE",
"B. c #E6F3EF",
"V. c #E2F7EF",
"C. c #E7F4EF",
"Z. c #E8F3EF",
"A. c #E9F4F1",
"S. c #EBF7F3",
"D. c #EDF6F2",
"F. c #EFF7F4",
"G. c #E7FAF4",
"H. c #E9F8F3",
"J. c #EBF9F4",
"K. c #EEFFFB",
"L. c #F0F7F4",
"P. c #F3F9F7",
"I. c #F4F9F7",
"U. c #F5FAF8",
"Y. c #F6FAF9",
"T. c #F7FBF9",
"R. c #F4FFFB",
"E. c #F3FFFF",
"W. c #FAFDFB",
"Q. c #FAFFFF",
"!. c #FCFDFD",
"~. c #FCFEFD",
"^. c #FDFFFF",
"/. c white",
"(. c None",
/* pixels */
"(.(.(.(.(.(.(.(.(.(.(.(././././././././.(.(.(.(.(.(.(.(.(.(.(.(.",
"(.(.(.(.(.(.(.(.(.(./.(././././././././.(./.(.(.(.(.(.(.(.(.(.(.",
"(.(.(.(.(.(.(.(.(./././.^.U.Y.Y.Y.Y.U.^./././.(.(.(.(.(.(.(.(.(.",
"(.(.(.(.(.(.(.(././././.g.4.e.e.e.e.4.g././././.(.(.(.(.(.(.(.(.",
"(.(.(.(.(.(.(././.H.x.l.4.k K K H G a 4.l.x.H././.(.(.(.(.(.(.(.",
"(.(.(.(.(.(././.P.e.7 ` o.$.#.#.#.*.=.O.` 7 e.P././.(.(.(.(.(.(.",
"(.(.(.(.(.(./.Q.0.-.{ o.@.#.#.+.;.1.3.>.O.[ -.q.Q./.(.(.(.(.(.(.",
"(.(.(.(.(.(./.V.l [ $.#.#.#.#.O.:.6.8.2.$.#.[ N V./.(.(.(.(.(.(.",
"(.(.(.(.(././.v.] X.#.#.#.#.#.+.;.3.5.<.#.@.X.] v././.(.(.(.(.(.",
"(.(.(.(.(././.c.] X.#.#.#.#.#.#.%.;.;.-.#.#.X.] c././.(.(.(.(.(.",
"(.(.(.(.(././.v.] X.#.#.#.#.#.#.#.+.+.+.#.#.X.] c././.(.(.(.(.(.",
"(.(.(.(.(././.v.] X.#.#.#.#.#.#.#.#.#.#.#.#.X.] c././.(.(.(.(.(.",
"(.(.(.(.(././.v.] X.#.#.#.#.#.#.#.#.#.#.#.#.X.] c././.(.(.(.(.(.",
"(.(.(.(.(././.c.] X.#.#.#.#.#.#.#.#.#.#.#.#.X.] v././.(.(.(.(.(.",
"(.(.(.(.(././.v.] X.#.#.#.#.#.#.#.#.#.#.#.#.X.] v././.(.(.(.(.(.",
"(.(.(.& | d.W.n.] X.#.#.#.#.#.#.#.#.#.#.#.#.X.] G./.(.(.(.(.(.(.",
"(.(.(.e $ r I.M.H  .#.#.#.#.#.#.#.#.#.#.#.#.} H E./.(.(.(.(.(.(.",
"(.(.(.4 8 ) I.m.` X.#.#.#.#.#.#.#.#.#.#.#.#.X.` K./.(.(.(.(.(.(.",
"(.(.(.2 E s 9.k.C.7.6 D X.%.#.#.#.#.%.X.D 6 w.J.Y.(.(.(.(.(.(.(.",
"(.(.(.4 y x o r.D.h.i.p.,.' .... ...` ,.p.i.j.R.(.(.(.(.(.(.(.(.",
"(.(.(.(.(.U V - _ Z./.!.u.B  . . . .B u.~./.S.&.(.(.> Y 3 (.(.(.",
"(.(.(.(.(.(.(.X 9 t.f.a.b.A.B.N.N.B.A.b.a.f.y.0 (.(.2 s.4 (.(.(.",
"(.(.(.(.(.(.(.(.C #   + z.T.L.L.F.L.T.z.+ . @ z (.(.2 / 1 (.(.(.",
"(.(.(.(.(.(.(.(.Z g ; 2 f F M M M M F f 2 1 2 2 5 2 3 W 2 (.(.(.",
"(.(.(.(.(.(.(.(.Z S d 1 * O % % % % + = 2 q 4 1 I ( ^ 2 (.(.(.(.",
"(.(.(.(.(.(.(.(.Z J b 2 y y 2 2 2 2 2 2 2 2 5 u 2 r 2 (.(.(.(.(.",
"(.(.(.(.(.(.(.(.Z j 2 2 m n 2 2 2 2 2 2 2 2 p v (.(.(.(.(.(.(.(.",
"(.(.(.(.(.(.(.(.Z i h L R T L L L L P A 2 < v ~ (.(.(.(.(.(.(.(.",
"(.(.(.(.(.(.(.(.A v 2 2 , < 4 4 4 4 : r t c 4 , (.(.(.(.(.(.(.(.",
"(.(.(.(.(.(.(.(.Q ! q (.(.(.(.(.(.(.(.(.v s.2 (.(.(.(.(.(.(.(.(.",
"(.(.(.(.(.(.(.(.> w < (.(.(.(.(.(.(.(.(.(.q (.(.(.(.(.(.(.(.(.(.",
"(.(.(.(.(.(.(.(.(.2 4 (.(.(.(.(.(.(.(.(.(.(.(.(.(.(.(.(.(.(.(.(."
};
