/* XPM */
static char *result[] = {
/* columns rows colors chars-per-pixel */
"32 32 223 2 ",
"   c #4A8472",
".  c #4A8473",
"X  c #558F7D",
"o  c #558F7E",
"O  c #57917F",
"+  c #3EBA99",
"@  c #3FBA99",
"#  c #5C9785",
"$  c #5D9886",
"%  c #5F9A88",
"&  c #5F9F8C",
"*  c #66A390",
"=  c #64A592",
"-  c #6BA895",
";  c #6BA996",
":  c #6CAA97",
">  c #6DAA97",
",  c #6FB19D",
"<  c #75B3A0",
"1  c #7BBBA7",
"2  c #7CBBA8",
"3  c #7CBDA9",
"4  c #7DBEAA",
"5  c #7EBEAA",
"6  c #7EBEAB",
"7  c #7EBFAB",
"8  c #5BC0A2",
"9  c #5EC0A2",
"0  c #5FC0A3",
"q  c #60C0A3",
"w  c #63C1A4",
"e  c #64C1A5",
"r  c #65C2A5",
"t  c #69C3A7",
"y  c #6EC3A8",
"u  c #6FC3A8",
"i  c #6EC3A9",
"p  c #6FC3A9",
"a  c #6EC4A8",
"s  c #6FC4A8",
"d  c #6EC4A9",
"f  c #6FC4A9",
"g  c #6FC5A9",
"h  c #6FC4AA",
"j  c #6FC5AA",
"k  c #6FC6AA",
"l  c #6AC6AC",
"z  c #6BC7AD",
"x  c #6FC7AE",
"c  c #6BCCAE",
"v  c #70C3A9",
"b  c #70C4A9",
"n  c #70C5A9",
"m  c #70C4AA",
"M  c #70C5AA",
"N  c #71C5AA",
"B  c #70C7AC",
"V  c #71C7AC",
"C  c #70C7AE",
"Z  c #75C6AC",
"A  c #74C7AD",
"S  c #76C7AD",
"D  c #7CC0AC",
"F  c #7FC0AC",
"G  c #7FC1AC",
"H  c #7EC3AE",
"J  c #78C7AE",
"K  c #7AC7AE",
"L  c #71C8AC",
"P  c #72C9AD",
"I  c #71C8AF",
"U  c #73C8AF",
"Y  c #73CAAF",
"T  c #73CBAF",
"R  c #74CBAF",
"E  c #79C8AF",
"W  c #7AC9AF",
"Q  c #7EC8AF",
"!  c #73C8B0",
"~  c #74C9B0",
"^  c #73CCB0",
"/  c #74CCB0",
"(  c #74CDB1",
")  c #74CEB1",
"_  c #75CEB2",
"`  c #75CFB2",
"'  c #76CFB3",
"]  c #7ACBB1",
"[  c #7BCAB2",
"{  c #7BCAB3",
"}  c #7FC8B0",
"|  c #7CCBB3",
" . c #7DCBB3",
".. c #7CCDB3",
"X. c #7DCBB4",
"o. c #6CD0B2",
"O. c #77D2B5",
"+. c #77D3B6",
"@. c #70D7B7",
"#. c #78D3B6",
"$. c #78D4B7",
"%. c #79D5B8",
"&. c #78D6B8",
"*. c #7AD7B9",
"=. c #7AD8BA",
"-. c #7BD9BB",
";. c #7BD9BC",
":. c #7CDCBE",
">. c #7DDCBE",
",. c #80C1AD",
"<. c #81C2AE",
"1. c #82C4B0",
"2. c #83C5B1",
"3. c #83C6B1",
"4. c #80CAB3",
"5. c #85CAB3",
"6. c #81CAB4",
"7. c #81CBB4",
"8. c #81CCB5",
"9. c #82CCB5",
"0. c #83CCB6",
"q. c #83CDB6",
"w. c #84CDB7",
"e. c #85CDB7",
"r. c #86CDB7",
"t. c #86CDB8",
"y. c #86CEB8",
"u. c #87CEB8",
"i. c #8ACDB8",
"p. c #8ACDB9",
"a. c #88CEB9",
"s. c #89CEB9",
"d. c #89CFB9",
"f. c #8ACEB9",
"g. c #88CFBA",
"h. c #8BCEBA",
"j. c #8ACFBA",
"k. c #8BCFBA",
"l. c #8CCFBA",
"z. c #8CCFBB",
"x. c #85D0BA",
"c. c #88D0BA",
"v. c #89D0BA",
"b. c #8CD0BB",
"n. c #8DD0BB",
"m. c #8ED0BB",
"M. c #8AD1BC",
"N. c #8AD2BC",
"B. c #8CD1BC",
"V. c #8DD1BC",
"C. c #8ED0BC",
"Z. c #8FD1BC",
"A. c #8FD1BD",
"S. c #8DD2BD",
"D. c #8ED2BD",
"F. c #8ED3BD",
"G. c #8ED3BE",
"H. c #8FD4BF",
"J. c #90D1BD",
"K. c #93D3BF",
"L. c #95D2BF",
"P. c #96D4C0",
"I. c #97D4C1",
"U. c #97D5C1",
"Y. c #97D5C2",
"T. c #99D5C2",
"R. c #9BD4C2",
"E. c #9BD6C3",
"W. c #9CD7C4",
"Q. c #9ED8C5",
"!. c #A4D7C6",
"~. c #A4D7C7",
"^. c #A1D9C7",
"/. c #A6D8C8",
"(. c #ADD8C9",
"). c #ADD9C9",
"_. c #B1DCCE",
"`. c #B4DDCF",
"'. c #B4DDD0",
"]. c #B6DED1",
"[. c #BDDFD3",
"{. c #82E5C6",
"}. c #82E6C6",
"|. c #85EBCB",
" X c #BFE0D3",
".X c #C6E5DA",
"XX c #CAE8DE",
"oX c #D0E6DD",
"OX c #D2E7E0",
"+X c #D3EAE2",
"@X c #D4E9E1",
"#X c #D5EBE3",
"$X c #D9EDE6",
"%X c #DAEDE6",
"&X c #DAEEE7",
"*X c #DCEEE7",
"=X c #DBEFE8",
"-X c #E6F3EE",
";X c #E6F3EF",
":X c #E2F7EF",
">X c #E9F3EF",
",X c #E9F4EF",
"<X c #E9F4F1",
"1X c #EFF7F4",
"2X c #E7FAF4",
"3X c #E7FBF4",
"4X c #E9F8F3",
"5X c #ECFAF5",
"6X c #EEFFFB",
"7X c #F0F7F4",
"8X c #F3F9F7",
"9X c #F5FAF8",
"0X c #F6FAF9",
"qX c #F7FBF9",
"wX c #F3FDF9",
"eX c #F2FFFF",
"rX c #F3FFFF",
"tX c #FAFFFF",
"yX c #FCFDFD",
"uX c #FCFEFD",
"iX c #FDFFFF",
"pX c white",
"aX c None",
/* pixels */
"aXaXaXaXaXaXaXaXaXaXaXaXpXpXpXpXpXpXpXpXaXaXaXaXaXaXaXaXaXaXaXaX",
"aXaXaXaXaXaXaXaXaXaXpXaXpXpXpXpXpXpXpXpXaXpXaXaXaXaXaXaXaXaXaXaX",
"aXaXaXaXaXaXaXaXaXpXpXpXiX9X0X0X0X0X9XiXpXpXpXaXaXaXaXaXaXaXaXaX",
"aXaXaXaXaXaXaXaXpXpXpXpX.XR././././.R..XpXpXpXpXaXaXaXaXaXaXaXaX",
"aXaXaXaXaXaXaXpXpX4X#X+XR.C |  .X.X.I R.+X#X4XpXpXaXaXaXaXaXaXaX",
"aXaXaXaXaXaXpXpX8X/.x 8.d.n.b.k.k.k.l.a.8.x /.8XpXpXaXaXaXaXaXaX",
"aXaXaXaXaXaXpXtX!.m.w.s.K.T.I.Z.f.k.k.j.a.e.m.~.tXpXaXaXaXaXaXaX",
"aXaXaXaXaXaXpX:XU w.k.k.U.Q.W.J.s.k.k.k.k.l.w.! :XpXaXaXaXaXaXaX",
"aXaXaXaXaXpXpX%Xq.u.j.k.P.E.T.A.f.k.k.k.k.k.u.q.%XpXpXaXaXaXaXaX",
"aXaXaXaXaXpXpX$Xq.u.k.k.C.Z.Z.z.k.k.k.k.k.k.u.q.$XpXpXaXaXaXaXaX",
"aXaXaXaXaXpXpX$Xq.g.V.B.j.s.f.j.b.V.V.b.k.k.u.q.$XpXpXaXaXaXaXaX",
"aXaXaXaXaXpXpX%X0.r.i.p.h.k.k.k.h.p.i.f.k.k.u.q.$XpXpXaXaXaXaXaX",
"aXaXaXaXaXpXpX&X7., * : 3.S.k.S.1.; * < f.b.u.q.$XpXpXaXaXaXaXaX",
"aXaXaXaXaXpXpX=X4.&   O F G.k.G.6 o . * i.V.u.q.%XpXpXaXaXaXaXaX",
"aXaXaXaXaXpXpX=X6.= X % <.F.k.G.F $ o ; p.B.u.q.%XpXpXaXaXaXaXaX",
"aXaXaXaXaXaXpX3X9.H 4 ,.f.H.G.H.p.G 5 1.h.k.u.q.2XpXaXaXaXaXaXaX",
"aXaXaXaXaXaXpXeX .c.H.D.1.3 7 3 2.F.H.S.k.k.r. .rXpXaXaXaXaXaXaX",
"aXaXaXaXaXaXpX6X8.u.V.p.- O # O > h.B.k.k.k.u.8.6XpXaXaXaXaXaXaX",
"aXaXaXaXaXaXaXpX5X^.z [ D 2 3 1 <.k.n.u.{ l ^.5XiXaXaXaXaXaXaXaX",
"aXaXaXaXaXaXaXoXwXXX`.].Y.x.M.N.v.y.8.L.].'.XXwXOXaXaXaXaXaXaXaX",
"aXaXaXaXaXaXd c 5.,XpXyX_.~ t.t.t.t.~ _.uXpX>X5.r a L aXaXaXaXaX",
"aXaXaXd s i R @.t ). X[.*X<X;X-X-X;X<X*X[. X(.t o.>.O.h p j aXaX",
"aXaXaXf |.+.b v k 8 + 0 @XqX7X7X1X7XqX@X0 @ 8 j N p d $.:.}.p aX",
"aXaXaXh {.f aXaX^ B y f K } Q Q Q Q } K f d L ^ aXaXd *.` -.v aX",
"aXaXaXaXaXaXaXaX( ] S d w 9 q q q q 0 e f b L / aXaXaXaXaXaXaXaX",
"aXaXaXaXaXaXaXaX' ..J f N N f f f f f f f f P ` aXaXaXaXaXaXaXaX",
"aXaXaXaXaXaXaXaX*.R f f W E f f f f f f f d Y *.aXaXaXaXaXaXaXaX",
"aXaXaXaXaXaXaXaXaXs &.j Z A f ) +.O.+._ f ( f aXaXaXaXaXaXaXaXaX",
"aXaXaXaXaXaXaXaXaXg p V j g f f u h u m M $.n aXaXaXaXaXaXaXaXaX",
"aXaXaXaXaXaXaXaXaXaXaX%.^ P s aXaXaXaXaXT O.h f aXaXaXaXaXaXaXaX",
"aXaXaXaXaXaXaXaXaXaXaXp g $.f aXaXaXaXaXaXn #.=.aXaXaXaXaXaXaXaX",
"aXaXaXaXaXaXaXaXaXaXaXaXh >.f aXaXaXaXaXaXy ;./ aXaXaXaXaXaXaXaX"
};
