/* XPM */
static char *result[] = {
/* columns rows colors chars-per-pixel */
"32 32 233 2 ",
"   c #4A8473",
".  c #4B8574",
"X  c #518A79",
"o  c #538D7C",
"O  c #27B794",
"+  c #579180",
"@  c #589280",
"#  c #5B9684",
"$  c #5D9886",
"%  c #619D8B",
"&  c #629D8B",
"*  c #639F8D",
"=  c #48BC9B",
"-  c #54BF9E",
";  c #56BE9F",
":  c #64A08E",
">  c #65A18F",
",  c #67A492",
"<  c #68A592",
"1  c #69A693",
"2  c #6DAA97",
"3  c #6DAB98",
"4  c #6EAC99",
"5  c #6FAD9A",
"6  c #66B39C",
"7  c #71B09C",
"8  c #56BFA0",
"9  c #57BFA0",
"0  c #69B7A0",
"q  c #6DBBA4",
"w  c #75B4A1",
"e  c #77B7A3",
"r  c #7CBCA9",
"t  c #7CBEAA",
"y  c #7EBFAB",
"u  c #3EC29E",
"i  c #3FC4A0",
"p  c #5BC4A5",
"a  c #63C1A4",
"s  c #60C3A5",
"d  c #69C2A6",
"f  c #6CC2A7",
"g  c #6CC3A8",
"h  c #6FC3A8",
"j  c #6EC3A9",
"k  c #6FC3A9",
"l  c #6AC7AA",
"z  c #6FC4A8",
"x  c #6EC4A9",
"c  c #6FC4A9",
"v  c #6FC4AA",
"b  c #6FC5AA",
"n  c #6DC7AD",
"m  c #6FC8AF",
"M  c #70C3A9",
"N  c #70C5A9",
"B  c #70C4AA",
"V  c #71C4AA",
"C  c #71C4AB",
"Z  c #70C6AA",
"A  c #71C7AC",
"S  c #77C5AE",
"D  c #7FC1AC",
"F  c #7FC1AD",
"G  c #73CAAF",
"H  c #72CBAF",
"J  c #7DC8AF",
"K  c #74C8B0",
"L  c #75C9B0",
"P  c #76C9B1",
"I  c #77C9B1",
"U  c #78C9B1",
"Y  c #78CAB2",
"T  c #7ACAB2",
"R  c #7BCAB2",
"E  c #7ACAB3",
"W  c #7BCAB3",
"Q  c #7FC8B1",
"!  c #7CCAB3",
"~  c #7CCBB3",
"^  c #7BCCB4",
"/  c #7DCCB5",
"(  c #7CCDB5",
")  c #7ECCB4",
"_  c #7FCEB6",
"`  c #65D5B4",
"'  c #76D1B4",
"]  c #79D6B8",
"[  c #70DFBD",
"{  c #78D9BB",
"}  c #7BD9BB",
"|  c #7ADBBC",
" . c #7CDABC",
".. c #7CDBBD",
"X. c #7ADDBE",
"o. c #7DDDBF",
"O. c #7EDEC0",
"+. c #7EDFC0",
"@. c #7FE0C1",
"#. c #80C2AD",
"$. c #80C2AE",
"%. c #81C2AE",
"&. c #82C4B0",
"*. c #84C6B2",
"=. c #84C7B2",
"-. c #85C7B3",
";. c #83CBB6",
":. c #80CCB5",
">. c #81CCB5",
",. c #83CCB6",
"<. c #83CDB7",
"1. c #80CEB6",
"2. c #84CDB7",
"3. c #85CDB7",
"4. c #86CFB7",
"5. c #88CBB6",
"6. c #8ACBB6",
"7. c #88CCB7",
"8. c #89CCB7",
"9. c #86CDB8",
"0. c #86CEB8",
"q. c #87CEB8",
"w. c #89CEB9",
"e. c #8ACEB9",
"r. c #8BCEBA",
"t. c #8ACFBA",
"y. c #8BCFBA",
"u. c #8CCFBA",
"i. c #90CEB9",
"p. c #8AD1BB",
"a. c #8CD0BB",
"s. c #8CD1BB",
"d. c #8CD1BC",
"f. c #8DD1BC",
"g. c #8ED1BC",
"h. c #8FD1BC",
"j. c #8DD2BC",
"k. c #8DD2BD",
"l. c #8ED2BD",
"z. c #8ED3BE",
"x. c #8FD4BF",
"c. c #91D2BD",
"v. c #91D2BE",
"b. c #92D2BE",
"n. c #8FDEC3",
"m. c #95D4C0",
"M. c #96D4C0",
"N. c #96D4C1",
"B. c #97D4C1",
"V. c #9AD4C1",
"C. c #9AD6C3",
"Z. c #9BD7C4",
"A. c #9CD7C4",
"S. c #9DD7C5",
"D. c #A4D7C7",
"F. c #A6D8C8",
"G. c #A6D9C8",
"H. c #A7DBCA",
"J. c #A8D9C9",
"K. c #ABD8C8",
"L. c #AAD9CA",
"P. c #ABD9CA",
"I. c #A9DBCB",
"U. c #ABDACA",
"Y. c #ABDBCB",
"T. c #ADDACB",
"R. c #ADDBCC",
"E. c #AFDBCC",
"W. c #AFDBCD",
"Q. c #AADECD",
"!. c #ADDDCD",
"~. c #AEDDCD",
"^. c #ADDDCE",
"/. c #AFDDCE",
"(. c #B2DBCC",
"). c #B0DCCD",
"_. c #B2DCCE",
"`. c #B4DCCD",
"'. c #B4DDCF",
"]. c #B5DDD0",
"[. c #BBDFD2",
"{. c #B3E0D1",
"}. c #BCE1D5",
"|. c #BEECDB",
" X c #C0E2D7",
".X c #C2E3D8",
"XX c #C8ECE0",
"oX c #CBEDE1",
"OX c #D3ECE3",
"+X c #DAECE4",
"@X c #DAEDE6",
"#X c #D9EFE7",
"$X c #DCEEE8",
"%X c #DDEEE8",
"&X c #DDEFE8",
"*X c #DDEFE9",
"=X c #DEEFE9",
"-X c #CCF0E3",
";X c #D1F2E6",
":X c #D8F5EA",
">X c #DFF8EF",
",X c #E2F1EC",
"<X c #E5F3EE",
"1X c #E9F3EF",
"2X c #E8F4EF",
"3X c #ECF5F1",
"4X c #ECF6F2",
"5X c #EFF9F5",
"6X c #E8FEF6",
"7X c #E9FEF7",
"8X c #EAFEF7",
"9X c #EFFFFB",
"0X c #F0F7F4",
"qX c #F1F8F5",
"wX c #F3FEFA",
"eX c #F5FEFB",
"rX c #F0FFFC",
"tX c #F6FFFC",
"yX c #F8FBFA",
"uX c #F8FCFA",
"iX c #FAFDFB",
"pX c #FAFCFC",
"aX c #FAFDFC",
"sX c #FBFDFC",
"dX c #FBFFFD",
"fX c #F9FFFE",
"gX c #FCFDFD",
"hX c #FCFFFE",
"jX c #FDFFFF",
"kX c #FEFEFE",
"lX c #FEFFFE",
"zX c white",
"xX c None",
/* pixels */
"xXxXxXxXxXxXxXxXxXxXxXxXxXxXxXxXxXxXxXxXxXxXxXxXxXxXxXxXxXxXxXxX",
"xXxXxXxXxXxXxXxXxXxXxXxXxXxXxXxXxXxXxXxXxXxXxXxXxXxXxXxXxXxXxXxX",
"xXxXxXxXxXxXxXxXxXxXxXxXxXxXxXxXxXxXxXxXxXxXxXxXxXxXxXxXxXxXxXxX",
"xXxXxXxXxXxXxXxXxXxXxXxXxXxXxXxXxXxXxXxXxXxXxXxXxXxXxXxXxXxXxXxX",
"xXxXxXxXxXxXxXxXxXxXxXxXxXxXxXxXxXxXxXxXxXxXxXxXxXxXxXxXxXxXxXxX",
"xXxXxXxXxXxXxXxXxXxXxXxXxXxXxXxXxXxXxXxXxXxXxXxXxXxXxXxXxXxXxXxX",
"xXxXxXxXxXxXxXxXxXxXxXxXxXxXxXxXxXxXxXxXxXxXxXxXxXxXxXxXxXxXxXxX",
"xXxXxXxXxXxXxXxXxXxXxXxXxXxXxXxXxXxXxXxXxXxXxXxXxXxXxXxXxXxXxXxX",
"xXxXxXxXxXxXxXxXxXxXxXxXxXxXzXzXzXzXzXzXzXxXxXxXxXxXxXxXxXxXxXxX",
"xXxXxXxXxXxXxXxXxXxXxXzXkXzXzXzXzXzXzXzXzXzXkXzXxXxXxXxXxXxXxXxX",
"xXxXxXxXxXxXxXxXxXxXzXzXzXzX%X$X&X*X*X&X&XzXzXzXzXxXxXxXxXxXxXxX",
"xXxXxXxXxXxXxXxXxXzXzXgXzX=X2.:.9.9.9.>.>.@XzXgXzXzXxXxXxXxXxXxX",
"xXxXxXxXxXxXxXxXzXzXtX).'.F.9.3.0.0.3.,.,.D.].E.wXzXzXxXxXxXxXxX",
"xXxXxXxXxXxXxXxXzXfX XP L :.y.y.y.y.g.v.c.<.L K }.eXzXxXxXxXxXxX",
"xXxXxXxXxXxXxXxXzX{.T y.y.y.y.y.t.y.m.A.C.c.e.y.W ~.zXxXxXxXxXxX",
"xXxXxXxXxXxXzXzXjXR.I y.y.y.y.y.t.y.N.S.A.v.w.y.U J.hXzXzXxXxXxX",
"xXxXxXxXxXxXzXzXaXE.W y.y.y.y.y.y.y.b.B.M.h.e.y.~ L.yXzXzXxXxXxX",
"xXxXxXxXxXxXzXzXaXW.W y.y.y.y.y.y.y.y.y.y.y.y.y.~ U.uXzXzXxXxXxX",
"xXxXxXN 8 6.qXzXaXW.W y.y.a.z.z.j.y.t.e.t.f.z.z./ P.uXzXzXxXxXxX",
"xXxXxXc [ n.5XzXaXW.W y.a.5.$.D *.y.y.y.y.=.F #.S Y.uXzXzXxXxXxX",
"xXxXG b s 4.4XzXaXW.W y.z.y $ + 4 r.s.a.a.7 @ # 0 !.uXzXzXxXxXxX",
"xXz } ' - xXzXzXpXW.W y.z.r o   < e.d.a.a.2 . X 6 !.uXzXzXxXxXxX",
"xXxX] ..xXxX1XzXsX).W y.k.%.1 : w y.f.d.d.e > , q ^.dXzXzXxXxXxX",
"xXM  .O.f xXa ;XlX_.W y.y.e.8.7.e.d.f.f.f.e.7.8.R /.zXxXxXxXxXxX",
"xXxXxXxXxXxXO -XzXT.n y.y.a.f.x.-.5 3 3 3 &.x.f.m Q.zXxXxXxXxXxX",
"xXxXxXxXxXxX; |.3X.XV.q.q.w.y.l.%.* % & & t p.0.Z..XiXxXxXxXxXxX",
"xXxXxXxXxXxXg { i.0X,XE T 2.y.u.e.5.5.5.5.;.~ I 6XzXxXxXxXxXxXxX",
"xXxXxXxXxXxXxX9 l `.#X7XrXoX! Y ) _ 1.( ^ XX9X8X>X[.d xXxXxXxXxX",
"xXxXxXxXxXxXxXxXH u K.zXzX2XI.H.I.I.J.F.G.<XzXzX(.i | B xXxXxXxX",
"xXxXxXxXxXxXh c Z X.J xXxXxXzXzXzXzXzXzXzXxXxXxXQ X.A c j xXxXxX",
"xXxXxXxXxXxXh @.x V xXxXxXxXxXxXxXxX+X:XOXxXxXxXxXC k +.c xXxXxX",
"xXxXxXxXxXxXc o.c xXxXxXxXxXxXxXxXxX= ` p xXxXxXxXxXc o.v xXxXxX"
};
