/* XPM */
static char *result[] = {
/* columns rows colors chars-per-pixel */
"32 32 69 1 ",
"  c #C7A002",
". c #C8A102",
"X c #C9A102",
"o c #D3A902",
"O c #D4AA02",
"+ c #D5AB03",
"@ c #D9AE02",
"# c #DBB002",
"$ c #DFB302",
"% c #E0B402",
"& c #E1B502",
"* c #E2B502",
"= c #E2B602",
"- c #E3B602",
"; c #E4B600",
": c #E4B702",
"> c #E5B802",
", c #E6B802",
"< c #ECBA00",
"1 c #ECBB00",
"2 c #EBBC01",
"3 c #ECBD01",
"4 c #EDBD01",
"5 c #EDBE01",
"6 c #EDBE02",
"7 c #F2C101",
"8 c #F2C201",
"9 c #F2C203",
"0 c #F5C401",
"q c #FBC500",
"w c #FAC700",
"e c #F9C800",
"r c #FAC800",
"t c #FDCB00",
"y c #FFCB00",
"u c #FFCC00",
"i c #FFCD00",
"p c #FFCE00",
"a c #FFD000",
"s c #FFD100",
"d c #FFD200",
"f c #FFD300",
"g c #FFD400",
"h c #FFD500",
"j c #FFDB00",
"k c #FFDC00",
"l c #FFE500",
"z c #FFEF00",
"x c #FFD62F",
"c c #FED13B",
"v c #FFDA3A",
"b c #FFDA3C",
"n c #FFDA3D",
"m c #FFD943",
"M c #FED657",
"N c #FEDC69",
"B c #FFEC70",
"V c #FFED70",
"C c #FEE37E",
"Z c #FFF777",
"A c #FFFF7F",
"S c #FEE483",
"D c #FEE583",
"F c #FEE585",
"G c #FFEC83",
"H c #FFE788",
"J c #FEE78A",
"K c #FFFF8D",
"L c None",
/* pixels */
"LLLLLLLLLLLLLLLLLLLLLLLLLLLLLLLL",
"LLLLLLLLLLLLLLLLLLLLLLLLLLLLLLLL",
"LLLLLLLLLLLLLLLLLLLLLLLLLLLLLLLL",
"LLLLLLLLLLLLLLLLLLLLLLLLLLLLLLLL",
"LLLLLLLLLLLLLLLLLLLLLLLLLLLLLLLL",
"LLLLLLLLLLLLLLLLLLLLLLLLLLLLLLLL",
"LLLLLLLLLLLLLLLLLLLLLLLLLLLLLLLL",
"LLLLLLLLLLLLLLLLLLLLLLLLLLLLLLLL",
"LLLLLLLLLLLLCKGGGGKCLLLLLLLLLLLL",
"LLLLLLLLLHJFMnmmmmbMFJHLLLLLLLLL",
"LLLLLLLLLNABxq1<<1qxVANLLLLLLLLL",
"LLLLLLLLLyjyp6.  .6pyjyLLLLLLLLL",
"LLLLLLLLDcai;+#@@#+;iacSLLLLLLLL",
"LLLLLLLLZvw4Oo>55>oO4wvZLLLLLLLL",
"LLLLLLLLgf3X#:-ee-:#X3fgLLLLLLLL",
"LLLLLLLLgd9@%--rr--%@9dgLLLLLLLL",
"LLLLLLLLhd0--*-rr-*=-0dgLLLLLLLL",
"LLLLLLLLhd0***-ee-***0dgLLLLLLLL",
"LLLLLLLLlht0,$-22-$,0thlLLLLLLLL",
"LLLLLLLLuudi8,*%%*,7iduuLLLLLLLL",
"LLLLLLLLLykui0*&&*0iukyLLLLLLLLL",
"LLLLLLLLLuzkdt0000tskzuLLLLLLLLL",
"LLLLLLLLLyuyuhddddhuyuyLLLLLLLLL",
"LLLLLLLLLLLLulhhhhluLLLLLLLLLLLL",
"LLLLLLLLLLLLLLLLLLLLLLLLLLLLLLLL",
"LLLLLLLLLLLLLLLLLLLLLLLLLLLLLLLL",
"LLLLLLLLLLLLLLLLLLLLLLLLLLLLLLLL",
"LLLLLLLLLLLLLLLLLLLLLLLLLLLLLLLL",
"LLLLLLLLLLLLLLLLLLLLLLLLLLLLLLLL",
"LLLLLLLLLLLLLLLLLLLLLLLLLLLLLLLL",
"LLLLLLLLLLLLLLLLLLLLLLLLLLLLLLLL",
"LLLLLLLLLLLLLLLLLLLLLLLLLLLLLLLL"
};
