/* XPM */
static char *result[] = {
/* columns rows colors chars-per-pixel */
"32 32 31 1 ",
"  c #FFC500",
". c #FFC800",
"X c #FFCA00",
"o c #FFCB00",
"O c #FFCC00",
"+ c #FFCD00",
"@ c #FFDE00",
"# c #FFDE0E",
"$ c #FFCD1C",
"% c #FFCE1C",
"& c #FFCF1C",
"* c #FFDD15",
"= c #FFEA00",
"- c #FFCE33",
"; c #FFE06B",
": c #FFE27D",
"> c #FFE27E",
", c #FFE89D",
"< c #FFF2AD",
"1 c #FFF5B5",
"2 c #FFEFD4",
"3 c #FFF3DE",
"4 c #FFF3DF",
"5 c #FFF4E2",
"6 c #FFF5E3",
"7 c #FFF7E8",
"8 c #FFFDED",
"9 c #FFFBF5",
"0 c #FFFCF7",
"q c white",
"w c None",
/* pixels */
"wwwwwwwwwwwwwwwwwwwwwwwwwwwwwwww",
"wwwwwwwwwwwwwwwwwwwwwwwwwwwwwwww",
"wwwwwwwwwwwwwwwwwwwwwwwwwwwwwwww",
"wwwwwwwwwwwwwwwOOwwwwwwwwwwwwwww",
"wwwwwwwwwwwwwwwOOwwwwwwwwwwwwwww",
"wwwwwwwwwwwwwwwOOwwwwwwwwwwwwwww",
"wwwwwwwwwwwwwwo..owwwwwwwwwwwwww",
"wwwwwwwwwwwwww#,,#wwwwwwwwwwwwww",
"wwwwwwww@=+www%88&www+=@wwwwwwww",
"wwwwwwww=*o   $77$   o*=wwwwwwww",
"wwwwwwww+o;<1>X66X>1<;o+wwwwwwww",
"wwwwwwwww <qq2-55-2qq< wwwwwwwww",
"wwwwwwwww 1qq940049qq1 wwwwwwwww",
"wwwwwwwww :29qqqqqq92> wwwwwwwww",
"wwwwwwo#&$X-4qqqqqq3-X$&#owwwwww",
"wwwoOO.,87650qqqqqq05678,.OOOwww",
"wwwoOO.,87650qqqqqq05678,.OOOwww",
"wwwwwwo#%$X-4qqqqqq3-X$&#owwwwww",
"wwwwwwwww :29qqqqqq92> wwwwwwwww",
"wwwwwwwww 1qq940049qq1 wwwwwwwww",
"wwwwwwwww <qq2-55-2qq< wwwwwwwww",
"wwwwwwww+o;<1:X66X:1<;o+wwwwwwww",
"wwwwwwww=*o   $77$   o*=wwwwwwww",
"wwwwwwww@=+www%88&www+=@wwwwwwww",
"wwwwwwwwwwwwww#,,#wwwwwwwwwwwwww",
"wwwwwwwwwwwwwwo..owwwwwwwwwwwwww",
"wwwwwwwwwwwwwwwOOwwwwwwwwwwwwwww",
"wwwwwwwwwwwwwwwOOwwwwwwwwwwwwwww",
"wwwwwwwwwwwwwwwoowwwwwwwwwwwwwww",
"wwwwwwwwwwwwwwwwwwwwwwwwwwwwwwww",
"wwwwwwwwwwwwwwwwwwwwwwwwwwwwwwww",
"wwwwwwwwwwwwwwwwwwwwwwwwwwwwwwww"
};
