/* XPM */
static char *result[] = {
/* columns rows colors chars-per-pixel */
"32 32 197 2 ",
"   c #AC5E79",
".  c #AD607A",
"X  c #AE647D",
"o  c #AE657D",
"O  c #AF667E",
"+  c #B47489",
"@  c #B5798C",
"#  c #B6798C",
"$  c #B67A8D",
"%  c #DE9EB2",
"&  c #DF9EB2",
"*  c #DF9EB3",
"=  c #EF87AA",
"-  c #EF88AB",
";  c #E097AF",
":  c #FB8EB3",
">  c #EF92B0",
",  c #F092B1",
"<  c #F094B2",
"1  c #F095B2",
"2  c #F097B4",
"3  c #F595B4",
"4  c #F596B5",
"5  c #F09AB5",
"6  c #F09AB6",
"7  c #F19AB6",
"8  c #F19BB6",
"9  c #F09BB7",
"0  c #F19BB7",
"q  c #F59AB7",
"w  c #F09CB6",
"e  c #F19CB6",
"r  c #F09CB7",
"t  c #F19CB7",
"y  c #F29CB7",
"u  c #F29DB7",
"i  c #F19CB8",
"p  c #F19DB8",
"a  c #F29DB8",
"s  c #F19EBA",
"d  c #F79DBA",
"f  c #F69EBA",
"g  c #F69FBA",
"h  c #F69FBB",
"j  c #F79FBB",
"k  c #C9A2AD",
"l  c #CAA3AE",
"z  c #CAA4AF",
"x  c #D1B2BB",
"c  c #D2B3BC",
"v  c #E1A0B5",
"b  c #EDA8BE",
"n  c #F1A1B9",
"m  c #F1A0BB",
"M  c #F2A1BA",
"N  c #F2A1BB",
"B  c #F1A2BB",
"V  c #F2A2BB",
"C  c #F7A0BB",
"Z  c #F1A1BC",
"A  c #F2A2BD",
"S  c #F2A3BD",
"D  c #F2A4BC",
"F  c #F2A4BD",
"G  c #F2A6BF",
"H  c #F9A1BD",
"J  c #FBA0BD",
"K  c #FBA2BE",
"L  c #FBA3BF",
"P  c #FCA2BF",
"I  c #F9A4BF",
"U  c #FBA4BF",
"Y  c #F2A8BF",
"T  c #EDAAC0",
"R  c #F2A7C0",
"E  c #FDA4C0",
"W  c #FEA4C0",
"Q  c #FFA5C1",
"!  c #FFA6C2",
"~  c #FFA6C4",
"^  c #FFA7C4",
"/  c #F2A8C0",
"(  c #F2A9C1",
")  c #F2AAC1",
"_  c #F3ABC1",
"`  c #F2AAC2",
"'  c #F3AAC2",
"]  c #F2ABC2",
"[  c #F2ABC3",
"{  c #F4ABC3",
"}  c #F3ACC3",
"|  c #F3ADC3",
" . c #F3ADC4",
".. c #F3AEC4",
"X. c #F3AFC4",
"o. c #F3AFC5",
"O. c #F4AEC5",
"+. c #FFA8C5",
"@. c #FFAAC8",
"#. c #FFABC8",
"$. c #FFAECC",
"%. c #FFAECD",
"&. c #FFAFCD",
"*. c #FFAFCE",
"=. c #F3B0C5",
"-. c #F3B0C6",
";. c #F3B1C6",
":. c #F3B2C7",
">. c #F4B1C7",
",. c #F7B0C7",
"<. c #F4B2C6",
"1. c #F8B1C7",
"2. c #F7B2C9",
"3. c #F7B3C9",
"4. c #F3B5C9",
"5. c #F4B4C8",
"6. c #F4B6C9",
"7. c #F5B7CA",
"8. c #FFB1C9",
"9. c #FAB7CB",
"0. c #FFB0CF",
"q. c #FFB4CD",
"w. c #F4B8CB",
"e. c #F4B9CB",
"r. c #F4BACB",
"t. c #F6B8CC",
"y. c #F5BACC",
"u. c #F4BBCD",
"i. c #F5BECF",
"p. c #FFB4D3",
"a. c #FFB7D7",
"s. c #F5BFD0",
"d. c #F5C0D0",
"f. c #F7C5D4",
"g. c #F6C7D5",
"h. c #F8C2D1",
"j. c #F8C3D2",
"k. c #F6C9D7",
"l. c #F6CAD7",
"z. c #F6CAD8",
"x. c #F6CCD9",
"c. c #F7CDD9",
"v. c #F7CED9",
"b. c #F7CEDA",
"n. c #FCCEDC",
"m. c #FCCFDC",
"M. c #EED7DD",
"N. c #EDD8DE",
"B. c #EDDADF",
"V. c #E9DCDF",
"C. c #E8DDDF",
"Z. c #F7D2DD",
"A. c #E8DDE0",
"S. c #F9D5E0",
"D. c #FAD5E0",
"F. c #F8D6E0",
"G. c #FAD7E1",
"H. c #FBD8E3",
"J. c #FBDAE4",
"K. c #F9DEE5",
"L. c #F9DEE6",
"P. c #FADFE7",
"I. c #FCDFE7",
"U. c #FAE2E9",
"Y. c #FAE3EA",
"T. c #FDE1E9",
"R. c #FFE1E9",
"E. c #FAE4EA",
"W. c #FAE4EB",
"Q. c #FCECF1",
"!. c #FCEDF1",
"~. c #FCEDF2",
"^. c #FFEDF2",
"/. c #FFECF3",
"(. c #FCEFF3",
"). c #FAF3F5",
"_. c #FCF1F4",
"`. c LavenderBlush",
"'. c #FFF1F5",
"]. c #FDF3F5",
"[. c #FFF1F6",
"{. c #FFF0F7",
"}. c #FFF2F6",
"|. c #FAF4F5",
" X c #FAF4F6",
".X c #FDF7F9",
"XX c #FEF6F8",
"oX c #FEF7F9",
"OX c #FFF7FD",
"+X c #FEF8F9",
"@X c #FEF8FA",
"#X c #FEF9FA",
"$X c #FFF9FF",
"%X c #FFFDFD",
"&X c #FFFEFF",
"*X c white",
"=X c None",
/* pixels */
"=X=X=X=X=X=X=X=X=X=X=X=X*X*X*X*X*X*X*X*X=X=X=X=X=X=X=X=X=X=X=X=X",
"=X=X=X=X=X=X=X=X=X=X*X=X*X*X*X*X*X*X*X*X=X*X=X=X=X=X=X=X=X=X=X=X",
"=X=X=X=X=X=X=X=X=X*X*X*X&X.X@X@X+X@X.X&X*X*X*X=X=X=X=X=X=X=X=X=X",
"=X=X=X=X=X=X=X=X*X*X*X*XS.w.d.d.d.d.w.S.*X*X*X*X=X=X=X=X=X=X=X=X",
"=X=X=X=X=X=X=X*X*X`.P.L.e.Z R R R R Z w.L.P.`.*X*X=X=X=X=X=X=X=X",
"=X=X=X=X=X=X*X*XXXs.m (  .o.o.o.o.=.-...( m s.XX*X*X=X=X=X=X=X=X",
"=X=X=X=X=X=X*X*Xi.;.[  .o.| R G ' <.7.6...] ;.i.*X*X=X=X=X=X=X=X",
"=X=X=X=X=X=X*X/.A ] =.o./ y.D.D.G.J.f.<.o.o.] A /.*X=X=X=X=X=X=X",
"=X=X=X=X=X*X*XY.`  .o.o.} x.). X|.).Z.5.o... .` Y.*X*X=X=X=X=X=X",
"=X=X=X=X=X*X*XU.`  .} ;.I.N.z k k l B.T.;.}  .` U.*X*X=X=X=X=X=X",
"=X=X=X=X=X*X*XY.`  .] :.'.A.O . . O C.'.:.]  .` Y.*X*X=X=X=X=X=X",
"=X=X=X=X=X*X*XY.`  .] :.^.V.# + + # V.^.:.]  .` Y.*X*X=X=X=X=X=X",
"=X=X=X=X=X*X*XY.`  .] :.}.A.o     X A.[.:.]  .` Y.*X*X=X=X=X=X=X",
"=X=X=X=X=X*X*XY.`  .} ;.H.M.c x x c M.H.;.}  .` Y.*X*X=X=X=X=X=X",
"=X=X=X=X=X*X*XY.`  .o.o.G l.XXoXoXXXl.G o.o. .` Y.*X*X=X=X=X=X=X",
"=X=X=X=X=X=X*X{.`  .o.o.) t.n.m.m.n.t.) o.o. .` {.*X=X=X=X=X=X=X",
"=X=X=X=X=X=X*X$XR } o.o.>.b ; ; ; ; b >.o.o.} R $X*X=X=X=X=X=X=X",
"=X=X=X=X=X=X*XOX( | o.o.3.v $ @ @ $ v 2.o.o.| ( OX*X=X=X=X=X=X=X",
"=X=X=X=X=Xn r.R.~.u.s G O.T * & % * T O.G s u.~.R.r.n =X=X=X=X=X",
"=X=X=X=Xp %.: h._.F.k.z.4.{ ,.,.,.,.{ 4.z.k.F._.h.: %.p =X=X=X=X",
"=X=X=X9 E a j q Y !.*X%Xg.S } } } } S g.%X*X!.Y q j a E 9 =X=X=X",
"=X=X=Xt 0.t =X> d j.v.c.W.(.Q.Q.Q.Q.(.E.c.b.j.d > =Xt 0.t =X=X=X",
"=X=X=X8 p.p =X=XP 4 - < K.#X].].].].#XK.< = 3 P =X=Xp p.t =X=X=X",
"=X=X=Xt a.i =X=XL g 0 t V F D D D D F B t 7 f K =X=Xi a.t =X=X=X",
"=X=X=X=X=X=X=X=XL h t t 2 < 1 1 1 1 , < 8 _ 1.U =X=X=X=X=X=X=X=X",
"=X=X=X=X=X=X=X=XQ C t t t t t t t t N M 0 X.9.! =X=X=X=X=X=X=X=X",
"=X=X=X=X=X=X=X=X#.H t t t t t t 8 t <.5.p p I #.=X=X=X=X=X=X=X=X",
"=X=X=X=X=X=X=X=X=Xt K t W +.^ ^ ~ ^ q.8.a J 8 =X=X=X=X=X=X=X=X=X",
"=X=X=X=X=X=X=X=X=Xr @.t w r y y y y 6 5 t @.r =X=X=X=X=X=X=X=X=X",
"=X=X=X=X=X=X=X=X=Xe $.0 =X=X=X=X=X=X=X=X0 $.e =X=X=X=X=X=X=X=X=X",
"=X=X=X=X=X=X=X=X=Xt *.u =X=X=X=X=X=X=X=Xu *.t =X=X=X=X=X=X=X=X=X",
"=X=X=X=X=X=X=X=X=Xt &.t =X=X=X=X=X=X=X=Xt &.t =X=X=X=X=X=X=X=X=X"
};
