/* XPM */
static char *result[] = {
/* columns rows colors chars-per-pixel */
"32 32 170 2 ",
"   c #EF87AA",
".  c #EF88AB",
"X  c #F68BAF",
"o  c #EF93B1",
"O  c #F092B1",
"+  c #F094B2",
"@  c #F095B2",
"#  c #F095B3",
"$  c #F196B2",
"%  c #F097B4",
"&  c #F495B4",
"*  c #F595B4",
"=  c #F099B5",
"-  c #F19AB6",
";  c #F19BB6",
":  c #F19BB7",
">  c #F49AB7",
",  c #F09CB6",
"<  c #F19CB6",
"1  c #F09CB7",
"2  c #F19CB7",
"3  c #F19DB7",
"4  c #F29CB7",
"5  c #F29DB7",
"6  c #F19CB8",
"7  c #F19DB8",
"8  c #F29DB8",
"9  c #F39DB8",
"0  c #F19EBA",
"q  c #F49DB8",
"w  c #F79DBA",
"e  c #F59FBA",
"r  c #F69EBA",
"t  c #F79EBA",
"y  c #FF9FBF",
"u  c #F1A0BA",
"i  c #F1A0BB",
"p  c #F2A1BA",
"a  c #F2A1BB",
"s  c #F1A2BB",
"d  c #F2A2BB",
"f  c #F1A1BC",
"g  c #F2A2BD",
"h  c #F2A3BD",
"j  c #F6A1BC",
"k  c #F2A4BC",
"l  c #F2A4BD",
"z  c #F2A7BE",
"x  c #F2A6BF",
"c  c #F9A0BC",
"v  c #F9A1BD",
"b  c #FBA0BD",
"n  c #FBA1BE",
"m  c #FAA2BE",
"M  c #FBA2BF",
"N  c #FBA3BF",
"B  c #FCA2BF",
"V  c #FBA4BF",
"C  c #F2A8BF",
"Z  c #F2A7C0",
"A  c #FBA4C0",
"S  c #FDA4C0",
"D  c #FEA4C1",
"F  c #FFA0C4",
"G  c #FFA6C4",
"H  c #FFA7C4",
"J  c #F2A9C1",
"K  c #F3AAC1",
"L  c #F3ABC1",
"P  c #F2AAC2",
"I  c #F2ABC2",
"U  c #F2ABC3",
"Y  c #F2ACC3",
"T  c #F3ACC3",
"R  c #F3ADC3",
"E  c #F3ADC4",
"W  c #F3AEC4",
"Q  c #F3AFC4",
"!  c #F3AEC5",
"~  c #F3AFC5",
"^  c #FFA8C5",
"/  c #FFA9C6",
"(  c #FFAAC7",
")  c #FCAEC6",
"_  c #FFACC9",
"`  c #FFADCA",
"'  c #FFADCB",
"]  c #FFACCC",
"[  c #FFAECC",
"{  c #FFAFCE",
"}  c #F3B0C5",
"|  c #F3B0C6",
" . c #F3B1C6",
".. c #F3B2C7",
"X. c #F4B2C6",
"o. c #F4B3C7",
"O. c #F8B1C7",
"+. c #F4B4C8",
"@. c #F4B5C9",
"#. c #F4B7CA",
"$. c #F9B6CB",
"%. c #FFB3CC",
"&. c #FFB4CD",
"*. c #F4B9CA",
"=. c #F4B8CB",
"-. c #F5B8CB",
";. c #F4B9CB",
":. c #F5B9CB",
">. c #F5B9CC",
",. c #F5BBCC",
"<. c #F4BBCD",
"1. c #F5BBCD",
"2. c #F6BDCE",
"3. c #F5BECF",
"4. c #FFB1D0",
"5. c #F5BFD0",
"6. c #F8BDD0",
"7. c #FFB8D7",
"8. c #FFB8D8",
"9. c #F5C0D0",
"0. c #F6C7D5",
"q. c #F9C2D2",
"w. c #F8C3D2",
"e. c #FAC4D4",
"r. c #F6C9D7",
"t. c #F6CAD8",
"y. c #F7CDD9",
"u. c #F7CED9",
"i. c #F7CEDA",
"p. c #FACBD9",
"a. c #F9D5E0",
"s. c #F8D6E0",
"d. c #FDD9E4",
"f. c #F9DDE5",
"g. c #F9DEE5",
"h. c #F9DEE6",
"j. c #FADFE7",
"k. c #FAE2E9",
"l. c #FAE3E9",
"z. c #FAE3EA",
"x. c #FAE4EA",
"c. c #FAE4EB",
"v. c #FBE7ED",
"b. c #FBEAEF",
"n. c #FBEBF0",
"m. c #FCECF1",
"M. c #FCEDF1",
"N. c #FCEDF2",
"B. c #FFECF3",
"V. c #FCEFF3",
"C. c #FCF1F4",
"Z. c LavenderBlush",
"A. c #FFF1F5",
"S. c #FDF3F5",
"D. c #FFF0F7",
"F. c #FFF2F7",
"G. c #FDF6F8",
"H. c #FDF7F9",
"J. c #FEF6F8",
"K. c #FEF8F9",
"L. c #FEF8FA",
"P. c #FEF9FA",
"I. c #FFF9FD",
"U. c #FFFBFC",
"Y. c #FFF8FE",
"T. c #FFFDFD",
"R. c #FFFCFF",
"E. c #FFFEFF",
"W. c white",
"Q. c None",
/* pixels */
"Q.Q.Q.Q.Q.Q.Q.Q.Q.Q.Q.Q.W.W.W.W.W.W.W.W.Q.Q.Q.Q.Q.Q.Q.Q.Q.Q.Q.Q.",
"Q.Q.Q.Q.Q.Q.Q.Q.Q.Q.W.Q.W.W.W.W.W.W.W.W.Q.W.Q.Q.Q.Q.Q.Q.Q.Q.Q.Q.",
"Q.Q.Q.Q.Q.Q.Q.Q.Q.W.W.W.E.H.L.L.K.L.H.E.W.W.W.Q.Q.Q.Q.Q.Q.Q.Q.Q.",
"Q.Q.Q.Q.Q.Q.Q.Q.W.W.W.W.a.=.9.9.9.9.=.a.W.W.W.W.Q.Q.Q.Q.Q.Q.Q.Q.",
"Q.Q.Q.Q.Q.Q.Q.W.W.Z.j.h.;.f Z Z Z Z f =.h.j.Z.W.W.Q.Q.Q.Q.Q.Q.Q.",
"Q.Q.Q.Q.Q.Q.W.W.J.5.i J E ~ ~ ~ ~ | | W J i 5.J.W.W.Q.Q.Q.Q.Q.Q.",
"Q.Q.Q.Q.Q.Q.W.W.3. .U E ~ ~ ~ W ..-.:.@.W I  .3.W.W.Q.Q.Q.Q.Q.Q.",
"Q.Q.Q.Q.Q.Q.W.B.g I ~ ~ ~ ~ ~ W o.1.2.-.~ ~ I g B.W.Q.Q.Q.Q.Q.Q.",
"Q.Q.Q.Q.Q.W.W.z.P E ~ ~ ~ ~ ~ W ..>.,.#.~ ! E P z.W.W.Q.Q.Q.Q.Q.",
"Q.Q.Q.Q.Q.W.W.k.P E ~ ~ ~ ~ ~ ~ } .... .~ ~ E P k.W.W.Q.Q.Q.Q.Q.",
"Q.Q.Q.Q.Q.W.W.z.P E ~ ~ ~ ~ ~ ~ ~ W W W ~ ~ E P z.W.W.Q.Q.Q.Q.Q.",
"Q.Q.Q.Q.Q.W.W.z.P E ~ ~ ~ ~ ~ ~ ~ ~ ~ ~ ~ ~ E P z.W.W.Q.Q.Q.Q.Q.",
"Q.Q.Q.Q.Q.W.W.z.P E ~ ~ ~ ~ ~ ~ ~ ~ ~ ~ ~ ~ E P z.W.W.Q.Q.Q.Q.Q.",
"Q.Q.Q.Q.Q.W.W.l.P E ~ ~ ~ ~ ~ ~ ~ ~ ~ ~ ~ ~ E P z.W.W.Q.Q.Q.Q.Q.",
"Q.Q.Q.Q.Q.W.W.z.P E ~ ~ ~ ~ ~ ~ ~ ~ ~ ~ ~ ~ E P z.W.W.Q.Q.Q.Q.Q.",
"Q.Q.Q.$ K p.U.v.P E ~ ~ ~ ~ ~ ~ ~ ~ ~ ~ ~ ~ E P D.W.Q.Q.Q.Q.Q.Q.",
"Q.Q.Q.7 F 7 G.n.Z T ~ ~ ~ ~ ~ ~ ~ ~ ~ ~ ~ ~ Y Z R.W.Q.Q.Q.Q.Q.Q.",
"Q.Q.Q.4 y z G.b.J R ~ ~ ~ ~ ~ ~ ~ ~ ~ ~ ~ ~ R J Y.W.Q.Q.Q.Q.Q.Q.",
"Q.Q.Q.5 ] u *.f.N.<.0 x R } ~ ~ ~ ~ } R x 0 6.F.H.Q.Q.Q.Q.Q.Q.Q.",
"Q.Q.Q.6 8 n X q.C.s.r.t.@.J T T T T J @.t.r.d.I.Q.Q.Q.Q.Q.Q.Q.Q.",
"Q.Q.Q.Q.Q./ B > C M.W.T.0.h T T T T h 0.T.W.A.) Q.Q.1 ( 3 Q.Q.Q.",
"Q.Q.Q.Q.Q.Q.Q.o w w.u.y.c.V.m.m.m.m.V.x.y.i.e.b Q.Q., 7.2 Q.Q.Q.",
"Q.Q.Q.Q.Q.Q.Q.Q.B *   + g.P.S.S.S.S.P.g.+ . & c Q.Q.2 { 2 Q.Q.Q.",
"Q.Q.Q.Q.Q.Q.Q.Q.M r - 2 d l k k k k l s 2 : 2 4 2 2 2 _ 2 Q.Q.Q.",
"Q.Q.Q.Q.Q.Q.Q.Q.V O.L ; + O @ # @ @ + % 2 2 3 2 ^ 4.[ 6 Q.Q.Q.Q.",
"Q.Q.Q.Q.Q.Q.Q.Q.A $.Q : p a 2 2 2 2 2 2 2 2 8 9 < 2 2 Q.Q.Q.Q.Q.",
"Q.Q.Q.Q.Q.Q.Q.Q.N j 3 7 +.X.2 ; 2 2 2 2 2 2 e m Q.Q.Q.Q.Q.Q.Q.Q.",
"Q.Q.Q.Q.Q.Q.Q.Q.M q t ^ &.%.H G H H ^ S 4 < m [ Q.Q.Q.Q.Q.Q.Q.Q.",
"Q.Q.Q.Q.Q.Q.Q.Q.D m < , = - 4 4 4 4 1 2 8 v 4 , Q.Q.Q.Q.Q.Q.Q.Q.",
"Q.Q.Q.Q.Q.Q.Q.Q.` ' 7 Q.Q.Q.Q.Q.Q.Q.Q.Q.v 8.2 Q.Q.Q.Q.Q.Q.Q.Q.Q.",
"Q.Q.Q.Q.Q.Q.Q.Q., 5 < Q.Q.Q.Q.Q.Q.Q.Q.Q.Q.4 Q.Q.Q.Q.Q.Q.Q.Q.Q.Q.",
"Q.Q.Q.Q.Q.Q.Q.Q.Q.2 6 Q.Q.Q.Q.Q.Q.Q.Q.Q.Q.Q.Q.Q.Q.Q.Q.Q.Q.Q.Q.Q."
};
