/* XPM */
static char *result[] = {
/* columns rows colors chars-per-pixel */
"32 32 207 2 ",
"   c #B06A81",
".  c #B16D83",
"X  c #B16D84",
"o  c #B26F85",
"O  c #B27086",
"+  c #B5768A",
"@  c #B6788B",
"#  c #B6788C",
"$  c #B97F91",
"%  c #BD8094",
"&  c #BE8194",
"*  c #C08396",
"=  c #CB889E",
"-  c #CC889E",
";  c #CD8AA0",
":  c #EF81A7",
">  c #EF8BAC",
",  c #F08FAF",
"<  c #F090AE",
"1  c #F98CB1",
"2  c #FC8EB3",
"3  c #E19FB4",
"4  c #EF9CB6",
"5  c #F191B0",
"6  c #F091B1",
"7  c #F196B4",
"8  c #F695B5",
"9  c #F496B5",
"0  c #F198B4",
"q  c #F09AB6",
"w  c #F19BB6",
"e  c #F09AB7",
"r  c #F09BB7",
"t  c #F19BB7",
"y  c #F19CB6",
"u  c #F09CB7",
"i  c #F19CB7",
"p  c #F19EB7",
"a  c #F19CB8",
"s  c #F29CB8",
"d  c #F39DB9",
"f  c #F19FBB",
"g  c #F79CB9",
"h  c #F59FBA",
"j  c #E5A3B8",
"k  c #E6A2B8",
"l  c #E8A5BB",
"z  c #F1A0BB",
"x  c #F1A1BC",
"c  c #F1A2BC",
"v  c #F1A2BD",
"b  c #F2A2BD",
"n  c #F2A3BD",
"m  c #F2A4BC",
"M  c #F2A5BD",
"N  c #F2A4BE",
"B  c #F2A5BE",
"V  c #F2A5BF",
"C  c #F2A6BF",
"Z  c #F9A1BD",
"A  c #FAA1BE",
"S  c #EEABC1",
"D  c #EFABC1",
"F  c #F2A7C0",
"G  c #F4A7C1",
"H  c #FFA6C3",
"J  c #FFA3C5",
"K  c #F3A8C1",
"L  c #F2A9C1",
"P  c #F1AAC1",
"I  c #F2AAC1",
"U  c #F2ABC1",
"Y  c #F2AAC2",
"T  c #F2ABC2",
"R  c #F3ABC2",
"E  c #F3ABC3",
"W  c #F5A9C2",
"Q  c #F5AAC2",
"!  c #F5AAC3",
"~  c #F3ACC3",
"^  c #F3ADC3",
"/  c #F2AEC4",
"(  c #F3AEC4",
")  c #F3AFC4",
"_  c #F3AEC5",
"`  c #F3AFC5",
"'  c #F9ABC3",
"]  c #FFAAC7",
"[  c #FFACCA",
"{  c #FFADCB",
"}  c #FFAECC",
"|  c #FFADCF",
" . c #FFAFCE",
".. c #F3B0C6",
"X. c #F3B1C6",
"o. c #F4B1C6",
"O. c #F4B1C7",
"+. c #F6B0C7",
"@. c #F4B3C8",
"#. c #F6B2C8",
"$. c #F7B2C8",
"%. c #F4B4C8",
"&. c #F4B7CA",
"*. c #F6B6CA",
"=. c #FFB0CE",
"-. c #FFB0CF",
";. c #F4B8CB",
":. c #F5BBCD",
">. c #F5BCCD",
",. c #F5BECF",
"<. c #F6BECF",
"1. c #F8BACD",
"2. c #FFB1D0",
"3. c #FFB2D1",
"4. c #FFB7D1",
"5. c #F6BED0",
"6. c #F5C1CF",
"7. c #F5C0D0",
"8. c #F6C0D0",
"9. c #F6C0D1",
"0. c #F6C1D2",
"q. c #F5C2D2",
"w. c #F6C3D3",
"e. c #F7C3D3",
"r. c #F5C5D3",
"t. c #F6C4D3",
"y. c #F5C5D4",
"u. c #F6C5D4",
"i. c #F7C5D4",
"p. c #F6C6D5",
"a. c #F7C6D5",
"s. c #F7C7D5",
"d. c #F6C7D6",
"f. c #F9C1D3",
"g. c #F8C2D3",
"h. c #F8C3D3",
"j. c #F9C6D5",
"k. c #F9C6D6",
"l. c #FDC5D6",
"z. c #F6C9D6",
"x. c #F6C9D7",
"c. c #F7CCD8",
"v. c #F7CFDB",
"b. c #FBCAD9",
"n. c #E6D8DC",
"m. c #E7D8DC",
"M. c #F3D1DB",
"N. c #F2D2DB",
"B. c #F1D3DC",
"V. c #F2D2DC",
"C. c #F8D1DC",
"Z. c #F8D2DD",
"A. c #EBDFE2",
"S. c #ECDFE2",
"D. c #FFD4E4",
"F. c #FFDAE6",
"G. c #FFDCE8",
"H. c #FFDDE9",
"J. c #FFDEE8",
"K. c #EBE0E2",
"L. c #EBE0E3",
"P. c #FAE2E8",
"I. c #FAE3EA",
"U. c #FFE3EB",
"Y. c #FAE5EB",
"T. c #FBE5EB",
"R. c #FFE0EC",
"E. c #FBE5EC",
"W. c #FBE6EC",
"Q. c #FFE5EF",
"!. c #FBE9EF",
"~. c #FFEAF0",
"^. c #FFEBF3",
"/. c #FBEDF1",
"(. c #FCECF0",
"). c #FFECF1",
"_. c #FCEDF2",
"`. c #FFEDF2",
"'. c #FFEEF3",
"]. c #FFEFF3",
"[. c #FFEFF4",
"{. c #FCF0F3",
"}. c #FFF0F4",
"|. c #FEF1F4",
" X c #FFF1F5",
".X c #FFF1F6",
"XX c #FDF3F6",
"oX c #FFF3F7",
"OX c #FDF4F6",
"+X c #FFF3FA",
"@X c #FFF4FB",
"#X c #FEFAFB",
"$X c #FEFBFB",
"%X c #FFF8FC",
"&X c #FEFBFC",
"*X c #FFFAFD",
"=X c #FFF8FE",
"-X c #FFF9FF",
";X c #FFFBFE",
":X c #FEFCFD",
">X c #FEFDFD",
",X c #FFFDFE",
"<X c #FFFDFF",
"1X c #FFFEFE",
"2X c #FFFEFF",
"3X c white",
"4X c None",
/* pixels */
"4X4X4X4X4X4X4X4X4X4X4X4X4X4X4X4X4X4X4X4X4X4X4X4X4X4X4X4X4X4X4X4X",
"4X4X4X4X4X4X4X4X4X4X4X4X4X4X4X4X4X4X4X4X4X4X4X4X4X4X4X4X4X4X4X4X",
"4X4X4X4X4X4X4X4X4X4X4X4X4X4X4X4X4X4X4X4X4X4X4X4X4X4X4X4X4X4X4X4X",
"4X4X4X4X4X4X4X4X4X4X4X4X4X4X4X4X4X4X4X4X4X4X4X4X4X4X4X4X4X4X4X4X",
"4X4X4X4X4X4X4X4X4X4X4X4X4X4X4X4X4X4X4X4X4X4X4X4X4X4X4X4X4X4X4X4X",
"4X4X4X4X4X4X4X4X4X4X4X4X4X4X4X4X4X4X4X4X4X4X4X4X4X4X4X4X4X4X4X4X",
"4X4X4X4X4X4X4X4X4X4X4X4X4X4X4X4X4X4X4X4X4X4X4X4X4X4X4X4X4X4X4X4X",
"4X4X4X4X4X4X4X4X4X4X4X4X4X4X4X4X4X4X4X4X4X4X4X4X4X4X4X4X4X4X4X4X",
"4X4X4X4X4X4X4X4X4X4X4X4X4X4X3X3X3X3X3X3X3X4X4X4X4X4X4X4X4X4X4X4X",
"4X4X4X4X4X4X4X4X4X4X4X3X1X3X3X3X3X3X3X3X3X3X1X3X4X4X4X4X4X4X4X4X",
"4X4X4X4X4X4X4X4X4X4X3X3X3X3XY.T.E.W.W.T.T.3X3X3X3X4X4X4X4X4X4X4X",
"4X4X4X4X4X4X4X4X4X3X3X>X3XW.T L ~ ~ ~ L L I.3X>X3X3X4X4X4X4X4X4X",
"4X4X4X4X4X4X4X4X3X3X;Xp.z.7.~ E ~ ~ ~ Y Y ,.x.u.%X3X3X4X4X4X4X4X",
"4X4X4X4X4X4X4X4X3X<XC.N n L ` ` ( ~ _ X...I n b v.*X3X4X4X4X4X4X",
"4X4X4X4X4X4X4X4X3Xb.V ` ` ` ` ` ` ..&.>.:.@.( ` C j.3X4X4X4X4X4X",
"4X4X4X4X4X4X3X3X2Xi.N ` ` ` ` v <.~.'.].].i.x ` B 0.2X3X3X4X4X4X",
"4X4X4X4X4X4X3X3X&Xy.C ` ` ( ` 5.M.S.K.A.A.N.9...V q.#X3X3X4X4X4X",
"4X4X4X4X4X4X3X3X&Xu.C ` ` ~ ..~.S.$ + # @ m.'.%.b q.#X3X3X4X4X4X",
"4X4X4Xs 5 U OX3X&Xu.C ` ` ~ ..`.L.+   X . n. X%.c q.#X3X3X4X4X4X",
"4X4X4Xi | 4.oX3X&Xu.C ` ` ~ ..).L.# X O o m.}.%.v q.#X3X3X4X4X4X",
"4X4XZ s 9 ' |.3X&Xu.C ` ` ~ ..).L.@ . o o m.}.%.c q.#X3X3X4X4X4X",
"4X4 { H < 4X3X3X&Xu.C ` ` ( ` e.V.m.m.m.m.B.i.X.B q.#X3X3X4X4X4X",
"4X4X] } 4X4X/.3X:Xp.C ` ` ` ` c 9.[..X X Xa.x _ F w.,X3X3X4X4X4X",
"4Xt } 2.e 4X7 R.2Xd.C ` ` ` ` ( o.*.*.*.*.O.( ` F k.3X4X4X4X4X4X",
"4X4X4X4X4X4X: H.3Xt.f ` ` ` ` #.l ; = - - k #.` z l.3X4X4X4X4X4X",
"4X4X4X4X4X4X, D.{.Z.;.^ ^ ( ` $.j * % & & 3 +.~ 1.Z.$X4X4X4X4X4X",
"4X4X4X4X4X4Xq [ ) XX!.C C R ` ` / D S D D P F N +X3X4X4X4X4X4X4X",
"4X4X4X4X4X4X4X6 g s.U.+X-XG.C V K Q ! W G F.=X@X^.c.0 4X4X4X4X4X",
"4X4X4X4X4X4X4X4XA 1 6.3X3X_.g.f.h.h.0.8.9.(.3X3Xr.2 } a 4X4X4X4X",
"4X4X4X4X4X4Xw i d  .m 4X4X4X3X3X3X3X3X3X3X4X4X4XM  .h i r 4X4X4X",
"4X4X4X4X4X4Xy 3.i a 4X4X4X4X4X4X4X4XP.Q.J.4X4X4X4Xp u 2.i 4X4X4X",
"4X4X4X4X4X4Xa =.r 4X4X4X4X4X4X4X4X4X> J 8 4X4X4X4X4Xt -.i 4X4X4X"
};
