/* XPM */
static char *result[] = {
/* columns rows colors chars-per-pixel */
"32 32 233 2 ",
"   c #AC5E79",
".  c #AD607A",
"X  c #AE647D",
"o  c #AE657D",
"O  c #AF667E",
"+  c #B47489",
"@  c #B6798C",
"#  c #C6889C",
"$  c #EE81A7",
"%  c #EF82A7",
"&  c #EF8FAF",
"*  c #F08EAE",
"=  c #F08FAF",
"-  c #EF94B1",
";  c #E49BB3",
":  c #EF9CB6",
">  c #F092B1",
",  c #F094B2",
"<  c #F095B2",
"1  c #F095B3",
"2  c #F295B3",
"3  c #F197B3",
"4  c #F097B4",
"5  c #F197B4",
"6  c #F494B4",
"7  c #F099B5",
"8  c #F199B5",
"9  c #F199B6",
"0  c #F19AB6",
"q  c #F09BB6",
"w  c #F19BB6",
"e  c #F09BB7",
"r  c #F19BB7",
"t  c #F29BB7",
"y  c #F59AB7",
"u  c #F09CB6",
"i  c #F19CB6",
"p  c #F09CB7",
"a  c #F19CB7",
"s  c #F09DB7",
"d  c #F19DB7",
"f  c #F29CB7",
"g  c #F29DB7",
"h  c #F19CB8",
"j  c #F19DB8",
"k  c #F29CB8",
"l  c #F29DB8",
"z  c #F39DB9",
"x  c #F19EB8",
"c  c #F19EB9",
"v  c #F19FB9",
"b  c #F39EB9",
"n  c #F59DB9",
"m  c #F49EBA",
"M  c #F59EBA",
"N  c #F69FBA",
"B  c #F69FBB",
"V  c #FE99BA",
"C  c #C9A1AD",
"Z  c #C9A2AD",
"A  c #CAA3AE",
"S  c #CAA4AF",
"D  c #D1B2BB",
"F  c #D2B3BC",
"G  c #E4A2B7",
"H  c #F1A0BB",
"J  c #F1A1BC",
"K  c #F1A2BC",
"L  c #F1A2BD",
"P  c #F1A3BD",
"I  c #F2A3BC",
"U  c #F2A3BD",
"Y  c #F7A0BC",
"T  c #F2A4BC",
"R  c #F2A4BD",
"E  c #F2A4BE",
"W  c #F2A5BE",
"Q  c #F2A5BF",
"!  c #F2A6BE",
"~  c #F2A6BF",
"^  c #F2A7BF",
"/  c #F8A0BC",
"(  c #F9A1BD",
")  c #FAA2BE",
"_  c #FBA2BF",
"`  c #FBA3BF",
"'  c #F2A7C0",
"]  c #FEA4C0",
"[  c #FFA4C3",
"{  c #FFA5C3",
"}  c #FFA6C3",
"|  c #FFA1C4",
" . c #FFA7C4",
".. c #F2A8C0",
"X. c #F2A9C1",
"o. c #F2AAC2",
"O. c #F3AAC2",
"+. c #F2ABC2",
"@. c #F2ABC3",
"#. c #F3ABC3",
"$. c #F3ACC2",
"%. c #F3ACC3",
"&. c #F3ADC3",
"*. c #F3AEC3",
"=. c #F3ADC4",
"-. c #F2AEC4",
";. c #F3AEC4",
":. c #F3AFC4",
">. c #F3AFC5",
",. c #F6AEC6",
"<. c #F6AFC6",
"1. c #FFA8C5",
"2. c #FFA9C6",
"3. c #FFA9C7",
"4. c #FFAAC7",
"5. c #FFABC8",
"6. c #FFACC8",
"7. c #FFADC8",
"8. c #FFACCA",
"9. c #FFADCB",
"0. c #FFAECC",
"q. c #F3B0C3",
"w. c #F3B0C5",
"e. c #F3B0C6",
"r. c #F3B1C6",
"t. c #F3B2C7",
"y. c #F4B1C5",
"u. c #F4B0C6",
"i. c #F5B0C7",
"p. c #F4B2C6",
"a. c #F4B3C7",
"s. c #F3B4C8",
"d. c #F4B7CA",
"f. c #FFB2CB",
"g. c #FFB3CD",
"h. c #FFB0CE",
"j. c #FFB1CF",
"k. c #FEB6CC",
"l. c #FFB7CF",
"z. c #F4B9CA",
"x. c #F5B9CB",
"c. c #F5B9CC",
"v. c #F5BCCD",
"b. c #F5BCCE",
"n. c #F5BDCE",
"m. c #F5BDCF",
"M. c #FFB1D0",
"N. c #FFB2D1",
"B. c #F5BFD0",
"V. c #F7BFD0",
"C. c #FFB8D8",
"Z. c #F5C0D0",
"A. c #F5C0D1",
"S. c #F5C1D1",
"D. c #F5C2D2",
"F. c #F6C5D4",
"G. c #F8C2D3",
"H. c #F8C5D5",
"J. c #F9C5D5",
"K. c #F9C6D6",
"L. c #F6C9D7",
"P. c #F6CAD6",
"I. c #F6CAD7",
"U. c #F7CBD7",
"Y. c #F6CCD9",
"T. c #F7CCD9",
"R. c #F7CDD9",
"E. c #F7CED9",
"W. c #F7CDDA",
"Q. c #F7CFDB",
"!. c #F9C9D8",
"~. c #F8CBD9",
"^. c #FACBD8",
"/. c #FBCAD9",
"(. c #FBCDDA",
"). c #F8CFDA",
"_. c #FBCEDC",
"`. c #EED7DD",
"'. c #EDD8DE",
"]. c #E9DCDF",
"[. c #E8DDE0",
"{. c #FAD5E0",
"}. c #FCD7E2",
"|. c #F8D8E1",
" X c #F9D8E2",
".X c #F9D9E2",
"XX c #FBD8E3",
"oX c #FBD9E3",
"OX c #F9DBE4",
"+X c #FBDBE4",
"@X c #FEDAE5",
"#X c #F9DDE5",
"$X c #F9DFE6",
"%X c #FADFE7",
"&X c #FCDCE5",
"*X c #FCDFE7",
"=X c #F9E0E7",
"-X c #FAE2E8",
";X c #FAE3EA",
":X c #FBE4EA",
">X c #FBE4EB",
",X c #FAE5EB",
"<X c #FAE7ED",
"1X c #FBE7ED",
"2X c #FBE9EE",
"3X c #FCECF1",
"4X c #FCEDF1",
"5X c #FDEDF1",
"6X c #FFEDF2",
"7X c #FDEEF2",
"8X c #FEEFF3",
"9X c #FAF3F5",
"0X c #FFF1F5",
"qX c #FDF3F5",
"wX c #FEF2F5",
"eX c #FFF1F6",
"rX c #FDF3F6",
"tX c #FFF2F6",
"yX c #FAF4F5",
"uX c #FDF4F7",
"iX c #FDF5F7",
"pX c #FDF7F9",
"aX c #FEF6F8",
"sX c #FEF7F9",
"dX c #FEF8F9",
"fX c #FEF8FA",
"gX c #FEF9FA",
"hX c #FEF9FB",
"jX c #FEFAFB",
"kX c #FEFBFC",
"lX c #FFFDFF",
"zX c white",
"xX c None",
/* pixels */
"xXxXxXxXxXxXxXxXxXxXxXxXxXxXzXzXzXzXzXzXzXxXxXxXxXxXxXxXxXxXxXxX",
"xXxXxXxXxXxXxXxXxXxXxXxXxXzXzXzXzXzXzXzXzXzXxXzXxXxXxXxXxXxXxXxX",
"xXxXxXxXxXxXxXxXxXxXxXzXzXzXdXfXfXfXfXpXfXzXzXzXzXxXxXxXxXxXxXxX",
"xXxXxXxXxXxXxXxXxXzXzXzXzXwXB.n.Z.Z.Z.m.n.8XzXzXzXlXxXxXxXxXxXxX",
"xXxXxXxXxXxXxXxXxXzXzX$X:XQ.~ E ' ' ' Q Q W.;X%XzXzXzXxXxXxXxXxX",
"xXxXxXxXxXxXxXxXzXzX=X~ ~ #.w.e.>.>.>.>.>.+.^ W #XzXzXxXxXxXxXxX",
"xXxXxXxXxXxXxXxXzX@Xs.&.%.>.p.a.:.' %.w.>.;.=.%.s.}.zXxXxXxXxXxX",
"xXxXxXxXxXxXxXzXzXG.H >.' b.+X&XoX{.c...>.>.>.>.J V.zXzXxXxXxXxX",
"xXxXxXxXxXxXzXzXkXF.~ >.%.Y.9XyXyX9XY.%.>.>.>.>.' D.jXzXzXxXxXxX",
"xXxXxXxXxXxXzXzXkXF.U r.*X'.A C Z S '.*Xr.%.>.>.' D.hXzXzXxXxXxX",
"xXxXxXxXxXxXzXzXkXF.K t.0X[.O . . O [.0Xt.+.>.>.' D.jXzXzXxXxXxX",
"xXxXxXxXxXxXzXzXkXF.L t.6X].@ + + @ ].6Xt.+.>.>.' D.jXzXzXxXxXxX",
"xXxXxXxXxXxXzXzXkXF.K t.eX[.X     o [.tXt.+.>.>.' D.jXzXzXxXxXxX",
"xXxXxXxXxXxXzXzXkXF.R r.XX`.F D D F `.XXr.%.>.>.' D.gXzXzXxXxXxX",
"xXxXxXxXxXxXzXzXkXF.~ >.~ I.aXsXsXaXI.~ >.>.>.>.' D.jXzXzXxXxXxX",
"xXxXxXxXxXxXxXzXzX!.~ >.o.d.~._._.~.d.o.>.>.>.>.' H.zXzXxXxXxXxX",
"xXxXxXxXxXxXxXxXzX/.R >.w.=.' ; ; ' =.w.>.>.>.>.E J.zXxXxXxXxXxX",
"xXxXxXe 0.i xXxXzX/.Q >.>.i.-.# # -.i.>.>.>.>.>.~ K.zXxXxXxXxXxX",
"xXxXxXi C.a 3 q.^.5XOXU P O.>.G G >.u.>.>.X.U K  X7X(.*.- xXxXxX",
"xXxXxXq r B 2.V 5 -X2XI.T.S.%.,.<.%.%.#.@.A.T.L.<X>Xn | s xXxXxX",
"xXxXxXxXxX] m a a , U.zXzX1X+.X.%.%.%.X.X.,XzXzX).2 Y M k ( xXxX",
"xXxXxXxXxXN.5.2. .6 $.R.I.|.3X4X3X3X3X4X4X.XP.E.k.& xXg } 9.: xX",
"xXxXxXxXxXa a k a x y * $ z.rXiXqXqXqXuXiXv.% = [ d xXxX0.4.xXxX",
"xXxXxXxXxXxXxXxXxXa  .0 w v T T T T T T T v w a 1.h xXp M.0.r xX",
"xXxXxXxXxXxXxXxXxX9 g.y.I 4 > , 1 < < < < 8 d a 1.u xXxXxXxXxXxX",
"xXxXxXxXxXxXxXxXxX7 f.d.T a I c r a a a a a a a 3.f xXxXxXxXxXxX",
"xXxXxXxXxXxXxXxXp a b v 0 ^ x.! 8 a a a a a a j 9.w xXxXxXxXxXxX",
"xXxXxXxXxXxXxXxX5./ N { { 7.l.6.}  . . . .Y l Y a xXxXxXxXxXxXxX",
"xXxXxXxXxXxXxXxX_ ( h k k t 9 t k f f k u d _ ) xXxXxXxXxXxXxXxX",
"xXxXxXxXxXxXxXxX` 5.q xXxXxXxXxXxXxXxXxXxXj j.z a w xXxXxXxXxXxX",
"xXxXxXxXxXxXxXxX` 9.p xXxXxXxXxXxXxXxXxXxXxXi a N.i xXxXxXxXxXxX",
"xXxXxXxXxXxXxXxX` 8.a xXxXxXxXxXxXxXxXxXxXxXxXe h.h xXxXxXxXxXxX"
};
