/* XPM */
static char *result[] = {
/* columns rows colors chars-per-pixel */
"32 32 238 2 ",
"   c #A64A6C",
".  c #A64B6D",
"X  c #A74C6E",
"o  c #A74D6E",
"O  c #AF677F",
"+  c #AF6880",
"@  c #B06980",
"#  c #B17588",
"$  c #B77B8E",
"%  c #C98B9F",
"&  c #CB8DA1",
"*  c #C59DA9",
"=  c #C69DA9",
"-  c #DF95AE",
";  c #DD9DB1",
":  c #DE9EB2",
">  c #DF9EB3",
",  c #EF87AA",
"<  c #EF88AB",
"1  c #E097B0",
"2  c #E69EB5",
"3  c #E69FB6",
"4  c #EF9CB7",
"5  c #F092B1",
"6  c #F192B1",
"7  c #F193B2",
"8  c #F094B2",
"9  c #F095B2",
"0  c #F097B4",
"q  c #F197B4",
"w  c #F099B5",
"e  c #F09AB6",
"r  c #F19AB6",
"t  c #F19BB6",
"y  c #F09BB7",
"u  c #F19BB7",
"i  c #F29BB7",
"p  c #F09CB6",
"a  c #F19CB6",
"s  c #F09CB7",
"d  c #F19CB7",
"f  c #F19DB7",
"g  c #F29CB7",
"h  c #F29DB7",
"j  c #F19CB8",
"k  c #F19DB8",
"l  c #F29CB8",
"z  c #F29DB8",
"x  c #F39DB8",
"c  c #F19EBA",
"v  c #F29EBB",
"b  c #F59DB9",
"n  c #F59EBA",
"m  c #F59FBA",
"M  c #F69FBB",
"N  c #C8A3AE",
"B  c #C9A3AE",
"V  c #CAA4AF",
"C  c #CCA9B3",
"Z  c #CCAAB3",
"A  c #CDA9B4",
"S  c #CFAFB8",
"D  c #D0AFB8",
"F  c #D2B4BC",
"G  c #E4A0B6",
"H  c #E5A3B9",
"J  c #F1A0BB",
"K  c #F2A1BA",
"L  c #F2A1BB",
"P  c #F1A2BB",
"I  c #F2A2BB",
"U  c #F7A0BB",
"Y  c #F1A1BC",
"T  c #F2A2BD",
"R  c #F2A3BD",
"E  c #F7A0BC",
"W  c #F2A4BC",
"Q  c #F2A4BD",
"!  c #F2A4BE",
"~  c #F2A5BE",
"^  c #F1A6BF",
"/  c #F2A6BF",
"(  c #F2A7BF",
")  c #F9A1BD",
"_  c #F9A2BD",
"`  c #FAA2BE",
"'  c #FBA2BE",
"]  c #FBA3BF",
"[  c #FEA0BE",
"{  c #FCA3BF",
"}  c #F9A4BF",
"|  c #F3A8BF",
" . c #D9BBC3",
".. c #DBBEC6",
"X. c #F2A7C0",
"o. c #FDA3C0",
"O. c #FFA2C2",
"+. c #FCA4C0",
"@. c #FEA4C0",
"#. c #FEA4C1",
"$. c #FFA5C1",
"%. c #FFA6C2",
"&. c #FFA7C4",
"*. c #FFA7C7",
"=. c #F2A8C0",
"-. c #F3A9C0",
";. c #F2A9C1",
":. c #F3AAC1",
">. c #F3ABC1",
",. c #F2AAC2",
"<. c #F2ABC2",
"1. c #F2ABC3",
"2. c #F3ABC3",
"3. c #F2ACC3",
"4. c #F3ACC3",
"5. c #F3ADC3",
"6. c #F1AEC3",
"7. c #F3ADC4",
"8. c #F2AEC4",
"9. c #F3AEC4",
"0. c #F2AFC4",
"q. c #F3AFC4",
"w. c #F3AFC5",
"e. c #F7ADC6",
"r. c #F6AFC6",
"t. c #FFA8C5",
"y. c #FFA8C6",
"u. c #FFA9C6",
"i. c #FFA9C7",
"p. c #FFAAC7",
"a. c #FFABC8",
"s. c #FFABC9",
"d. c #FFACCA",
"f. c #FFADCB",
"g. c #FFAFCD",
"h. c #FFAFCE",
"j. c #F3B0C5",
"k. c #F3B0C6",
"l. c #F3B1C6",
"z. c #F4B0C6",
"x. c #F4B1C6",
"c. c #F5B0C7",
"v. c #F5B1C7",
"b. c #F7B0C7",
"n. c #F4B2C6",
"m. c #F4B2C7",
"M. c #F8B1C7",
"N. c #F4B4C8",
"B. c #F4B5C9",
"V. c #F4B6CA",
"C. c #FAB7CB",
"Z. c #F4B8CB",
"A. c #F4B9CB",
"S. c #F7B8CC",
"D. c #F5BECF",
"F. c #FFB7D6",
"G. c #FFB7D7",
"H. c #F5BFD0",
"J. c #F8BED0",
"K. c #FFBBDC",
"L. c #DEC2CA",
"P. c #DFC4CC",
"I. c #F5C0D0",
"U. c #F6C2D1",
"Y. c #F7C3D3",
"T. c #F7C5D5",
"R. c #F6C7D5",
"E. c #F7C7D5",
"W. c #F9C4D5",
"Q. c #F9C5D5",
"!. c #F6C9D6",
"~. c #F6C9D7",
"^. c #F8C8D7",
"/. c #F8C9D7",
"(. c #F6CAD8",
"). c #F7CAD8",
"_. c #F7CDD9",
"`. c #F7CED9",
"'. c #F7CEDA",
"]. c #F8CEDB",
"[. c #F9CFDB",
"{. c #FCCEDC",
"}. c #F9D0DC",
"|. c #F9D1DD",
" X c #FDD0DE",
".X c #FAD4DF",
"XX c #F9D5E0",
"oX c #F9D9E3",
"OX c #FBD9E3",
"+X c #FBDAE3",
"@X c #FCD9E3",
"#X c #F9DDE5",
"$X c #F9DEE5",
"%X c #F9DEE6",
"&X c #FADFE7",
"*X c #FCDEE6",
"=X c #F9E1E7",
"-X c #F9E1E8",
";X c #F8E2E8",
":X c #FAE2E9",
">X c #FAE3E9",
",X c #FAE3EA",
"<X c #F8E4EA",
"1X c #FAE4EA",
"2X c #FAE4EB",
"3X c #FBE5EB",
"4X c #FAE7EC",
"5X c #FCECF1",
"6X c #FCEDF1",
"7X c #FCEEF1",
"8X c #FFECF3",
"9X c #FCEFF3",
"0X c #FAF2F4",
"qX c LavenderBlush",
"wX c #FDF3F5",
"eX c #FFF0F7",
"rX c #FFF3F7",
"tX c #FBF4F6",
"yX c #FBF7F7",
"uX c #FCF5F7",
"iX c #FDF5F7",
"pX c #FFF3F8",
"aX c #FBF7F8",
"sX c #FDF7F9",
"dX c #FEF6F8",
"fX c #FFF7FB",
"gX c #FCF8F9",
"hX c #FEF8F9",
"jX c #FDF9FA",
"kX c #FEF8FA",
"lX c #FEF9FA",
"zX c #FEFAFB",
"xX c #FFF8FE",
"cX c #FFFDFD",
"vX c #FFFCFF",
"bX c #FFFEFF",
"nX c white",
"mX c None",
/* pixels */
"mXmXmXmXmXmXmXmXmXmXmXmXnXnXnXnXnXnXnXnXmXmXmXmXmXmXmXmXmXmXmXmX",
"mXmXmXmXmXmXmXmXmXmXnXmXnXnXnXnXnXnXnXnXmXnXmXmXmXmXmXmXmXmXmXmX",
"mXmXmXmXmXmXmXmXmXnXnXnXbXsXkXhXkXkXsXbXnXnXnXmXmXmXmXmXmXmXmXmX",
"mXmXmXmXmXmXmXmXnXnXnXnXXXZ.I.I.I.I.Z.XXnXnXnXnXmXmXmXmXmXmXmXmX",
"mXmXmXmXmXmXmXnXnXqX&X%XZ.Y X.X.X.X.Y A.%X&XqXnXnXmXmXmXmXmXmXmX",
"mXmXmXmXmXmXnXnXdXH.J ;.9.k.j.w.w.w.w.7.;.J H.dXnXnXmXmXmXmXmXmX",
"mXmXmXmXmXmXnXnXD.l.1.9.x.m.n.:.;.w.w.w.7.1.l.D.nXnXmXmXmXmXmXmX",
"mXmXmXmXmXmXnX8XT <.3.4.[.*X+XOX^.<.4.w.w.w.<.T 8XnXmXmXmXmXmXmX",
"mXmXmXmXmXnXnX,X,.4.7.V.<XyX0XaX;XB.9.w.w.w.7.,.,XnXnXmXmXmXmXmX",
"mXmXmXmXmXnXnX:X,.X./.4X .= V * ..4XE.;.w.w.7.,.:XnXnXmXmXmXmXmX",
"mXmXmXmXmXnXnX,X,.! .XgXB o @ X Z jX}.( w.w.7.,.,XnXnXmXmXmXmXmX",
"mXmXmXmXmXnXnX,X,.~ |.tXA + $ + D uX].X.w.w.7.,.,XnXnXmXmXmXmXmX",
"mXmXmXmXmXnXnX,X,.! .XgXN . O   C jX|./ w.w.7.,.,XnXnXmXmXmXmXmX",
"mXmXmXmXmXnXnX,X,.=.T.=XL.S F S P.-XY.,.w.w.7.,.,XnXnXmXmXmXmXmX",
"mXmXmXmXmXnXnX,X,.7.<.l.3XzXiXzX>Xw.2.w.w.w.7.,.,XnXnXmXmXmXmXmX",
"mXmXmXmXmXmXnXeX,.7.3.7.Q. X{. XW.5.5.w.w.w.7.,.eXnXmXmXmXmXmXmX",
"mXmXmXmXmXmXnXvXX.3.z.8.2 - 1 - 3 w.z.w.w.w.3.( vXnXmXmXmXmXmXmX",
"mXmXmXmXmXmXnXxX;.5.v.6.% # $ # & 0.c.w.w.w.5.;.xXnXmXmXmXmXmXmX",
"mXmXmXmXmXmXmXnXrXJ.v ^ G : > ; H w.z.5./ c J.pXnXmXmXmXmXmXmXmX",
"mXmXmXmXmXmXmXoXfX@X!.).S.e.b.b.r.4.;.B.(.~.@XfX#XmXmXmXmXmXmXmX",
"mXmXmXmXmXmXg [ | 6XnXcXR.R 4.4.4.4.R R.cXnX7X| q u M mXmXmXmXmX",
"mXmXmXz a y _ *.w U.'._.1X9X5X5X5X5X9X2X_.`.U.w O.h.&.d l g mXmX",
"mXmXmXd K.t.g j x 6 , 8 $XlXwXwXwXwXlX$X8 < 7 x k s d y.g.G.h mX",
"mXmXmXd F.s mXmX` b r d P Q W W W W Q I d u m ' mXmXp s.#.f.u mX",
"mXmXmXmXmXmXmXmX+.M.>.t 8 5 9 9 9 9 8 0 d d M { mXmXmXmXmXmXmXmX",
"mXmXmXmXmXmXmXmX%.C.q.u K L d d d d d d d d U $.mXmXmXmXmXmXmXmX",
"mXmXmXmXmXmXmXmXa.} k k N.n.d t d d d d d d ) a.mXmXmXmXmXmXmXmX",
"mXmXmXmXmXmXmXmXmXe i.d :.-.d o.t.&.t.@.d { u mXmXmXmXmXmXmXmXmX",
"mXmXmXmXmXmXmXmXmXl d n i i d j s g s d z u.j mXmXmXmXmXmXmXmXmX",
"mXmXmXmXmXmXmXmXmXmXmXp.' E t mXmXmXmXmX) &.d d mXmXmXmXmXmXmXmX",
"mXmXmXmXmXmXmXmXmXmXmX4 f u.d mXmXmXmXmXmXh t.d.mXmXmXmXmXmXmXmX",
"mXmXmXmXmXmXmXmXmXmXmXmXj h.d mXmXmXmXmXmXy f.] mXmXmXmXmXmXmXmX"
};
