/* XPM */
static char *result[] = {
/* columns rows colors chars-per-pixel */
"32 32 239 2 ",
"   c #A64A6C",
".  c #A64B6D",
"X  c #A74C6E",
"o  c #A74D6E",
"O  c #AF677F",
"+  c #AF6880",
"@  c #B06980",
"#  c #B17588",
"$  c #B77B8E",
"%  c #C98B9F",
"&  c #CB8DA1",
"*  c #C59DA9",
"=  c #C69DA9",
"-  c #DF95AE",
";  c #DD9DB1",
":  c #DE9EB2",
">  c #DF9EB3",
",  c #EF83A7",
"<  c #EF87AA",
"1  c #EF88AB",
"2  c #FB8EB3",
"3  c #E097B0",
"4  c #EF92B0",
"5  c #EF92B1",
"6  c #E69EB5",
"7  c #E69FB6",
"8  c #F092B1",
"9  c #F094B2",
"0  c #F095B2",
"q  c #F097B4",
"w  c #F595B4",
"e  c #F596B5",
"r  c #F099B5",
"t  c #F19AB6",
"y  c #F09BB6",
"u  c #F19BB6",
"i  c #F09BB7",
"p  c #F19BB7",
"a  c #F59AB7",
"s  c #F19CB6",
"d  c #F09DB6",
"f  c #F09CB7",
"g  c #F19CB7",
"h  c #F19DB7",
"j  c #F29CB7",
"k  c #F59AB8",
"l  c #F19CB8",
"z  c #F19DB8",
"x  c #F29CB8",
"c  c #F29DB8",
"v  c #F39EB9",
"b  c #F19EBA",
"n  c #F29EBB",
"m  c #F49EB9",
"M  c #F79DBA",
"N  c #F69EBA",
"B  c #F69FBA",
"V  c #F69FBB",
"C  c #F79FBB",
"Z  c #F89EBB",
"A  c #C8A3AE",
"S  c #C9A3AE",
"D  c #CAA4AF",
"F  c #CCA9B3",
"G  c #CCAAB3",
"H  c #CDA9B4",
"J  c #CFAFB8",
"K  c #D0AFB8",
"L  c #D2B4BC",
"P  c #E4A0B6",
"I  c #E5A3B9",
"U  c #F1A1B9",
"Y  c #F1A0BB",
"T  c #F2A1BA",
"R  c #F2A1BB",
"E  c #F1A2BB",
"W  c #F2A2BB",
"Q  c #F7A0BB",
"!  c #F1A1BC",
"~  c #F2A2BD",
"^  c #F2A3BD",
"/  c #F2A4BC",
"(  c #F2A4BD",
")  c #F2A4BE",
"_  c #F2A5BE",
"`  c #F1A6BF",
"'  c #F2A6BF",
"]  c #F2A7BF",
"[  c #F9A1BD",
"{  c #FBA2BE",
"}  c #FBA2BF",
"|  c #FBA3BF",
" . c #FCA2BF",
".. c #F9A4BF",
"X. c #FBA4BF",
"o. c #F2A8BF",
"O. c #D9BBC3",
"+. c #DBBEC6",
"@. c #F2A7C0",
"#. c #FDA4C0",
"$. c #FEA4C1",
"%. c #FEA5C1",
"&. c #FFA5C1",
"*. c #FFA6C2",
"=. c #FFA7C3",
"-. c #FFA7C4",
";. c #F2A8C0",
":. c #F2A9C1",
">. c #F3AAC1",
",. c #F3ABC1",
"<. c #F2AAC2",
"1. c #F2ABC2",
"2. c #F2ABC3",
"3. c #F3ABC3",
"4. c #F2ACC3",
"5. c #F3ACC3",
"6. c #F3ADC3",
"7. c #F1AEC3",
"8. c #F7ACC3",
"9. c #F3ADC4",
"0. c #F2AEC4",
"q. c #F3AEC4",
"w. c #F2AFC4",
"e. c #F3AFC4",
"r. c #F3AFC5",
"t. c #F7ADC6",
"y. c #F6AFC6",
"u. c #FFA8C6",
"i. c #FFAAC7",
"p. c #FFABC8",
"a. c #FFADCA",
"s. c #FFADCB",
"d. c #FFADCC",
"f. c #FFAECD",
"g. c #FFAFCD",
"h. c #F3B0C5",
"j. c #F3B0C6",
"k. c #F3B1C6",
"l. c #F4B0C6",
"z. c #F4B1C6",
"x. c #F5B0C7",
"c. c #F5B1C7",
"v. c #F7B0C7",
"b. c #F4B2C6",
"n. c #F4B2C7",
"m. c #F8B1C7",
"M. c #F4B4C8",
"N. c #F4B5C9",
"B. c #F4B6CA",
"V. c #FAB7CB",
"C. c #FFB0CF",
"Z. c #F4B8CB",
"A. c #F4B9CB",
"S. c #F4BACB",
"D. c #F7B8CC",
"F. c #F4BBCD",
"G. c #F5BECF",
"H. c #F5BFCF",
"J. c #FFB4D3",
"K. c #FFB7D7",
"L. c #F5BFD0",
"P. c #DEC2CA",
"I. c #DFC4CC",
"U. c #F5C0D0",
"Y. c #F7C3D3",
"T. c #F7C5D5",
"R. c #F6C7D5",
"E. c #F7C7D5",
"W. c #F8C2D1",
"Q. c #F8C3D2",
"!. c #F9C4D5",
"~. c #F9C5D5",
"^. c #F6C9D6",
"/. c #F6C9D7",
"(. c #F8C8D7",
"). c #F8C9D7",
"_. c #F6CAD8",
"`. c #F7CAD8",
"'. c #F7CDD9",
"]. c #F7CED9",
"[. c #F7CEDA",
"{. c #F8CEDB",
"}. c #F9CFDB",
"|. c #FFCCDD",
" X c #FCCEDC",
".X c #F9D0DC",
"XX c #F9D1DD",
"oX c #FDD0DE",
"OX c #FAD4DF",
"+X c #F9D5E0",
"@X c #F8D6E0",
"#X c #FBD9E3",
"$X c #FBDAE3",
"%X c #F9DEE5",
"&X c #F9DEE6",
"*X c #FADFE7",
"=X c #FCDEE6",
"-X c #F9E1E7",
";X c #F9E1E8",
":X c #F8E2E8",
">X c #FAE2E9",
",X c #FAE3E9",
"<X c #FAE3EA",
"1X c #FFE1E9",
"2X c #F8E4EA",
"3X c #FAE4EA",
"4X c #FAE4EB",
"5X c #FBE5EB",
"6X c #FAE7EC",
"7X c #FCECF1",
"8X c #FCEDF1",
"9X c #FCEDF2",
"0X c #FFECF3",
"qX c #FCEFF3",
"wX c #FFEAF4",
"eX c #FAF2F4",
"rX c #FCF1F4",
"tX c LavenderBlush",
"yX c #FDF3F5",
"uX c #FFF0F7",
"iX c #FBF4F6",
"pX c #FBF7F7",
"aX c #FCF5F7",
"sX c #FDF5F7",
"dX c #FBF7F8",
"fX c #FDF7F9",
"gX c #FEF6F8",
"hX c #FFF7FD",
"jX c #FCF8F9",
"kX c #FEF8F9",
"lX c #FDF9FA",
"zX c #FEF8FA",
"xX c #FEF9FA",
"cX c #FEFAFB",
"vX c #FFF9FF",
"bX c #FFFDFD",
"nX c #FFFEFF",
"mX c white",
"MX c None",
/* pixels */
"MXMXMXMXMXMXMXMXMXMXMXMXmXmXmXmXmXmXmXmXMXMXMXMXMXMXMXMXMXMXMXMX",
"MXMXMXMXMXMXMXMXMXMXmXMXmXmXmXmXmXmXmXmXMXmXMXMXMXMXMXMXMXMXMXMX",
"MXMXMXMXMXMXMXMXMXmXmXmXnXfXzXzXkXzXfXnXmXmXmXMXMXMXMXMXMXMXMXMX",
"MXMXMXMXMXMXMXMXmXmXmXmX+XZ.U.U.U.U.Z.+XmXmXmXmXMXMXMXMXMXMXMXMX",
"MXMXMXMXMXMXMXmXmXtX*X&XA.! @.@.@.@.! Z.&X*XtXmXmXMXMXMXMXMXMXMX",
"MXMXMXMXMXMXmXmXgXL.Y :.9.r.r.r.r.h.j.q.:.Y L.gXmXmXMXMXMXMXMXMX",
"MXMXMXMXMXMXmXmXG.k.2.9.r.r.r.:.>.b.n.z.q.2.k.G.mXmXMXMXMXMXMXMX",
"MXMXMXMXMXMXmX0X~ 1.r.r.r.5.1.(.#X$X=X}.5.4.1.~ 0XmXMXMXMXMXMXMX",
"MXMXMXMXMXmXmX<X<.9.r.r.r.q.N.:XdXeXpX2XB.9.5.<.<XmXmXMXMXMXMXMX",
"MXMXMXMXMXmXmX>X<.9.r.r.:.E.6X+.* D = O.6X).@.<.>XmXmXMXMXMXMXMX",
"MXMXMXMXMXmXmX<X<.9.r.r.] .XlXG X @ o S jXOX) <.<XmXmXMXMXMXMXMX",
"MXMXMXMXMXmXmX<X<.9.r.r.@.{.aXK + $ + H iXXX_ <.<XmXmXMXMXMXMXMX",
"MXMXMXMXMXmXmX<X<.9.r.r.' XXlXF   O . A jXOX) <.<XmXmXMXMXMXMXMX",
"MXMXMXMXMXmXmX<X<.9.r.r.<.Y.;XI.J L J P.-XT.;.<.<XmXmXMXMXMXMXMX",
"MXMXMXMXMXmXmX<X<.9.r.r.r.3.r.,XcXsXcX5Xk.1.9.<.<XmXmXMXMXMXMXMX",
"MXMXMXMXMXMXmXuX<.9.r.r.r.6.6.!.oX XoX~.9.4.9.<.uXmXMXMXMXMXMXMX",
"MXMXMXMXMXMXmXvX@.5.r.r.r.l.r.7 - 3 - 6 0.l.5.@.vXmXMXMXMXMXMXMX",
"MXMXMXMXMXMXmXhX:.6.r.r.r.x.w.& # $ # % 7.c.6.:.hXmXMXMXMXMXMXMX",
"MXMXMXMXMXU S.1X9XF.b ' 6.l.r.I ; > : P ` n F.9XwXH.MXMXMXMXMXMX",
"MXMXMXMXz f.2 W.rX@X/._.N.:.5.y.v.v.t.D.`.^.@XrX|., MXMXMXMXMXMX",
"MXMXMXi #.c C a o.8XmXbXR.^ 5.5.5.5.^ R.bXmX8Xo.k [ Q MXMXMXMXMX",
"MXMXMXg C.g MX4 M Q.].'.4XqX7X7X7X7XqX3X'.[.Q.M 5 MX} MXMXMXMXMX",
"MXMXMXu J.z MXMX .e 1 9 %XxXyXyXyXyXxX%X9 < w  .MXMXx g MXMXMXMX",
"MXMXMXg K.l MXMX| B p g W ( / / / / ( E g t N { MXMXv y MXMXMXMX",
"MXMXMXMXMXMXMXMX| V g g q 9 0 0 0 0 8 9 u ,.m.X.MXMXMXMXMXMXMXMX",
"MXMXMXMXMXMXMXMX&.Q g g g g g g g g R T p e.V.*.MXMXMXMXMXMXMXMX",
"MXMXMXMXMXMXMXMXp.[ g g g g g g u g b.M.z z ..p.MXMXMXMXMXMXMXMX",
"MXMXMXMXMXMXMXMXMXg g.=.B s g %.$.g ;.8.-.d.t MXMXMXMXMXMXMXMXMX",
"MXMXMXMXMXMXMXMXMXd g s f V z g g z Z r s g d MXMXMXMXMXMXMXMXMX",
"MXMXMXMXMXMXMXMXMXMXMXMXg s.g MXMXg J.j MXMXMXMXMXMXMXMXMXMXMXMX",
"MXMXMXMXMXMXMXMXMXMXMXMXg a.j s y g l MXMXMXMXMXMXMXMXMXMXMXMXMX",
"MXMXMXMXMXMXMXMXMXMXMXMXh u.g &.i.m MXMXMXMXMXMXMXMXMXMXMXMXMXMX"
};
