/* XPM */
static char *result[] = {
/* columns rows colors chars-per-pixel */
"32 32 170 2 ",
"   c #EF87AA",
".  c #EF88AB",
"X  c #F68BAF",
"o  c #EF96B2",
"O  c #F092B1",
"+  c #F193B1",
"@  c #F094B2",
"#  c #F095B2",
"$  c #F095B3",
"%  c #F494B3",
"&  c #F097B4",
"*  c #F596B5",
"=  c #F09AB5",
"-  c #F19AB5",
";  c #F19AB6",
":  c #F19BB6",
">  c #F19BB7",
",  c #F49AB7",
"<  c #F09CB6",
"1  c #F19CB6",
"2  c #F09CB7",
"3  c #F19CB7",
"4  c #F19DB7",
"5  c #F29CB7",
"6  c #F29DB7",
"7  c #F19CB8",
"8  c #F19DB8",
"9  c #F29CB8",
"0  c #F29DB8",
"q  c #F19EBA",
"w  c #F39FBA",
"e  c #F49EB9",
"r  c #F79DBA",
"t  c #F69FBA",
"y  c #F69FBB",
"u  c #FF9FBF",
"i  c #F1A0B9",
"p  c #F1A0BB",
"a  c #F2A1BA",
"s  c #F2A1BB",
"d  c #F1A2BB",
"f  c #F2A2BB",
"g  c #F1A1BC",
"h  c #F2A2BD",
"j  c #F2A3BD",
"k  c #F7A0BC",
"l  c #F6A1BC",
"z  c #F2A4BC",
"x  c #F2A4BD",
"c  c #F2A7BE",
"v  c #F2A6BF",
"b  c #F2A7BF",
"n  c #F9A0BC",
"m  c #F9A1BD",
"M  c #FAA0BD",
"N  c #FBA1BD",
"B  c #FAA2BE",
"V  c #FBA2BE",
"C  c #FBA2BF",
"Z  c #FCA0BE",
"A  c #FCA2BF",
"S  c #F2A8BF",
"D  c #F2A7C0",
"F  c #FEA4C1",
"G  c #FFA1C5",
"H  c #FFA6C4",
"J  c #FFA7C4",
"K  c #F2A9C1",
"L  c #F3ABC1",
"P  c #F2AAC2",
"I  c #F2ABC2",
"U  c #F2ABC3",
"Y  c #F2ACC3",
"T  c #F3ACC3",
"R  c #F3ADC3",
"E  c #F3ADC4",
"W  c #F3AEC4",
"Q  c #F3AFC4",
"!  c #F3AEC5",
"~  c #F3AFC5",
"^  c #F4AFC4",
"/  c #FFA9C6",
"(  c #FFAAC7",
")  c #FCAFC7",
"_  c #FFACC9",
"`  c #FFADCA",
"'  c #FFADCB",
"]  c #FFADCC",
"[  c #FFAECC",
"{  c #FFAFCE",
"}  c #F3B0C5",
"|  c #F3B0C6",
" . c #F3B1C6",
".. c #F3B2C7",
"X. c #F4B2C6",
"o. c #F4B3C7",
"O. c #F4B4C8",
"+. c #F5B4C8",
"@. c #F4B5C9",
"#. c #F4B7CA",
"$. c #FFB1C9",
"%. c #FFB4CD",
"&. c #F4B9CA",
"*. c #F4B8CB",
"=. c #F5B8CB",
"-. c #F4B9CB",
";. c #F5B9CB",
":. c #F5B9CC",
">. c #F5BBCC",
",. c #F4BBCD",
"<. c #F5BBCD",
"1. c #F6BDCE",
"2. c #F5BECF",
"3. c #FFB1D0",
"4. c #F5BFD0",
"5. c #F8BDD0",
"6. c #FFB8D7",
"7. c #FFB8D8",
"8. c #F5C0D0",
"9. c #F6C7D5",
"0. c #F9C2D2",
"q. c #F8C3D2",
"w. c #FAC5D4",
"e. c #F6C9D7",
"r. c #F6CAD8",
"t. c #F7CDD9",
"y. c #F7CED9",
"u. c #F7CEDA",
"i. c #FACBD9",
"p. c #F9D5E0",
"a. c #F8D6E0",
"s. c #FDD9E4",
"d. c #F9DDE5",
"f. c #F9DEE5",
"g. c #F9DEE6",
"h. c #FADFE7",
"j. c #FAE2E9",
"k. c #FAE3E9",
"l. c #FAE3EA",
"z. c #FAE4EA",
"x. c #FAE4EB",
"c. c #FBE7ED",
"v. c #FBEAEF",
"b. c #FBEBF0",
"n. c #FCECF1",
"m. c #FCEDF1",
"M. c #FCEDF2",
"N. c #FFECF3",
"B. c #FCEFF3",
"V. c #FCF1F4",
"C. c LavenderBlush",
"Z. c #FFF1F5",
"A. c #FDF3F5",
"S. c #FFF0F7",
"D. c #FFF2F7",
"F. c #FDF6F8",
"G. c #FDF7F9",
"H. c #FEF6F8",
"J. c #FEF8F9",
"K. c #FEF8FA",
"L. c #FEF9FA",
"P. c #FFF9FA",
"I. c #FFF9FD",
"U. c #FFFBFC",
"Y. c #FFF8FE",
"T. c #FFFDFD",
"R. c #FFFCFF",
"E. c #FFFEFF",
"W. c white",
"Q. c None",
/* pixels */
"Q.Q.Q.Q.Q.Q.Q.Q.Q.Q.Q.Q.W.W.W.W.W.W.W.W.Q.Q.Q.Q.Q.Q.Q.Q.Q.Q.Q.Q.",
"Q.Q.Q.Q.Q.Q.Q.Q.Q.Q.W.Q.W.W.W.W.W.W.W.W.Q.W.Q.Q.Q.Q.Q.Q.Q.Q.Q.Q.",
"Q.Q.Q.Q.Q.Q.Q.Q.Q.W.W.W.E.G.K.K.J.K.G.E.W.W.W.Q.Q.Q.Q.Q.Q.Q.Q.Q.",
"Q.Q.Q.Q.Q.Q.Q.Q.W.W.W.W.p.*.8.8.8.8.*.p.W.W.W.W.Q.Q.Q.Q.Q.Q.Q.Q.",
"Q.Q.Q.Q.Q.Q.Q.W.W.C.h.g.-.g D D D D g *.g.h.C.W.W.Q.Q.Q.Q.Q.Q.Q.",
"Q.Q.Q.Q.Q.Q.W.W.H.4.p K E ~ ~ ~ ~ | | W K p 4.H.W.W.Q.Q.Q.Q.Q.Q.",
"Q.Q.Q.Q.Q.Q.W.W.2. .U E ~ ~ ~ W ..=.;.@.W I  .2.W.W.Q.Q.Q.Q.Q.Q.",
"Q.Q.Q.Q.Q.Q.W.N.h I ~ ~ ~ ~ ~ W o.<.1.=.~ ~ I h N.W.Q.Q.Q.Q.Q.Q.",
"Q.Q.Q.Q.Q.W.W.l.P E ~ ~ ~ ~ ~ W ..:.>.#.~ ! E P l.W.W.Q.Q.Q.Q.Q.",
"Q.Q.Q.Q.Q.W.W.j.P E ~ ~ ~ ~ ~ ~ } .... .~ ~ E P j.W.W.Q.Q.Q.Q.Q.",
"Q.Q.Q.Q.Q.W.W.l.P E ~ ~ ~ ~ ~ ~ ~ W W W ~ ~ E P l.W.W.Q.Q.Q.Q.Q.",
"Q.Q.Q.Q.Q.W.W.l.P E ~ ~ ~ ~ ~ ~ ~ ~ ~ ~ ~ ~ E P l.W.W.Q.Q.Q.Q.Q.",
"Q.Q.Q.Q.Q.W.W.l.P E ~ ~ ~ ~ ~ ~ ~ ~ ~ ~ ~ ~ E P l.W.W.Q.Q.Q.Q.Q.",
"Q.Q.Q.Q.Q.W.W.l.P E ~ ~ ~ ~ ~ ~ ~ ~ ~ ~ ~ ~ E P k.W.W.Q.Q.Q.Q.Q.",
"Q.Q.Q.Q.Q.W.W.l.P E ~ ~ ~ ~ ~ ~ ~ ~ ~ ~ ~ ~ E P l.W.W.Q.Q.Q.Q.Q.",
"Q.Q.Q.Q.Q.Q.W.S.P E ~ ~ ~ ~ ~ ~ ~ ~ ~ ~ ~ ~ E P c.U.i.L o Q.Q.Q.",
"Q.Q.Q.Q.Q.Q.W.R.b Y ~ ~ ~ ~ ~ ~ ~ ~ ~ ~ ~ ~ T D b.F.4 G 8 Q.Q.Q.",
"Q.Q.Q.Q.Q.Q.W.Y.K R ~ ~ ~ ~ ~ ~ ~ ~ ~ ~ ~ ~ R K v.F.c u 5 Q.Q.Q.",
"Q.Q.Q.Q.Q.Q.Q.P.D.5.q v R } ~ ~ ~ ~ } R v q ,.M.d.&.i ] 5 Q.Q.Q.",
"Q.Q.Q.Q.Q.Q.Q.Q.I.s.e.r.@.K T T T T K @.r.e.a.V.0.X N 4 7 Q.Q.Q.",
"Q.Q.Q.4 ( 2 Q.Q.) Z.W.T.9.j T T T T j 9.T.W.m.S , A / Q.Q.Q.Q.Q.",
"Q.Q.Q.3 6.< Q.Q.Z w.y.t.x.B.n.n.n.n.B.z.t.u.q.r + Q.Q.Q.Q.Q.Q.Q.",
"Q.Q.Q.3 { 3 Q.Q.n %   @ f.L.A.A.A.A.L.f.@ . * A Q.Q.Q.Q.Q.Q.Q.Q.",
"Q.Q.Q.3 _ 3 3 3 3 : ; 3 f x z z z z x d 3 > t C Q.Q.Q.Q.Q.Q.Q.Q.",
"Q.Q.Q.Q.7 [ 3.J 8 ^ L : @ O # $ # # @ & 3 3 y V Q.Q.Q.Q.Q.Q.Q.Q.",
"Q.Q.Q.Q.Q.3 3 = w +.Q > a s 3 3 3 3 3 3 3 3 y V Q.Q.Q.Q.Q.Q.Q.Q.",
"Q.Q.Q.Q.Q.Q.Q.Q.B l 4 8 O.X.3 : 3 3 3 3 3 3 y V Q.Q.Q.Q.Q.Q.Q.Q.",
"Q.Q.Q.Q.Q.Q.Q.Q.[ M - 0 $.%.J H J J J J J k e V Q.Q.Q.Q.Q.Q.Q.Q.",
"Q.Q.Q.Q.Q.Q.Q.Q.3 5 m 0 ; = 5 5 5 5 5 9 9 1 B F Q.Q.Q.Q.Q.Q.Q.Q.",
"Q.Q.Q.Q.Q.Q.Q.Q.Q.3 7.m Q.Q.Q.Q.Q.Q.Q.Q.Q.4 ' ` Q.Q.Q.Q.Q.Q.Q.Q.",
"Q.Q.Q.Q.Q.Q.Q.Q.Q.Q.5 Q.Q.Q.Q.Q.Q.Q.Q.Q.Q.1 6 < Q.Q.Q.Q.Q.Q.Q.Q.",
"Q.Q.Q.Q.Q.Q.Q.Q.Q.Q.Q.Q.Q.Q.Q.Q.Q.Q.Q.Q.Q.7 3 Q.Q.Q.Q.Q.Q.Q.Q.Q."
};
