/* XPM */
static char *result[] = {
/* columns rows colors chars-per-pixel */
"32 32 136 2 ",
"   c #EB5D00",
".  c #EC5F00",
"X  c #E76200",
"o  c #E76300",
"O  c #E76500",
"+  c #E76502",
"@  c #E76504",
"#  c #EE6000",
"$  c #E86400",
"%  c #EE6500",
"&  c #EF6500",
"*  c #E86606",
"=  c #E7670E",
"-  c #E8670D",
";  c #E8670E",
":  c #E8680E",
">  c #E8680F",
",  c #F46300",
"<  c #F16A06",
"1  c #F3760F",
"2  c #E76914",
"3  c #E76A16",
"4  c #E76A17",
"5  c #E86811",
"6  c #E86913",
"7  c #E86914",
"8  c #E86915",
"9  c #E86A16",
"0  c #E96A16",
"q  c #E86A17",
"w  c #E96A17",
"e  c #E86B17",
"r  c #EA6B17",
"t  c #EC6C17",
"y  c #ED6C17",
"u  c #E76A18",
"i  c #E86A18",
"p  c #EF6D18",
"a  c #EE6D19",
"s  c #E96C1D",
"d  c #F26E15",
"f  c #F06D18",
"g  c #F26F18",
"h  c #F47018",
"j  c #FB7319",
"k  c #FF7519",
"l  c #FF771A",
"z  c #FF791A",
"x  c #ED7125",
"c  c #EB742C",
"v  c #EA752F",
"b  c #EE772F",
"n  c #F77421",
"m  c #F0762C",
"M  c #F1762C",
"N  c #ED7730",
"B  c #EC7731",
"V  c #ED7731",
"C  c #ED7831",
"Z  c #EE7832",
"A  c #EB7D3C",
"S  c #EA7D3D",
"D  c #F07830",
"F  c #F27A32",
"G  c #DD7B59",
"H  c #F38536",
"J  c #FF8D3D",
"K  c #DD805D",
"L  c #DE815E",
"P  c #DE815F",
"I  c #DF825F",
"U  c #EB8344",
"Y  c #EC8344",
"T  c #ED8A4D",
"R  c #F78643",
"E  c #FD904E",
"W  c #EE9053",
"Q  c #ED9054",
"!  c #EE9459",
"~  c #EE9559",
"^  c #EE955A",
"/  c #EF965C",
"(  c #EF995E",
")  c #FE9250",
"_  c #FF9351",
"`  c #FF9654",
"'  c #FF9B52",
"]  c #FF9B55",
"[  c #F7985A",
"{  c #F99B5D",
"}  c #FB9C5E",
"|  c #E38460",
" . c #F09B60",
".. c #F19C60",
"X. c #F09C61",
"o. c #F19D62",
"O. c #F09E63",
"+. c #F79D60",
"@. c #FC9E60",
"#. c #FFA161",
"$. c #FFA764",
"%. c #FFA866",
"&. c #FFA966",
"*. c #E4A57E",
"=. c #FAA276",
"-. c #A7BDBE",
";. c #A8BDBE",
":. c #AABEBF",
">. c #AFBEBE",
",. c #B2BBBA",
"<. c #B2BCBA",
"1. c #B6C1BF",
"2. c #ABBFC0",
"3. c #A6C2C5",
"4. c #ABC0C1",
"5. c #ACC0C1",
"6. c #A8C3C5",
"7. c #AFC3C4",
"8. c #A8C4C6",
"9. c #ADC6C8",
"0. c #B3C6C7",
"q. c #B1C8C9",
"w. c #B5CACB",
"e. c #B7CBCC",
"r. c #BFCDCD",
"t. c #BECFD0",
"y. c #C0CFCF",
"u. c #C0D1D1",
"i. c #C2D3D3",
"p. c #C5D1D1",
"a. c #C9D5D5",
"s. c #C5D8D9",
"d. c #D2E1E1",
"f. c #D6E4E4",
"g. c #DBE8E8",
"h. c None",
/* pixels */
"h.h.f.g.a.h.h.h.h.h.h.h.h.h.h.h.h.h.h.h.h.h.h.h.h.h.h.h.h.h.h.h.",
"h.y.u.i.r.h.h.h.h.h.h.h.h.h.h.h.h.h.h.h.h.h.h.h.h.h.h.h.h.h.h.h.",
"d.t.;.-.s.p.h.h.h.h.h.h.h.h.h.h.h.h.h.h.h.h.h.h.h.h.h.h.h.h.h.h.",
"0.7.2.2.9.1.*.h.h.h.h.h.h.h.h.h.h.h.h.h.h.h.h.h.h.h.h.h.h.h.h.h.",
":.2.5.5.3.<.=.H h.h.h.h.h.h.h.h.h.h.h.h.h.h.h.h.h.h.h.h.h.h.h.h.",
"5.5.5.5.6.,.G 1 @.&.! h.h.h.h.h.h.{ #.} } $.~ h.h.h.h.h.h.h.h.h.",
"5.5.5.5.6.,.K % C M Y X.X. . .O.W B b N V m S ( o...h.h.h.h.h.h.",
"5.5.5.5.6.,.P   + X D _ _ ) ) ` R * $ @ @ X x E ] T h.h.h.h.h.h.",
"5.5.5.5.6.,.L . q i 7 ; ; : : - 5 q q q q i 8 > X c [ %.^ h.h.h.",
"5.5.5.5.6.,.L . q q 9 6 6 6 6 6 7 q q q q q 9 6 = s Z F A / h.h.",
"5.5.5.5.6.,.L . q q q q q q q q q q q q q q q q a d < & n ' Q h.",
"5.5.5.5.6.,.L . q q q q q q q q q q q q q q q q w q 4 u 2 O U +.",
"5.5.5.5.6.,.L . q q q q q q q q q q q q q h k l e h.h.h.h.h.v J ",
"5.5.5.5.6.,.L . q q q q q q q q q q q t g 3 e e h.h.h.h.h.h.h.o ",
"5.5.5.5.6.,.L . q q q q q q q q q q q y t h.h.h.h.h.h.h.h.h.h.h.",
"5.5.5.5.6.,.L . q q q q q q q q q q l 0 h.h.h.h.h.h.h.h.h.h.h.h.",
"5.5.5.5.8.,.| , p r q q q q q q t f q h.h.h.h.h.h.h.h.h.h.h.h.h.",
"5.5.5.5.6.,.I # r q q q q q q q f t h.h.h.h.h.h.h.h.h.h.h.h.h.h.",
"5.5.5.5.q.>.h.h.h.q z j j j j z q h.h.h.h.h.h.h.h.h.h.h.h.h.h.h.",
"5.5.5.5.e.4.h.h.h.u w q q q q 3 h.h.h.h.h.h.h.h.h.h.h.h.h.h.h.h.",
"5.5.5.5.w.5.h.h.h.h.h.h.h.h.h.h.h.h.h.h.h.h.h.h.h.h.h.h.h.h.h.h.",
"5.5.5.5.w.5.h.h.h.h.h.h.h.h.h.h.h.h.h.h.h.h.h.h.h.h.h.h.h.h.h.h.",
"5.5.5.5.w.5.h.h.h.h.h.h.h.h.h.h.h.h.h.h.h.h.h.h.h.h.h.h.h.h.h.h.",
"5.5.5.5.w.5.h.h.h.h.h.h.h.h.h.h.h.h.h.h.h.h.h.h.h.h.h.h.h.h.h.h.",
"5.5.5.5.w.5.h.h.h.h.h.h.h.h.h.h.h.h.h.h.h.h.h.h.h.h.h.h.h.h.h.h.",
"5.5.5.5.w.5.h.h.h.h.h.h.h.h.h.h.h.h.h.h.h.h.h.h.h.h.h.h.h.h.h.h.",
"5.5.5.5.w.5.h.h.h.h.h.h.h.h.h.h.h.h.h.h.h.h.h.h.h.h.h.h.h.h.h.h.",
"5.5.5.5.w.5.h.h.h.h.h.h.h.h.h.h.h.h.h.h.h.h.h.h.h.h.h.h.h.h.h.h.",
"5.5.5.5.w.5.h.h.h.h.h.h.h.h.h.h.h.h.h.h.h.h.h.h.h.h.h.h.h.h.h.h.",
"5.5.5.5.w.5.h.h.h.h.h.h.h.h.h.h.h.h.h.h.h.h.h.h.h.h.h.h.h.h.h.h.",
"5.5.5.5.w.5.h.h.h.h.h.h.h.h.h.h.h.h.h.h.h.h.h.h.h.h.h.h.h.h.h.h.",
"5.5.5.5.w.5.h.h.h.h.h.h.h.h.h.h.h.h.h.h.h.h.h.h.h.h.h.h.h.h.h.h."
};
