/* XPM */
static char *result[] = {
/* columns rows colors chars-per-pixel */
"32 32 134 2 ",
"   c #E65B00",
".  c #EB5B00",
"X  c #EE5800",
"o  c #EC5E00",
"O  c #EC5F00",
"+  c #E76300",
"@  c #E76605",
"#  c #E76606",
"$  c #E86200",
"%  c #E86300",
"&  c #E86400",
"*  c #E76608",
"=  c #E8670C",
"-  c #E8670D",
";  c #E7680F",
":  c #F46300",
">  c #E76916",
",  c #E76917",
"<  c #E86811",
"1  c #E86812",
"2  c #E86912",
"3  c #E96912",
"4  c #EC6A12",
"5  c #E86914",
"6  c #E86915",
"7  c #E86A16",
"8  c #E96A16",
"9  c #E86A17",
"0  c #E96A17",
"q  c #E86B17",
"w  c #E96B17",
"e  c #EA6B17",
"r  c #EB6B17",
"t  c #E86A18",
"y  c #E96A18",
"u  c #EE6D18",
"i  c #F06C12",
"p  c #F06E18",
"a  c #F16E18",
"s  c #FA7114",
"d  c #FF7816",
"f  c #F77118",
"g  c #F77119",
"h  c #FA7219",
"j  c #FB7319",
"k  c #FC7319",
"l  c #FF761A",
"z  c #FF791A",
"x  c #FF7A1A",
"c  c #EF7123",
"v  c #EC7124",
"b  c #EF7327",
"n  c #EE7328",
"m  c #EC732A",
"M  c #EC752D",
"N  c #F17428",
"B  c #F2762A",
"V  c #EA7D3B",
"C  c #EB7D3B",
"Z  c #F07932",
"A  c #F07B35",
"S  c #DD7F5D",
"D  c #FF8333",
"F  c #F6833F",
"G  c #FF8D3A",
"H  c #DE815E",
"J  c #DE815F",
"K  c #EB8040",
"L  c #EC8140",
"P  c #EC8648",
"I  c #ED8B4E",
"U  c #F28A4B",
"Y  c #FC8E4C",
"T  c #FE914E",
"R  c #EE9257",
"E  c #EE9358",
"W  c #ED955A",
"Q  c #EF985D",
"!  c #EE985E",
"~  c #EF9A5F",
"^  c #FF9350",
"/  c #FF9452",
"(  c #FF9553",
")  c #FF9653",
"_  c #F49850",
"`  c #FF9854",
"'  c #FF9856",
"]  c #F09A5F",
"[  c #FF9E58",
"{  c #FD9D5D",
"}  c #EA8761",
"|  c #F28B63",
" . c #EF9B60",
".. c #EF9C61",
"X. c #F09C61",
"o. c #F09E63",
"O. c #F09E64",
"+. c #EE9C73",
"@. c #FFA161",
"#. c #FFA263",
"$. c #FFA664",
"%. c #FFA864",
"&. c #A7BDBE",
"*. c #A8BDBE",
"=. c #AABEBF",
"-. c #AFBEBE",
";. c #B2BBBA",
":. c #B3BBBA",
">. c #E3A581",
",. c #ABBFC0",
"<. c #A6C2C5",
"1. c #ABC0C1",
"2. c #ACC0C1",
"3. c #A8C3C5",
"4. c #AFC3C4",
"5. c #A8C4C6",
"6. c #ADC6C8",
"7. c #B7C2C0",
"8. c #B3C6C7",
"9. c #B1C8C9",
"0. c #B5CACB",
"q. c #B7CBCC",
"w. c #BFCDCD",
"e. c #BECFD0",
"r. c #C0CFCF",
"t. c #C0D1D1",
"y. c #C2D3D3",
"u. c #C5D1D1",
"i. c #C9D5D5",
"p. c #C5D8D9",
"a. c #D2E1E1",
"s. c #D6E4E4",
"d. c #DBE8E8",
"f. c None",
/* pixels */
"f.f.s.d.i.f.f.f.f.f.f.f.f.f.f.f.f.f.f.f.f.f.f.f.f.f.f.f.f.f.f.f.",
"f.r.t.y.w.f.f.f.f.f.X.f.f.f.f.X.f.f.f.f.f.f.f.f.f.f.f.f.f.f.f.f.",
"a.e.*.&.p.u.f.f.f.E %.{ { { { %.E f.f.f.f.f.f.f.f.f.f.f.f.f.f.f.",
"8.4.,.,.6.7.>._ ! V n M M M M b K ] f.f.f.f.f.f.f.f.f.f.f.f.f.f.",
"=.,.2.2.<.;.+.G Y v % @ @ @ @ $ B T R f.f.f.f.f.f.f.f.f.f.f.f.f.",
"2.2.2.2.3.;.S . = 6 t 9 9 9 9 t - * ` Q f.f.f.f.f.f.f.f.f.f.f.f.",
"2.2.2.2.3.;.H o 5 7 9 9 9 9 9 9 6 5 c L ~ f.f.f.f.f.f.f.f.f.f.f.",
"2.2.2.2.3.;.H O 9 9 9 9 9 9 9 9 9 9 & N ^ R f.f.f.f.f.f.f.f.f.f.",
"2.2.2.2.3.;.H O 9 9 9 9 9 9 9 9 9 9 t ; # U #.@.f.f.f.f.f.f.W $.",
"2.2.2.2.3.;.H O 9 9 9 9 9 9 9 9 9 9 9 6 1 m A Z I O. . ...o.P D ",
"2.2.2.2.3.;.H O 9 9 9 9 9 9 9 9 9 9 9 9 9 = & + F ' ( / ) [ C   ",
"2.2.2.2.3.;.H O 9 9 9 9 9 9 9 9 9 9 9 9 9 9 9 9 5 < 1 2 3 i f.f.",
"2.2.2.2.3.;.H O 9 9 9 9 9 9 9 9 9 9 9 9 9 9 9 9 5 4 s d 1 f.f.f.",
"2.2.2.2.3.;.H O 9 9 r p a p p a u 9 9 9 9 9 e p g 9 q 9 8 f.f.f.",
"2.2.2.2.3.;.H O 9 9 9 9 9 9 9 9 9 9 9 9 9 9 9 0 f q f.f.f.f.f.f.",
"2.2.2.2.3.;.J : k x 9 f.f.f.f.f.w h l j k z 9 f.f.f.f.f.f.f.f.f.",
"2.2.2.2.5.:.} o 9 > f.f.f.f.f.f.f.9 9 9 , y 9 f.f.f.f.f.f.f.f.f.",
"2.2.2.2.3.:.| X f.f.f.f.f.f.f.f.f.f.f.f.f.f.f.f.f.f.f.f.f.f.f.f.",
"2.2.2.2.9.-.f.f.f.f.f.f.f.f.f.f.f.f.f.f.f.f.f.f.f.f.f.f.f.f.f.f.",
"2.2.2.2.q.1.f.f.f.f.f.f.f.f.f.f.f.f.f.f.f.f.f.f.f.f.f.f.f.f.f.f.",
"2.2.2.2.0.2.f.f.f.f.f.f.f.f.f.f.f.f.f.f.f.f.f.f.f.f.f.f.f.f.f.f.",
"2.2.2.2.0.2.f.f.f.f.f.f.f.f.f.f.f.f.f.f.f.f.f.f.f.f.f.f.f.f.f.f.",
"2.2.2.2.0.2.f.f.f.f.f.f.f.f.f.f.f.f.f.f.f.f.f.f.f.f.f.f.f.f.f.f.",
"2.2.2.2.0.2.f.f.f.f.f.f.f.f.f.f.f.f.f.f.f.f.f.f.f.f.f.f.f.f.f.f.",
"2.2.2.2.0.2.f.f.f.f.f.f.f.f.f.f.f.f.f.f.f.f.f.f.f.f.f.f.f.f.f.f.",
"2.2.2.2.0.2.f.f.f.f.f.f.f.f.f.f.f.f.f.f.f.f.f.f.f.f.f.f.f.f.f.f.",
"2.2.2.2.0.2.f.f.f.f.f.f.f.f.f.f.f.f.f.f.f.f.f.f.f.f.f.f.f.f.f.f.",
"2.2.2.2.0.2.f.f.f.f.f.f.f.f.f.f.f.f.f.f.f.f.f.f.f.f.f.f.f.f.f.f.",
"2.2.2.2.0.2.f.f.f.f.f.f.f.f.f.f.f.f.f.f.f.f.f.f.f.f.f.f.f.f.f.f.",
"2.2.2.2.0.2.f.f.f.f.f.f.f.f.f.f.f.f.f.f.f.f.f.f.f.f.f.f.f.f.f.f.",
"2.2.2.2.0.2.f.f.f.f.f.f.f.f.f.f.f.f.f.f.f.f.f.f.f.f.f.f.f.f.f.f.",
"2.2.2.2.0.2.f.f.f.f.f.f.f.f.f.f.f.f.f.f.f.f.f.f.f.f.f.f.f.f.f.f."
};
