/* XPM */
static char *result[] = {
/* columns rows colors chars-per-pixel */
"32 32 71 1 ",
"  c #705135",
". c #7A5A3C",
"X c #815E3E",
"o c #BA7B3E",
"O c #876341",
"+ c #886442",
"@ c #926A44",
"# c #966E48",
"$ c #9B734C",
"% c #BF7744",
"& c #BC7B43",
"* c #BE7F4A",
"= c #A37952",
"- c #AD7F53",
"; c #C07647",
": c #C27348",
"> c #C17B4C",
", c #7FBD1F",
"< c #76C416",
"1 c #7BC11B",
"2 c #80BE1F",
"3 c #B5843C",
"4 c #B28C3D",
"5 c #A59E36",
"6 c #AD943C",
"7 c #A79C39",
"8 c #A99A39",
"9 c #B0913D",
"0 c #96AD2F",
"q c #8BB727",
"w c #84BB22",
"e c #88B825",
"r c #8DB529",
"t c #92B12B",
"y c #9EA534",
"u c #9BA931",
"i c #A2A235",
"p c #84C420",
"a c #8ACE22",
"s c #8ED422",
"d c #94DD24",
"f c #9DEB27",
"g c #B78540",
"h c #BA8142",
"j c #B58941",
"k c #BE834C",
"l c #AE8359",
"z c #B58355",
"x c #BD8652",
"c c #BE8854",
"v c #B5865A",
"b c #B88759",
"n c #B6895D",
"m c #BB8B5C",
"M c #BC8F63",
"N c #C1804F",
"B c #C08551",
"V c #C18A55",
"C c #C58E5B",
"Z c #C6915E",
"A c #C9925E",
"S c #C69362",
"D c #C89666",
"F c #CD9866",
"G c #C79769",
"H c #C99768",
"J c #C9996A",
"K c #D29962",
"L c #D09E6E",
"P c #D7A371",
"I c None",
/* pixels */
"IIfddddddddddddddddddddddddddfII",
"IssaaaaaaaaaaaasaaaaaaaaaaaasssI",
"fs,,,,w,,,,,,,,,,,,,,w,,,,,,,,sf",
"pp,,22,,222222w,,,,,2222,,,2,,pp",
",,222222,1w22222,2222222222w,2,,",
"222w2222,,22222222222222222122w,",
"22w11111pw2222w1111,222221111,,,",
"2211qyyr1122w11tyue122221w0i0w11",
"21w1i%;8w,,,w1w6;;u122221th:jr,2",
"21w7g&&36e<p<r9h&&3i112<uj3&&4t<",
"1ey3>VVk&7q1r8&xVV>3uw204>VVV;60",
"1i%&CJJZh%7w6;&SJJV&&0qh&NHJSk&&",
"63&ZHJJHZk36okSGJJHC&49oVDJJHDVo",
"%kmJJJJJJVk&kZJJJJJDV&&VSJJJJJZk",
"&VJJJJJJJJZ&SJGJJJJJJckGJJJJJJJJ",
"ZDJJJJJJJJGSDGGJJJJJGSSJJJJGJJJJ",
"JJJJDDDDJJJJJJJDDDJJJJLGJJJDDJJJ",
"JJJJDCCDJJJJJJJSVZDJJJGJJGZCCJJJ",
"JJDSZCCAS-$=SJACCCAm=$lGDCCCCCDJ",
"JGDCCCCCC@ XnDCCCZAzX @SSCCCCCSD",
"JSCZCZCCC#.OzSCCZCAbO.#CACCCCCCC",
"SZCCZDDSVv--CAAFFFFVz-zCCCDDDCCC",
"CCCZSJJDZAAAczzMMMbcCAACCSJJDSCC",
"CCZDJJJJJACC$X++++X$VSCCSJJJJJSC",
"CZDGJJJGJDSCblvllvlnDZCSJJJDJGDS",
"ZSJJJGHHGJDCJJJJJLJJJSZJJJJJJJJJ",
"DJJJJJHHJJJJJJJJJJJJJDJJJJJJJGJJ",
"JJGJDADJJDJJJJJDSDDJJJJDJJSSSJJJ",
"HHJGSCCZDJJJJJDSVCDDJJJJJSCCCDJJ",
"PLJACCCCZDJJJDCCCZCSJJJJSCCCCZFP",
"IHDCCCCCCSDJDZCCCCCCSDJSZCZCAASI",
"IIKAZCCZCCSJZCCZCZCCCDDCCZCCAKII"
};
