/* XPM */
static char *result[] = {
/* columns rows colors chars-per-pixel */
"32 32 69 1 ",
"  c #6F5236",
". c #7F5D3D",
"X c #805E3E",
"o c #BA7B3E",
"O c #8C6744",
"+ c #8C6846",
"@ c #916B46",
"# c #9A714A",
"$ c #9D7550",
"% c #A3774E",
"& c #A4784E",
"* c #AA7B4E",
"= c #BF7744",
"- c #BC7B43",
"; c #BE7F4A",
": c #A17851",
"> c #C07647",
", c #C27348",
"< c #C17B4C",
"1 c #7FBD1F",
"2 c #76C416",
"3 c #7BC11B",
"4 c #80BE1F",
"5 c #B5843C",
"6 c #B28C3D",
"7 c #A59E36",
"8 c #AD943C",
"9 c #A79C39",
"0 c #A99A39",
"q c #B0913D",
"w c #96AD2F",
"e c #8BB727",
"r c #84BB22",
"t c #88B825",
"y c #8DB529",
"u c #92B12B",
"i c #9EA534",
"p c #9BA931",
"a c #A2A235",
"s c #84C420",
"d c #8ACE22",
"f c #8ED422",
"g c #94DD24",
"h c #9DEB27",
"j c #B78540",
"k c #BA8142",
"l c #B58941",
"z c #BE834C",
"x c #AD8158",
"c c #B58354",
"v c #BC8654",
"b c #BD8854",
"n c #BD8B5C",
"m c #BB8D60",
"M c #C1804F",
"N c #C08551",
"B c #C18A55",
"V c #C58E5B",
"C c #C6905E",
"Z c #C9925E",
"A c #C69363",
"S c #C89665",
"D c #CE9966",
"F c #C99768",
"G c #C9996A",
"H c #D29962",
"J c #D09E6E",
"K c #D7A371",
"L c None",
/* pixels */
"LLhgggggggggggggggggggggggggghLL",
"LffddddddfdddddddddddddddddfdffL",
"hf1111r111r111111111r111111111fh",
"ss1144111113111rr1113r11111r11ss",
"11444444s11rr3113r11r3s144441411",
"444r444411r31r1sr31s3r1144411444",
"44r33333s1r31s132331rs1s43333144",
"4433eiiy313r133uipe311113rwiwr34",
"43r3a>>0r3srs1r8><p344443uk,le3s",
"43r9jo-58t212eljo-ja3342pl5o-5w2",
"3ti5<nbz-7e3e9=zBN<5pr4w6<NVb=8w",
"3a=-VGGCk=9rl=kAGGN--wyj-MFGSz--",
"85;VSGGFA;58ozAGGGGVo6qobSGGGSbo",
"=zbFGGGGFVz-znGGGGGFb;=bSGGGGGAz",
"-VGGGGGGFGC-AGGGGGGGGvzFGGGGGSGG",
"CSGGGGGGFGSAFGGGGGGGGAAGGGGGGGGG",
"GGGGFAFFGGGGGGGFSSFGGGGGGGFFFFGF",
"GGFGAVVAGGGGGFGCVVAGGGGGGGVVVFGG",
"GGGAVVVCAGGGGFCCVVCSGGGGFCVVVCFG",
"GFAVVCVVCmmnSAVVVVVVmmmSAVVVVVCF",
"GAVVVVVVV#XOvZCVCVZvOX#VZVVCVVVC",
"AZVVASSAB@ XcZCAFAZc. @BCCAFACVV",
"VVVCSGGFV&@#bZAGGGDn#O&VCZFGFAVV",
"VVVFGGGGFCBVCAGGGGGFVVVVAGGFFDAV",
"VZSFGGFGGFAC*#::::#xFZZAFGGFGGSA",
"CAGGGFFGGGFC&O@+@@O:GACGGGGFFGGG",
"FGGGGFGGGFFFSFAFGFSFFFFFGGGGGGGG",
"GFFGSAASGGGGGGGGASGGGGGGGFAAAGGG",
"GGGFAVVAFGFGGFFCVVAFGFGFGACBCAGG",
"KJFCVVVVCFGGGACVCVCCFFGGAVCVVCDK",
"LFDCVVVVVCFGFCVCCVVCAFFACVCVZZZL",
"LLHZVVVVCVCFCVVVVVCVVAFVVCCCZHLL"
};
