/* XPM */
static char *result[] = {
/* columns rows colors chars-per-pixel */
"32 32 102 2 ",
"   c #A9DBE1",
".  c #AADCE1",
"X  c #ABDDE2",
"o  c #ACDDE3",
"O  c #ACDEE3",
"+  c #ADDEE3",
"@  c #AEDFE3",
"#  c #AEDEE4",
"$  c #B0E0E5",
"%  c #B1E1E6",
"&  c #B3E2E6",
"*  c #B3E2E7",
"=  c #B4E3E7",
"-  c #B5E3E7",
";  c #B6E4E7",
":  c #B3E2E8",
">  c #B4E3E8",
",  c #B5E3E8",
"<  c #B5E3E9",
"1  c #B6E4E8",
"2  c #B7E4E8",
"3  c #B6E4E9",
"4  c #B7E4E9",
"5  c #B7E5E9",
"6  c #B8E5E9",
"7  c #B9E5E9",
"8  c #B9E6E9",
"9  c #BAE7EA",
"0  c #BBE7EB",
"q  c #BCE7EA",
"w  c #BBE7EC",
"e  c #BCE8EB",
"r  c #BDE8EB",
"t  c #BDE9EB",
"y  c #BCE8EC",
"u  c #BDE9EC",
"i  c #BEE9EC",
"p  c #BFE9EC",
"a  c #BFEAEC",
"s  c #BFEAED",
"d  c #C0EAED",
"f  c #C0EAEE",
"g  c #C0EBEE",
"h  c #C1EBEE",
"j  c #C2EBEE",
"k  c #C2ECEE",
"l  c #C2ECEF",
"z  c #C3ECEF",
"x  c #C3EDEF",
"c  c #C1EBF0",
"v  c #C2ECF0",
"b  c #C3EDF0",
"n  c #C4EDF0",
"m  c #C5EDF0",
"M  c #C4EDF1",
"N  c #C5EEF1",
"B  c #C6EEF1",
"V  c #C5EEF3",
"C  c #C6EFF2",
"Z  c #C7EFF2",
"A  c #C6EFF4",
"S  c #C7EFF4",
"D  c #C8F0F3",
"F  c #C9F0F3",
"G  c #C9F1F4",
"H  c #C8F0F5",
"J  c #CAF1F4",
"K  c #CAF2F5",
"L  c #CBF2F5",
"P  c #C9F1F6",
"I  c #CAF1F6",
"U  c #CBF2F6",
"Y  c #CCF2F5",
"T  c #CCF3F6",
"R  c #CDF3F6",
"E  c #CDF3F7",
"W  c #CDF4F7",
"Q  c #CEF4F7",
"!  c #CEF4F8",
"~  c #CEF5F8",
"^  c #CFF5F8",
"/  c #CFF5FA",
"(  c #D0F6F8",
")  c #D2F7FB",
"_  c #D2F7FC",
"`  c #D4F8FD",
"'  c #D5F9FD",
"]  c #D6F9FE",
"[  c #D4FAFF",
"{  c #D6FAFE",
"}  c #D6FAFF",
"|  c #D7FAFF",
" . c #D7FBFF",
".. c #D8FBFF",
"X. c #D9FBFF",
"o. c #D9FCFF",
"O. c #DAFCFF",
"+. c #DAFDFF",
"@. c #DBFEFF",
"#. c #DDFEFF",
"$. c #ECFDFF",
"%. c white",
/* pixels */
"%.%.%.%.%.%.%.%.%.%.%.%.%.%.%.%.%.%.%.%.%.%.%.%.%.%.%.%.%.%.%.%.",
"$.$.$.$.$.$.$.$.$.$.$.$.$.$.$.$.$.$.$.$.$.$.$.$.$.$.$.$.$.$.$.$.",
"[ [ [ [ [ [ [ [ [ [ [ [ [ [ [ [ [ [ [ [ [ [ [ [ [ [ [ [ [ [ [ [ ",
"| } } | } | | | | | } | | | | | } | | | | } | | | | | | | | } | ",
"| | | | | | | | | | | | | | | | | | | | | | | | | | | | | | | | ",
"| | | | | | | | | | | | | | | | | | | | | | | | | | | | | | | | ",
"| | | | | | | | | | | | | | | | | | | ..+.+.+.+.+.o. .| | | | | ",
"| | | | | | | | | | | | | | | ..o.o.+.` S V V A V I  .O.o.o...| ",
"| | | | | | | | | | | | |  .| ] ' ' ..U # X + o   , ) | ' ' {  .",
"+.+.O...| | | | | | ..+.+.@.O.c % , < 4 8 v M 9 8 7 < > , : P #.",
"H A P { O.X.X.o.X.O._ S S H S w = 1 $ & p Z D d a r 3 1 = @ y P ",
"O . % / ..] ] { { o.S X X X + M ( W n i i i i i t k T ^ L k - X ",
"7 6 2 3 3 3 3 3 3 3 5 7 2 0 M L Q W L N t r i r n K R Q R L f ; ",
"p z z 5 * = = = = * 6 d l D ^ W T T Q L n p i l J Q T T R Q F n ",
"r N W R R R R R R Q Z i D Q T T T T T R R z h T W T T T T T T T ",
"D K R W Q ~ ! Q W Q L D L E T W Q Q R T R J G R R R W Q W T T R ",
"Q R T W L D D J R T R W R R R J D D L R T W W T R T F D G T R T ",
"T T T W C i r n E R T T T R T z r i D Q T T T T W J d r h L W T ",
"T W T N d u r s n L Q T Q K z s r i g C W E R Q D h i r p l F Q ",
"R L Z s r i i r i B L R L n r r i i e d D T T G j e i i i e z G ",
"Q C i i i i i i i t N R z r i i i i i i i F L d i i i i i i i p ",
"n h r e j D D x r r d n s r r n D Z h e t l z i e s C D B i r i ",
"r r i d Z Q ^ G h p r r t a l J ^ Q B d i r r i s n R ^ Y z s i ",
"i r s G R T T R L h r i r l T R T T R D i t i r B R T T T T n r ",
"e h D T W T T R R G l r b J W R T T W Y Z d i B L W T T T W J C ",
"d Z Q R T R R T T Q D h J Q T T R R T R Q N z R W T R R R T R W ",
"L T T T R W W R T T T L T T T R W W R T T Y L T T T W W E T T T ",
"E R T Q G n n D Q R T W T E W Z n m K Q T R R T Q T N n C T W T ",
"T R T L n e q l L T R T R T J h q r B T T T T R T Z i q s F T R ",
"T Q T l i i i i h K Q T Q G d i i i i n R W R Q B i i i i p Z Q ",
"R G n p r i i i i z F T D l r i i i r s N K L B d r i i i r h B ",
"W N e i i i i i i e b T j e i i i i i i r D J i r i i i i i i r "
};
